<?xml version="1.0" encoding="UTF-8"?>
<svg xmlns="http://www.w3.org/2000/svg" width="229.3055521mm" height="52.9166659mm" version="1.1" viewBox="0 0 650 150">
  <title>LOGO_ORG_NL_RGB_BASIS_BLAUW</title>
<defs>
    <style>
      .cls-1 {
        fill: #fff;
      }

      .cls-2 {
        fill: #154273;
      }
    </style>
  </defs>
  <!-- Generator: Adobe Illustrator 28.6.0, SVG Export Plug-In . SVG Version: 1.2.0 Build 709)  -->
  <g>
    <g id="Beeldmerk">
      <g>
        <rect class="cls-2" x="300" width="50" height="100"/>
        <path class="cls-1" d="M325.8999996,77.3600006h-.8700008v-2.4100037h.8700008v2.4100037ZM329.8299999,66.7200012h-.8700008v-2.4100037h.8700008v2.4100037ZM313.71,62.5600014c-.0699997,0-.5199995,0-.5199995.0900002s.21.0499992.5200005.0999985c.6999998.1199989.9700003.4700012,1.46.4700012.4399996,0,.9000006-.2999992.7200003-.9399986-.0299997-.1100006-.0900002-.0800018-.1099997-.0099983-.0699997.2900009-.4200001.4500008-.79.4500008-.4600019-.0000038-.5500021-.1600037-1.2800016-.1600037ZM308.9200001,64.9700012c.0799999.1100006.8999996,1.1699982-.3599997,1.5800018-.0600004.0199966-.0699997.0699997.0100002.1100006.9300003.3899994,1.3800001-.3300018,1.3800001-.3300018.4699993,1.0800018-.250001,1.6699982-.250001,1.6699982.1000004.1900024.5500002.5199966,1.2200003.6699982.2600002-.1399994.6199999-.4000015.7700005-.8000031,0,0,.1800003.4700012.0200005.9199982,1.8999996.1699982,2.5699997-1.3499985,4.04-1.0699997.04.0100021.0600004-.0199966.0600004-.0599976,0-.9400024-.5699997-2.6500015-2.3900003-3-1.8100004-.3499985-1.3199997-1.0900002-1.3199997-1.0900002.7600002-.0299988,1.1999998.2999992,1.1999998.2999992.1400003-.2299995-.0600004-.4700012-.0600004-.4700012.0699997-.0900002.1099997-.4000015.1099997-.4000015-.8599997,0-1.0799999-.1899986-1.0799999-.1899986-.1300001-.5099983.2200003-1.2299995,1.5-.4599991.3199997-.2799988.29-.7200012.29-.7200012.1000004-.0499992.1599998-.2000008.1599998-.2599983,0-.2099991-1.0199995-.7799988-1.2799997-.8499985-.0600004-.3100014-.46-.75-1.6599998-.5900002-.5699997.0699997-.9799995-.0800018-.79-.4099998.0299997-.0600014-.0699997-.0699997-.1199999-.0099983-.1300001.1300011-.3100004.5.1800003.75.5500002.2799988.5799999.8300018.5900002.9099998.0100002.1199989-.1300001.1300011-.1599998.0099983-.25-.9300003-1.5299997-1.1300011-2.2799997-.6399994.04.5.5799999.8300018.8699999.8300018.1700001,0,.3999996-.1699982.3999996-.4000015,0-.1100006.0600004-.0999985.0900002-.0099983.1199999.3300018-.3699999,1.0200005-1.0900002.5999985-.7399998.7400017-.4399996,1.6599998-.3699999,1.9900017.1300001.6000023-.1599998,1.1899986-.71.920002-.0300002-.0100021-.0599999-.0199966-.0599999.0400009.0099988.3600006.4999986.7900009,1.0899987.4599991ZM313,61.2400017c-.3500004.3899994-.9099998.2999992-1.0500002-.3400002.7200003-.0400009,1.0200005.0299988,1.0500002.3400002ZM335.0699997,62.7200012c-.3699989,0-.7200012-.1599998-.7900009-.4500008-.0200005-.0699997-.0800018-.0999985-.1100006.0099983-.1800003.6399994.2799988.9399986.7200012.9399986.4900017,0,.7599983-.3499985,1.4599991-.4700012.3100014-.0499992.5200005,0,.5200005-.0999985,0-.0900002-.4500008-.0900002-.5200005-.0900002-.7199974.0000038-.8199997.1600037-1.2799988.1600037ZM342.2299995,64.4899979c0-.0599976-.0299988-.0500031-.0600014-.0400009-.5499992.2699966-.8400002-.3099976-.7099991-.9199982.0699997-.3400002.3699989-1.25-.3699989-1.9900017-.7299995.4199982-1.2200012-.2700005-1.0900002-.5999985.0299988-.0900002.0900002-.0999985.0900002.0099983,0,.2299995.2299995.4000015.4000015.4000015.2900009,0,.8300018-.3300018.8699989-.8300018-.75-.4900017-2.0299988-.2900009-2.2799988.6399994-.0299988.1199989-.1699982.1100006-.1599998-.0099983,0-.0800018.0400009-.6300011.5900002-.9099998.5-.25.3199997-.6199989.1800003-.75-.0499992-.0499992-.1599998-.0400009-.1199989.0099983.1899986.3300018-.2200012.4799995-.7799988.4099998-1.2000008-.1599998-1.5900002.2900009-1.6599998.5900002-.2599983.0699997-1.2799988.6399994-1.2799988.8499985,0,.0600014.0600014.2200012.1599998.2599983,0,0-.0200005.4300003.2900009.7200012,1.2700005-.7700005,1.6300011-.0499992,1.5.4599991,0,0-.2299995.1800003-1.0900002.1899986,0,0,.0400009.3100014.1100006.4000015,0,0-.2000008.25-.0600014.4700012,0,0,.4399986-.3300018,1.2000008-.2999992,0,0,.4900017.7399979-1.3199997,1.0899963-1.8100014.3499985-2.3899994,2.0599976-2.3899994,3,0,.0500031.0200005.0699997.0600014.0599976,1.4700012-.2699966,2.1399994,1.25,4.0400009,1.0699997-.1699982-.4499969.0200005-.9199982.0200005-.9199982.1500015.4000015.5099983.6699982.7700005.8000031.6800003-.1500015,1.1199989-.4700012,1.2200012-.6699982,0,0-.7200012-.5899963-.25-1.6699982,0,0,.4500008.7200012,1.3800011.3300018.0800018-.0400009.0600014-.0899963.0099983-.1100006-1.2599983-.4100037-.4399986-1.4700012-.3600006-1.5800018.5899887.3500061,1.0899887-.0799942,1.0899887-.4599991ZM338.1100006,60.9000015c-.1399994.6399994-.7000008.7299995-1.0499992.3400002.0299988-.3100014.3400002-.3800011,1.0499992-.3400002ZM324.7000008,50.2099991c0,.1599998.0699997.2999992.1200008.3800011.1100006.1599998.0900002.25.0400009.2999992s-.1399994.0699997-.2999992-.0400009c-.0799999-.0600014-.2199993-.1199989-.3799992-.1199989-.2700005,0-.4099998.1800003-.4099998.3300018s.1399994.3300018.4099998.3300018c.1599998,0,.2999992-.0699997.3799992-.1199989.1599998-.1100006.25-.0900002.2999992-.0400009s-.0200005.5999985-.0900002,1.0400009c-.4500008.0999985-.6700001.4599991-.6700001.6699982,0,.5499992.5799999.8600006.9300003,1.0499992.3400002-.1800003.9300003-.5.9300003-1.0499992,0-.2099991-.2199993-.5800018-.6700001-.6699982-.0599995-.4300003-.1399994-.9900017-.0900002-1.0400009s.1399994-.0699997.2999992.0400009c.0799999.0600014.2199993.1199989.3799992.1199989.2700005,0,.4099998-.1800003.4099998-.3300018s-.1399994-.3300018-.4099998-.3300018c-.1599998,0-.2999992.0699997-.3799992.1199989-.1599998.1100006-.25.0900002-.2999992.0400009s-.0699997-.1399994.0400009-.2999992c.0599995-.0800018.1200008-.2200012.1200008-.3800011,0-.2700005-.1800003-.4099998-.3299999-.4099998-.1500053,0-.3300037.1399994-.3300037.4099998ZM325.0300007,54.2700005c-.3700008,0-.6700001.2999992-.6700001.6699982s.2999992.6699982.6700001.6699982.6700001-.2999992.6700001-.6699982-.3000011-.6699982-.6700001-.6699982ZM325.0300007,60.6800003c2.6700001,0,4.1700001.5099983,4.1700001.5099983.0100002-1.3499985.0100002-2.0999985.7800007-1.9900017-.4200001-1.1300011,1.3999996-1.5800018,1.3999996-3.0499992,0-.9700012-.6900005-1.0800018-.8899994-1.0800018-.6000004,0-.5100002.3899994-1.0200005.3899994-.0599995,0-.1299992-.0200005-.1299992.0299988,0,.1699982.1399994.4599991.3799992.4599991.3199997,0,.3199997-.3199997.5599995-.3199997.1000004,0,.25.0800018.25.4099998,0,.6300011-.4099998,1.3199997-.8999996,1.8600006-.1100006-.1500015-.2600002-.25-.4500008-.25-.2900009,0-.5400009.2999992-.5400009.6699982,0,.1399994.0200005.2400017.0699997.3499985-.1599998.0900002-.3099995.1399994-.4099998.1399994-.2199993,0-.5499992-.0900002-.5499992-.5699997,0-1.0699997,1.4300003-2.0099983,1.4300003-3.3699989,0-.6500015-.4300003-1.2900009-1.3400002-1.2900009-.9699993,0-.7900009.8800011-1.6299992.8800011-.0400009,0-.0699997.0099983-.0699997.0499992,0,.0600014.1499996.5499992.5799999.5499992.4599991,0,.5900002-.7999992,1.0100002-.7999992.1499996,0,.3799992.0900002.3799992.6300011,0,.4199982-.2099991,1.1100006-.5100002,1.7599983-.1100006-.1100006-.2600002-.1899986-.4200001-.1899986-.3600006,0-.6200008.3499985-.6200008.7599983,0,.2599983.1000004.5200005.2800007.6800003-.2099991.2700005-.4300003.4900017-.7199993.4900017-.5799999,0-.8299999-.3300018-.8299999-.6899986,0-.3899994.7099991-.5299988.7099991-1.1300011,0-.4099998-.2700005-.6399994-.5200005-.6399994-.2800007,0-.4200001.1800003-.4500008.1800003s-.1700001-.1800003-.4500008-.1800003c-.2600002,0-.5200005.2299995-.5200005.6399994,0,.5999985.7099991.75.7099991,1.1300011,0,.3600006-.2600002.6899986-.8299999.6899986-.2900009,0-.5100002-.2200012-.7199993-.4900017.1800003-.1699982.2800007-.4199982.2800007-.6800003,0-.4199982-.2600002-.7599983-.6200008-.7599983-.1700001,0-.3099995.0800018-.4200001.1899986-.2999992-.6599998-.5100002-1.3400002-.5100002-1.7599983,0-.5400009.2299995-.6300011.3799992-.6300011.4099998,0,.5400009.7999992,1.0100002.7999992.4300003,0,.5799999-.4900017.5799999-.5499992,0-.0299988-.0300007-.0499992-.0699997-.0499992-.8400002,0-.6599998-.8800011-1.6299992-.8800011-.8999996,0-1.3400002.6399994-1.3400002,1.2900009,0,1.3600006,1.4300003,2.2999992,1.4300003,3.3699989,0,.4799995-.3299999.5699997-.5499992.5699997-.1100006,0-.25-.0499992-.4099998-.1399994.0499992-.1199989.0699997-.2099991.0699997-.3499985,0-.3699989-.25-.6699982-.5400009-.6699982-.1800003,0-.3299999.0999985-.4400005.25-.4899998-.5400009-.8999996-1.2299995-.8999996-1.8600006,0-.3199997.1499996-.4099998.25-.4099998.2299995,0,.2399998.3199997.5599995.3199997.2399998,0,.3799992-.2900009.3799992-.4599991,0-.0499992-.0699997-.0299988-.1299992-.0299988-.5100002,0-.4200001-.3899994-1.0200005-.3899994-.2000008,0-.8899994.1100006-.8899994,1.0800018,0,1.4799995,1.8199997,1.9199982,1.3999996,3.0499992.7700005-.1100006.7600002.6399994.7800007,1.9900017-.0099964,0,1.4900036-.5099983,4.1600037-.5099983ZM320.1399994,62.6699982c-.7299995.1599998-1.25.3100014-1.4799995.3800011.0100002-.3199997.1299992-.6199989.4200001-.6800003.0400009-.0099983.0499992-.0600014.0100002-.0800018-.6499996-.4300003-.9899998.3899994-1,.4199982-.2299995-.0200005-.5799999.0499992-.5799999.3600006,0,.9300003-2.1199999,1.4399986-2.6099997,1.5200005.8699999.3300018,1.2300005,1.4300003,1.2300005,1.4300003.6299992-.6299973,1.3600006-1.1800003,1.5300007-1.1800003s.2299995.2099991.2399998.3300018c0,.0400009.0400009.0500031.0699997.0199966.3299999-.4899979.1700001-.5999985.1399994-.75-.0200005-.1100006.0100002-.5400009.4899998-.4900017v6.1899986l-.25.0500031c-.1100006.0199966-1.0200005-.75-2.0499992-1.4700012-1.04-.7200012-1.5900002-.2900009-2.7700005.3499985-1.5500002.8399963-3.1099997.0800018-3.1099997.0800018-1.3299999.9499969-1.79,3.7099991-1.79,3.7099991-.2700005.1100006-.71.2300034-1.1199999.2300034-1.02,0-1.1999998-.6200027-1.1999998-.9800034,0-1.5699997,1.9700003-2.2399979,1.9700003-3.7900009,0-.3799973-.1700001-1.9000015-2.0599999-1.9000015h-1.6900001c-.71,0-.8800001-.5100021-.98-.6999969-.04-.0800018-.1099999-.0299988-.0799999.0299988.05.1299973-.0799999.3300018-.0799999.7200012,0,.6299973.3699999,1.0100021,1.0599999,1.0100021.3099999,0,.6100001-.0899963.6999998-.1500015.0599999-.0400009.0999999.0199966.0700002.0599976-.3000002.3499985-.3200002,1.0100021-.1999998,1.1600037.0300002.0400009.0700002.0299988.0700002,0,.1700001-.6600037.79-1.2900009,1.6300001-1.2900009,1.0299997,0,1.02.8700027,1.02,1.0800018,0,1.2600021-2.21,2.1800003-2.21,3.9199982,0,1.7600021,1.8600001,2.1299973,2.9299998,1.8600006-.0600004,1.7600021-2.0799999,2.3600006-2.1400003,1.0999985,0-.0599976-.0500002-.0699997-.0799999.0100021-.25.6200027-.1500001,1.1699982.6300001,1.3399963.0500002.0100021.0300002.0400009-.02.0800018-.7800002.4899979-.3600001,2.4300003-.3200002,3,.0599999.8199997-.7600002.7200012-.8299999.6999969-.0300002-.0100021-.0700002,0-.0100002.0699997.5799999.7099991,1.3000002.0599976,1.3000002.0599976.54.1699982.21.6299973-.1599998.8700027-.0599999.0400009-.0500002.0800018.0100002.0800018.0799999.0100021.9200001.0800018,1.0700002-.5899963.3700004.4400024.9199996.2799988,1.0300002.2200012.1599998-.0800018.9499998-.3700027,1.0200005.5100021,0,.0599976.04.0199966.0699997-.0100021.5900002-.75-.04-1.2099991-.3999996-1.2600021.0299997-.0400009.5-.4400024.9300003.1100006.0299997.0400009.0600004.0500031.0600004-.0299988.0500002-.9499969-.7200003-1.0299988-1.2200003-.6200027-.0200005-.0999985-.1899996-.6299973.5600004-.6100006.0200005,0,.0500002-.0299988.0200005-.0599976-.5799999-.6200027-1.0600004-.0599976-1.1800003.0800018-.2600002.3099976-.9099998.1800003-.9700003.1800003.1999998-3.2900009,3.1000004-2.1200027,3.5-3.7200012.0200005-.0800018.0600004-.0500031.0600004-.0199966.1099997.3899994,1.0900002.4400024,1.2699995-.3199997.0100002-.0500031,0-.0800018-.0299997-.0500031-.8400002.8399963-2.7300005-1.7799988-.1499996-3.9100037,2.1999998-1.8099976,4.170001-.8000031,4.920001-.2099991.0400009.2600021-.1200008.3499985-.2199993.3799973-.0400009.0100021-.0499992.0400009.0100002.0699997.2099991.0800018.5.0500031.6399994-.1399994.4699993.3300018.0699997.75-.1200008.8600006-.0499992.0299988-.0300007.0599976.0100002.0699997.4300003.0800018.7900009-.3600006.8099995-.6200027l.0699997.0400009v1.8700027c0,2.6600037,3.0699997,3.0299988,6.4400005,5.2799988,3.3699989-2.2600021,6.4300003-2.6200027,6.4300003-5.2799988v-1.8700027l.0699997-.0400009c.0200005.25.3700008.6999969.8100014.6200027.0400009-.0100021.0600014-.0400009.0099983-.0699997-.1899986-.1200027-.6000004-.5299988-.1199989-.8600006.1399994.1999969.4300003.2200012.6399994.1399994.0600014-.0199966.0499992-.0599976.0099983-.0699997-.0999985-.0299988-.2599983-.1200027-.2200012-.3799973.75-.5999985,2.7200012-1.6100006,4.920002.2099991,2.5800018,2.1299973.6899986,4.7399979-.1500015,3.9100037-.0400009-.0400009-.0400009,0-.0299988.0500031.1800003.7699966,1.1599998.7099991,1.2700005.3199997.0099983-.0299988.0499992-.0599976.0600014.0199966.4000015,1.5999985,3.2900009.4300003,3.5,3.7200012-.0600014.0100021-.7099991.1299973-.9700012-.1800003-.1100006-.1299973-.5900002-.6999969-1.1800003-.0800018-.0400009.0400009,0,.0599976.0200005.0599976.75-.0199966.5900002.5100021.5600014.6100006-.5-.4100037-1.2700005-.3300018-1.2200012.6200027,0,.0699997.0299988.0699997.0600014.0299988.4300003-.5500031.9000015-.1500015.9300003-.1100006-.3499985.0500031-.9900017.5100021-.4000015,1.2600021.0299988.0299988.0600014.0699997.0699997.0100021.0800018-.8799973.8600006-.5999985,1.0200005-.5100021.1100006.0599976.6599998.2200012,1.0299988-.2200012.1500015.6699982.9900017.5999985,1.0699997.5899963.0600014,0,.0600014-.0400009.0099983-.0800018-.3600006-.2399979-.7000008-.6999969-.1599998-.8700027,0,0,.7200012.6500015,1.2999992-.0599976.0499992-.0599976.0200005-.0800018-.0099983-.0699997-.0699997.0199966-.8899994.1200027-.8300018-.6999969.0400009-.5699997.4599991-2.5100021-.3199997-3-.0499992-.0299988-.0699997-.0599976-.0200005-.0800018.7799988-.1699982.8800011-.7200012.6300011-1.3399963-.0299988-.0800018-.0800018-.0599976-.0800018-.0100021-.0600014,1.2600021-2.0699997.6600037-2.1399994-1.0999985,1.0800018.2799988,2.9300003-.0999985,2.9300003-1.8600006,0-1.7300034-2.2099991-2.6600037-2.2099991-3.9199982,0-.2099991-.0099983-1.0800018,1.0200005-1.0800018.8400002,0,1.4599991.6299973,1.6300011,1.2900009.0099983.0299988.0400009.0400009.0699997,0,.1199989-.1600037.0999985-.8099976-.2000008-1.1600037-.0299988-.0299988,0-.0999985.0699997-.0599976.0900002.0599976.3899994.1500015.7000008.1500015.6899986,0,1.0600014-.3799973,1.0600014-1.0100021,0-.3899994-.1399994-.5899963-.0800018-.7200012.0299988-.0599976-.0499992-.0999985-.0800018-.0299988-.0999985.1999969-.2799988.6999969-.9799995.6999969h-1.6899986c-1.8899994,0-2.0600014,1.5299988-2.0600014,1.9000015,0,1.5500031,1.9700012,2.2200012,1.9700012,3.7900009,0,.3700027-.1899986.9800034-1.2000008.9800034-.4199982,0-.8600006-.1200027-1.1199989-.2300034,0,0-.4500008-2.75-1.7900009-3.7099991,0,0-1.5600014.7600021-3.1100006-.0800018-1.1800003-.6399994-1.7400017-1.0699997-2.7799988-.3499985-1.0400009.7200012-1.9400005,1.4899979-2.0499992,1.4700012l-.25-.0500031v-6.1899986c.4799995-.0499992.5100002.3800011.4899998.4900017-.0300007.1399994-.1800003.2600021.1400013.75.0299988.0400009.0600014.0199966.0699997-.0199966.0099983-.1200027.0800018-.3300018.2400017-.3300018s.9000015.5500031,1.5299988,1.1800003c0,0,.3600006-1.0899963,1.2299995-1.4300003-.4900017-.0800018-2.6100006-.5900002-2.6100006-1.5200005,0-.3100014-.3499985-.3800011-.5799999-.3600006-.0100002-.0299988-.3600006-.8499985-1-.4199982-.0300007.0200005-.0300007.0699997.0100002.0800018.2900009.0699997.4099998.3600006.4200001.6800003-.6200008-.1899986-3.25-.9300003-6.3700008-.9300003-1.5200005,0-2.9099998.1800003-4.0200005.3800011v2.1399994h-.8700008v-1.9700012h-.0000019M314.3800001,84.6500015c-.2300005-.090004-.3800001-.2399979-.3800001-.5500031v-1.3300018c-.3800001-.1299973-1.4200001-.5299988-3.5100002-.5299988-1.7299995,0-2.2700005.3899994-2.3000002.5299988l-.4599996,2.5300064s.7000003-.6399994,3.2100005-.4800034c3.0200005.1900024,6.1499996,1.9800034,6.1499996.0699997v-1.1200027c-2.3600006.0100021-2.71.7700043-2.71.8800049ZM332.9700012,83.7799988v1.1200027c0,1.9000015,3.1300011.1200027,6.1500015-.0699997,2.5099983-.1600037,3.2099991.4800034,3.2099991.4800034l-.4599991-2.5400009c-.0200005-.1399994-.5699997-.5299988-2.2999992-.5299988-2.079998,0-3.1199989.4000015-3.5099983.5299988v1.3300018c0,.3000031-.1500015.4499969-.3800011.5500031.0099945-.1100082-.340004-.8700104-2.7100029-.8700104ZM325.0300007,82.6299973c4.8700008,0,9.8099995.25,10.4499989.9899979.0499992.0599976.0699997,0,.0699997-.0500031v-2.5800018c0-.75-5.1000004-1.1900024-10.5299988-1.1900024s-10.5299997.4400024-10.5299997,1.1900024v2.5800018c0,.0400009.0200005.0999985.0699997.0500031.6699991-.7299957,5.6099997-.9899979,10.4700003-.9899979ZM320.6900005,70.4700012l-.4899998-.1299973-.0400009.0599976-.5699997-.25h.5100002c.0499992,0,.0499992-.0299988.0300007-.0500031-.2299995-.2300034-.4400005-.4300003-.4400005-.4300003,0,0,.2299995.0899963.5599995.2099991.0400009.0100021.0499992-.0100021.0300007-.0400009-.1599998-.2300034-.3799992-.5500031-.3799992-.5500031,0,0,.4599991.3099976.5499992.3700027.0300007.0199966.0499992,0,.0400009-.0299988-.1200008-.3000031-.2600002-.6500015-.2600002-.6500015l.5.4800034c.0200005.0199966.0499992.0100021.0400009-.0199966-.0499992-.2300034-.1399994-.6500015-.1399994-.6500015l.3700008.5400009c.0200005.0299988.0499992.0199966.0499992-.0100021,0-.1100006.0100002-.5899963.0100002-.5899963,0,0,.1599998.3600006.2299995.5400009.0200005.0400009.0400009.0400009.0599995-.0100021.0200005-.0599976.1900005-.4599991.1900005-.4599991l.0200005.6200027-.0799999.0199966-.1000004.7399979c.7299995-.1699982,1.6499996-1.4300003,2.3500004-1.4300003.8400002,0,1.1399994.9800034,2.6800003.4800034.3899994.5800018.5300007,1.0800018.6800003,1.7699966.6000004.5599976,1.4300003.3700027,1.4300003-.2200012,0-.8000031-.8700008-.9499969-.8700008-1.7900009,0-.3700027.2600002-.9100037.9699993-.9100037.3799992,0,.9300003.1600037,1.25.1600037.3799992,0,.4599991-.2699966.5-.3899994.0300007-.0800018.1399994-.0599976.1299992.0100021-.0100002.0800018.0400009.1900024.0400009.3700027,0,.5299988-.7700005.5999985-.8600006.5299988-.0400009-.0299988-.0699997.0100021-.0400009.0400009.1200008.0899963.0900002.4100037-.0499992.6100006-.0200005.0199966-.0400009.0199966-.0400009,0-.0799999-.3799973-.5300007-.8499985-.9200001-.8499985-.1399994,0-.4300003.0800018-.4300003.4199982,0,.4700012.9500008.9100037.9500008,1.8899994,0,1.0199966-1.0100002,1.2699966-2.0300007,1.0100021.0300007.9700012,1.4799995,1.5400009,1.5100002.8499985,0-.0500031.0300007-.0199966.0400009,0,.2099991.3000031.1200008.5199966-.1599998.6399994.25.1100006.2999992.6200027.3700008.9300003.1100006.4599991.5900002.1999969.6200008.1900024.0300007-.0199966.0400009,0,.0200005.0299988-.1800003.4700012-.6700001.2900009-.6700001.2900009-.25.1800003.0499992.3399963.2800007.4100037.0300007.0100021.0300007.0299988.0100002.0500031-.1700001.0599976-.5300007.1800003-.7099991-.1299973-.1299992.3199997-.3999996.3099976-.5.3099976-.1900005,0-.3099995.1900024-.2700005.4499969,0,.0199966-.0100002.0299988-.0300007.0199966-.4400005-.2900009-.1900005-.6399994-.0100002-.7300034-.0300007-.0199966-.3400002-.1500015-.4699993.2099991-.0100002.0299988-.0300007.0299988-.0400009,0-.1900005-.5199966.2299995-.6699982.5300007-.5400009-.0200005-.0699997-.1800003-.3300018-.5799999-.2399979-.0200005.0100021-.0300007,0-.0200005-.0299988.0699997-.1600037.2600002-.3899994.6299992-.1600037.1900005.1200027.5100002-.0500031.5400009-.0699997-.6499996-1.2900009-1.8999996-.2099991-2.1900005-1.2200012-.0100002-.0199966-.0300007-.0400009-.0499992.0199966-.0699997.2099991-.6200008.2300034-.7199993-.1900024-.0100002-.0299988,0-.0400009.0300007-.0199966.0799999.0800018.25.1500015.4799995-.1699982.1499996-.2200012.1700001-.5100021.1700001-.6999969,0-.7799988-.7800007-2.0999985-2-2.0999985-.7700005,0-1.6000004.3000031-2.2199993.75l.5699997.1299973c-.0499992.5800018-.6100006.9199982-1.1200008.7699966l.0900002-.6600037c-.0900002.0299988-.3099995.1100006-.4300003.2799988-.0100002.0100021-.0300007.0100021-.0300007-.0100021-.1000004-.3799973.2099991-.5699997.2999992-.6100006q.0100002-.0100021-.0100002-.0100021c-.2800007-.0100021-.4300003.1900024-.4799995.2600021-.0100002.0100021-.0200005.0100021-.0200005,0,.0299969-.0799866-.0200043-.269989.1099968-.4099884ZM322.3999996,74.9499969c-.2199993.2699966-.4099998.0100021-.7000008.0100021-.2700005,0-.3199997.2300034-.3199997.3199997,0,.0199966-.0100002.0199966-.0200005.0100021-.3099995-.4199982.0400009-.6500015.2399998-.6800003-.0300007-.0299988-.3299999-.2300034-.5200005.0500031-.0100002.0199966-.0300007.0100021-.0300007-.0100021-.0100002-.5199966.3999996-.5599976.6800003-.3300018.0499992-.1999969-.0799999-.3300018-.2999992-.3399963-.0300007,0-.0300007-.0199966-.0200005-.0299988.0900002-.0999985.1800003-.1399994.2700005-.1399994.2900009,0,.3299999.3700027.5200005.3700027.2800007,0,.6900005-.3799973.7199993-.4199982-.0100002-.0199966-.2800007-.7600021-.2299995-1.1999969,0-.0199966-.0100002-.0199966-.0200005-.0100021-.1399994.0800018-.4799995.0699997-.4799995-.3499985,0-.0299988.0100002-.0400009.0300007-.0100021.1499996.2099991.3999996-.0299988.5200005-.1699982.1299992-.1500015.8500004-1.1900024,1.7999992-1.1900024.2099991,0,.4799995.1200027.7000008.2699966-.3299999.4000015,0,.7799988.2399998.7300034.0300007-.0100021.0300007.0199966.0100002.0299988-1.2600002.4700012-1.8199997.6600037-1.8199997,1.7200012,0,.5500031.1900005.8600006.5100002.7799988.0200005-.0100021.0300007,0,.0100002.0199966-.1200008.1399994-.25.1900024-.3600006.1900024-.2600002,0-.3099995-.1399994-.4500008-.1399994-.1399994,0-.6100006.2799988-.6100006.5100021,0,.0899963.0599995.2099991.2199993.3099976.0100002.0100021,0,.0199966,0,.0199966-.1399975-.0000076-.5099983.0299988-.5899982-.3200073ZM325.7099991,64.6999969c-.3899994-.0199966-.6499996.0599976-.6299992.1900024.1900005.1999969.4400005.1800003.6299992-.1900024ZM324.2600002,65.6699982c.2800007-.0699997.5799999-.0400009.6200008-.0299988s.0400009.0800018-.0100002.0899963c-.5799999.0699997-.6100006.3399963-.9799995.3399963-.2399998,0-.5100002-.25-.4099998-.6100006.0100002-.0500031.0499992-.0500031.0599995,0,.039999.1600113.2699986.3300095.7199993.2100067ZM316.7299995,78.5299988c.3799992.4899979.75.0299988,1.2600002.0299988.25,0,.5499992.0800018.6000004.5800018,0,.0299988.0200005.0299988.0499992,0,.5499992-.75-.0799999-1.1699982-.4400005-1.2300034.0799999-.0699997.6100006-.4000015.9599991.0899963.0200005.0299988.0599995.0199966.0599995-.0199966,0-.9499969-.7099991-1.0199966-1.2299995-.6100006-.1000004-.3700027.1800003-.6100006.5400009-.6100006.0400009,0,.0599995-.0299988.0400009-.0500031-.6399994-.6800003-1.1100006.1800003-1.2199993.3099976-.25.3399963-1.1599998-.3000031-1.5299997-.6800003,0,0,.8000002-.8399963.8000002-1.6100006,0-.0500031-.0100002-.1100006-.0100002-.1399994,0-.0199966.0100002-.0299988.0300007-.0199966.0799999.0500031.1900005.0800018.2999992.0800018.1800003,0,.5300007-.0599976.5300007-.7099991,0-.0500031-.0200005-.0500031-.0400009-.0199966-.1000004.1399994-.2000008.1699982-.2800007.1699982-.6499996,0-2-2.1600037-3.6000004-2.1600037-.4200001,0-1.21.3000031-1.6000004.7300034.1899996.1100006.2299995.3499985.21.5199966-.0299997.2699966-.25.4100037-.4700003.4700012-.04.0100021-.04.0400009,0,.0599976.8100004.3099976,2.2700005.8600006,2.6099997,1.1500015.3900003.3399963.3199997.9800034.0900002,1.8700027-.2200003.8499985-.6899996.7399979-.8699999.7099991-.0299997,0-.0299997.0100021-.0200005.0299988.21.2600021.46.3499985.6800003.3499985.4200001,0,.5799999-.2600021.79-.2600021.3599997,0,1.1300001.5199966,1.1300001.9199982,0,.2200012-.1700001.4300003-.3999996.5699997-.0100002.0100021-.0100002.0299988.0100002.0299988.170001.030014.8800011.0900116,1.0200005-.5499878ZM334.3600006,79.0800018c.0200005,0,.0299988-.0199966.0099983-.0299988-.2200012-.1500015-.4000015-.3499985-.4000015-.5699997,0-.4000015.7599983-.9199982,1.1300011-.9199982.2200012,0,.3699989.2600021.7900009.2600021.2200012,0,.4700012-.0899963.6800003-.3499985.0200005-.0199966.0099983-.0400009-.0200005-.0299988-.1699982.0299988-.6500015.1399994-.8699989-.7099991-.2299995-.8899994-.3100014-1.5299988.0900002-1.8700027.3300018-.2900009,1.7999992-.8399963,2.6100006-1.1500015.0400009-.0199966.0400009-.0500031,0-.0599976-.2200012-.0599976-.4399986-.1999969-.4700012-.4700012-.0200005-.1699982.0200005-.4000015.2099991-.5199966-.4000015-.4300003-1.1899986-.7300034-1.6100006-.7300034-1.5999985,0-2.9500008,2.1600037-3.5999985,2.1600037-.0800018,0-.1899986-.0299988-.2799988-.1699982-.0200005-.0299988-.0400009-.0299988-.0400009.0199966,0,.6500015.3499985.7099991.5299988.7099991.0999985,0,.2200012-.0299988.2999992-.0800018.0200005-.0100021.0299988,0,.0299988.0199966,0,.0299988-.0099983.0899963-.0099983.1399994,0,.7699966.7999992,1.6100006.7999992,1.6100006-.3600006.3799973-1.2700005,1.0100021-1.5299988.6800003-.1100006-.1399994-.5800018-.9899979-1.2199993-.3099976-.0200005.0299988-.0100002.0500031.0400009.0500031.3600006,0,.6400013.2399979.539999.6100006-.5200005-.4100037-1.2299995-.3399963-1.2299995.6100006,0,.0400009.0400009.0500031.0599995.0199966.3400002-.4899979.8799992-.1600037.9500008-.0899963-.3600006.0500031-.9799995.4800034-.4400005,1.2300034.0200005.0299988.0400009.0299988.0499992,0,.0599995-.4899979.3600006-.5800018.5999985-.5800018.5,0,.8699989.4599991,1.2599983-.0299988.1600037.6399841.8700027.5799866,1.0400047.5499878ZM321.4500008,66.6100006c-.0499992.0699997-.2199993,0-.2800007-.0299988-.0100002-.0100021-.0200005,0-.0100002.0100021.0400009.0899963.2000008.3600006.4400005.3600006.1100006,0,.2700005-.0599976.3099995-.1399994,0,0,.9400005.3099976,1.3999996.4300003-.1800003.2399979-.2900009.5299988-.3199997.8399963-.3700008-.2300034-1.8700008-1.0299988-1.8700008-1.0299988l-.4599991.6399994c-.0799999.0999985-.4500008-.1699982-.3700008-.2699966l.3500004-.4899979c-.1200008-.1200027-.3999996-.0500031-.4799995-.0199966-.0100002,0-.0200005,0-.0100002-.0199966.0499992-.0999985.2199993-.3899994.6599998-.2600021,0-.2699966-.3999996-.1800003-.5100002-.1500015-.0100002,0-.0200005,0-.0100002-.0100021.1100006-.1200027.4400005-.3799973.7999992-.1600037l.1599998-.2200012-.3199997-.3399963.2000008-.2799988.2299995.3000031,1.7299995-2.3699989c.0400009-.0600014.3899994-.1599998.5100002-.1899986.0100002.1300011.0300007.4900017-.0100002.5499992l-1.7000008,2.3900032.3600006.1200027-.2000008.2799988-.4200001-.1999969-.1799965.2599792ZM327.5200005,66.2200012c0,.2200012.1299992.5400009.4200001.4400024.0100002-.0100021.0300007,0,.0200005.0100021-.0400009.2399979-.4799995.4599991-.6700001.1800003-.1800003.3700027-.1299992.7200012.2399998.9199982.0200005.0100021.0200005.0400009,0,.0599976-.2299995.1600037-.5799999.1299973-.7399998-.1900024-.3099995.2300034-.2700005.7300034-.0799999.9000015,0,0-.8600006.5100021-1.6399994.1500015-.5200005-.25-.9400005-.5699997-1.6100006-.5100021.0900002-.9400024.5599995-1.1800003,1.4200001-1.3199997.6900005-.1100006.7700005-.4300003.6800003-.6699982-.2299995-.0599976-.6599998.1500015-.6599998.1500015-.0799999-.1299973.0300007-.2600021.0300007-.2600021-.0400009-.0500031-.0599995-.2200012-.0599995-.2200012.4799995,0,.5699997-.1100006.5699997-.1100006.0900002-.5-.4200001-.5500031-.8099995-.2799988-.1800003-.1600037-.1499996-.3700027-.1499996-.3700027-.0499992-.0299988-.0900002-.1100006-.0900002-.1500015,0-.1200027.5699997-.4400024.7199993-.4800034.0400009-.1699982.2399998-.4000015.8500004-.3399963.0699997-.1599998-.0499992-.75-.1200008-.9000015-.0200005-.0499992.0100002-.0699997.0599995-.0400009.2099991.1300011.4200001.6300011.5699997.6399994,0,0,.6800003-.3600006.7099991-.3400002.0300007.0200005.1299992.7800026.1299992.7800026.0900002.1100006.6200008,0,.8500004.0999985.0599995.0299988.0599995.0699997,0,.0800018-.1700001.0299988-.7199993.2699966-.8099995.4199982.3199997.4700012.1700001,1.1600037.1700001,1.3500061Z"/>
      </g>
    </g>
    <g id="Woordmerk">
      <g>
        <path class="cls-2" d="M362.5371094,64.7724609v-9.8398438h2.6699219l3.0595703,8.1152344h.0898438v-8.1152344h1.5751953v9.8398438h-2.6845703l-3.0449219-8.1152344h-.0908203v8.1152344h-1.5742188Z"/>
        <path class="cls-2" d="M373.9169922,64.9072266c-.75,0-1.3300781-.1914062-1.7402344-.5732422-.4101562-.3828125-.6152344-.8808594-.6152344-1.4951172,0-.6855469.2724609-1.2460938.8183594-1.6845703.5449219-.4375,1.4023438-.6572266,2.5722656-.6572266h.5175781c.1542969,0,.3173828.0058594.4873047.015625v-.5546875c0-.3789062-.125-.6767578-.375-.8925781-.25-.2148438-.6601562-.3232422-1.2304688-.3232422-.7099609,0-1.4248047.1503906-2.1445312.4501953l-.2402344-1.3945312c.4501953-.1904297.8828125-.3300781,1.2978516-.4199219.4150391-.0908203.8671875-.1357422,1.3574219-.1357422.9902344,0,1.7275391.2236328,2.2128906.6708984.484375.4462891.7265625,1.0869141.7265625,1.9199219v4.9394531h-1.5449219v-.4345703c-.3193359.2001953-.6396484.3447266-.9599609.4345703-.3193359.0898438-.7001953.1347656-1.1396484.1347656ZM374.3671875,63.5722656c.3095703,0,.5898438-.0322266.8398438-.0976562.25-.0644531.5-.1621094.75-.2919922v-1.4550781c-.1699219-.0097656-.328125-.0175781-.4726562-.0224609s-.3173828-.0078125-.5175781-.0078125c-.6103516,0-1.0419922.0966797-1.296875.2900391-.2558594.1923828-.3828125.4267578-.3828125.7011719s.0898438.4902344.2695312.6474609c.1806641.1582031.4501953.2363281.8105469.2363281Z"/>
        <path class="cls-2" d="M381.9628906,64.9072266c-.4501953,0-.8476562-.0849609-1.1923828-.2558594s-.6152344-.4394531-.8105469-.8066406c-.1943359-.3662109-.2919922-.8417969-.2919922-1.4238281v-3.7685547h-.8847656v-1.2744141h.8847656v-1.3505859l1.6503906-.1494141v1.5h1.8896484v1.2744141h-1.8896484v3.5771484c0,.4228516.1015625.7353516.3066406.9365234s.4775391.3017578.8183594.3017578c.1796875,0,.3398438-.0126953.4794922-.0380859.1396484-.0244141.2998047-.0576172.4804688-.0976562v1.3955078c-.2304688.0595703-.4580078.1044922-.6826172.1347656-.2255859.0302734-.4775391.0449219-.7578125.0449219Z"/>
        <path class="cls-2" d="M385.5332031,56.1621094c-.3007812,0-.5400391-.0849609-.7207031-.2548828-.1796875-.1699219-.2695312-.3994141-.2695312-.6894531,0-.3007812.0898438-.5380859.2695312-.7128906.1806641-.1748047.4199219-.2626953.7207031-.2626953.3193359,0,.5625.0878906.7275391.2626953s.2470703.4121094.2470703.7128906c0,.2900391-.0820312.5195312-.2470703.6894531s-.4082031.2548828-.7275391.2548828ZM384.7080078,64.7724609v-7.3945312l1.6650391-.1054688v7.5h-1.6650391Z"/>
        <path class="cls-2" d="M391.4335938,64.9072266c-.6904297,0-1.2929688-.1367188-1.8076172-.4111328s-.9169922-.6865234-1.2070312-1.2353516-.4355469-1.2324219-.4355469-2.0507812.1679688-1.5244141.5029297-2.1181641c.3349609-.5947266.7822266-1.0507812,1.3427734-1.3701172.5595703-.3193359,1.1640625-.4794922,1.8144531-.4794922.6904297,0,1.2919922.1376953,1.8076172.4121094.5146484.2744141.9169922.6855469,1.2070312,1.2353516.2900391.5488281.4355469,1.2324219.4355469,2.0507812s-.1679688,1.5244141-.5029297,2.1181641-.7822266,1.0507812-1.3417969,1.3701172c-.5605469.3193359-1.1650391.4785156-1.8154297.4785156ZM391.5390625,63.4375c.359375,0,.6767578-.0947266.9521484-.2841797.2744141-.1894531.4951172-.4628906.6601562-.8222656s.2470703-.8027344.2470703-1.3310547c0-.7773438-.1669922-1.3525391-.5019531-1.7265625-.3359375-.3740234-.7880859-.5605469-1.3574219-.5605469-.3505859,0-.6660156.0947266-.9453125.2832031-.2802734.1894531-.5029297.4638672-.6679688.8232422-.1650391.3583984-.2470703.8017578-.2470703,1.3300781,0,.7783203.1669922,1.3535156.5019531,1.7275391s.7880859.5605469,1.3583984.5605469Z"/>
        <path class="cls-2" d="M396.7236328,64.7724609v-7.3945312l1.6054688-.0751953v.5244141c.3193359-.2099609.6376953-.359375.9521484-.4492188.3154297-.0908203.6679688-.1357422,1.0576172-.1357422.8105469,0,1.4375.2236328,1.8828125.6708984.4443359.4462891.6669922,1.1015625.6669922,1.9648438v4.8945312h-1.6650391v-4.5976562c0-.4423828-.1171875-.7871094-.3525391-1.0332031-.234375-.2460938-.5771484-.3691406-1.0273438-.3691406-.2802734,0-.5244141.0205078-.734375.0595703-.2099609.0400391-.4501953.1103516-.7207031.2099609v5.7304688h-1.6650391Z"/>
        <path class="cls-2" d="M406.5947266,64.9072266c-.75,0-1.3300781-.1914062-1.7402344-.5732422-.4101562-.3828125-.6152344-.8808594-.6152344-1.4951172,0-.6855469.2724609-1.2460938.8173828-1.6845703.5449219-.4375,1.4023438-.6572266,2.5722656-.6572266h.5175781c.1552734,0,.3173828.0058594.4873047.015625v-.5546875c0-.3789062-.125-.6767578-.375-.8925781-.25-.2148438-.6591797-.3232422-1.2294922-.3232422-.7099609,0-1.4248047.1503906-2.1455078.4501953l-.2392578-1.3945312c.4501953-.1904297.8818359-.3300781,1.296875-.4199219.4150391-.0908203.8681641-.1357422,1.3574219-.1357422.9902344,0,1.7275391.2236328,2.2128906.6708984.4853516.4462891.7275391,1.0869141.7275391,1.9199219v4.9394531h-1.5449219v-.4345703c-.3203125.2001953-.640625.3447266-.9599609.4345703-.3203125.0898438-.7001953.1347656-1.1396484.1347656ZM407.0439453,63.5722656c.3105469,0,.5898438-.0322266.8398438-.0976562.25-.0644531.5-.1621094.75-.2919922v-1.4550781c-.1699219-.0097656-.3271484-.0175781-.4716797-.0224609-.1455078-.0048828-.3183594-.0078125-.5175781-.0078125-.6103516,0-1.0429688.0966797-1.2978516.2900391-.2548828.1923828-.3828125.4267578-.3828125.7011719s.0908203.4902344.2705078.6474609c.1796875.1582031.4501953.2363281.8095703.2363281Z"/>
        <path class="cls-2" d="M413.9589844,64.9072266c-.75,0-1.3300781-.1914062-1.7402344-.5732422-.4101562-.3828125-.6152344-.8808594-.6152344-1.4951172,0-.6855469.2724609-1.2460938.8183594-1.6845703.5449219-.4375,1.4023438-.6572266,2.5722656-.6572266h.5175781c.1542969,0,.3173828.0058594.4873047.015625v-.5546875c0-.3789062-.125-.6767578-.375-.8925781-.25-.2148438-.6601562-.3232422-1.2304688-.3232422-.7099609,0-1.4248047.1503906-2.1445312.4501953l-.2402344-1.3945312c.4501953-.1904297.8828125-.3300781,1.2978516-.4199219.4150391-.0908203.8671875-.1357422,1.3574219-.1357422.9902344,0,1.7275391.2236328,2.2128906.6708984.484375.4462891.7265625,1.0869141.7265625,1.9199219v4.9394531h-1.5449219v-.4345703c-.3193359.2001953-.6396484.3447266-.9599609.4345703-.3193359.0898438-.7001953.1347656-1.1396484.1347656ZM414.4091797,63.5722656c.3095703,0,.5898438-.0322266.8398438-.0976562.25-.0644531.5-.1621094.75-.2919922v-1.4550781c-.1699219-.0097656-.328125-.0175781-.4726562-.0224609s-.3173828-.0078125-.5175781-.0078125c-.6103516,0-1.0419922.0966797-1.296875.2900391-.2558594.1923828-.3828125.4267578-.3828125.7011719s.0898438.4902344.2695312.6474609c.1806641.1582031.4501953.2363281.8105469.2363281Z"/>
        <path class="cls-2" d="M419.5449219,64.7724609v-10.4248047l1.6650391-.0898438v10.5146484h-1.6650391Z"/>
        <path class="cls-2" d="M425.484375,64.7724609l2.9394531-9.8398438h2.6708984l2.8945312,9.8398438h-1.9345703l-.6308594-2.25h-3.5244141l-.6005859,2.25h-1.8144531ZM428.2597656,61.0976562h2.7890625l-1.3193359-4.7705078h-.1201172l-1.3496094,4.7705078Z"/>
        <path class="cls-2" d="M435.2705078,64.7724609v-7.3945312l1.6494141-.0751953v.8398438c.2607422-.3300781.515625-.5625.765625-.6972656.25-.1357422.5097656-.203125.7792969-.203125.1806641,0,.3330078.0078125.4580078.0224609.125.015625.2626953.0429688.4121094.0830078l-.1201172,1.6044922c-.1591797-.0498047-.3066406-.0820312-.4423828-.0976562-.1347656-.0146484-.2822266-.0224609-.4423828-.0224609-.2402344,0-.4677734.0429688-.6826172.1279297s-.4521484.2275391-.7119141.4277344v5.3847656h-1.6650391Z"/>
        <path class="cls-2" d="M443.4140625,64.9072266c-.7109375,0-1.3330078-.1308594-1.8681641-.3925781-.5351562-.2607422-.9501953-.6679688-1.2451172-1.2216797-.2949219-.5527344-.4423828-1.2519531-.4423828-2.0976562,0-.8349609.1650391-1.5439453.4951172-2.1269531s.7724609-1.0341797,1.3271484-1.3505859c.5556641-.3164062,1.1582031-.4755859,1.8076172-.4755859.3007812,0,.5654297.0126953.7949219.0380859.2304688.0244141.4804688.0722656.75.1425781l-.1494141,1.484375c-.2402344-.0595703-.4599609-.1025391-.6601562-.1269531-.2001953-.0253906-.4248047-.0380859-.6748047-.0380859-.3798828,0-.7197266.09375-1.0205078.2802734-.2998047.1875-.5371094.4550781-.7119141.8027344-.1757812.3486328-.2626953.7705078-.2626953,1.2646484,0,.5458984.0869141.9902344.2626953,1.3330078.1748047.34375.4169922.5957031.7275391.7568359.3095703.1621094.6601562.2431641,1.0498047.2431641.2597656,0,.5068359-.0175781.7421875-.0527344s.4628906-.0830078.6826172-.1425781v1.4697266c-.2402344.0605469-.4853516.1103516-.7353516.1503906s-.5400391.0595703-.8691406.0595703Z"/>
        <path class="cls-2" d="M446.3896484,64.7724609v-10.4248047l1.6650391-.0898438v3.5400391c.3095703-.1904297.6152344-.3300781.9150391-.4199219.2998047-.0908203.6494141-.1357422,1.0498047-.1357422.7998047,0,1.421875.2236328,1.8671875.6708984.4453125.4462891.6679688,1.1015625.6679688,1.9648438v4.8945312h-1.6650391v-4.5976562c0-.4423828-.1181641-.7871094-.3525391-1.0332031-.2353516-.2460938-.578125-.3691406-1.0273438-.3691406-.2802734,0-.5253906.0205078-.7353516.0595703-.2099609.0400391-.4501953.1103516-.7197266.2099609v5.7304688h-1.6650391Z"/>
        <path class="cls-2" d="M455.2871094,56.1621094c-.2998047,0-.5400391-.0849609-.7197266-.2548828s-.2705078-.3994141-.2705078-.6894531c0-.3007812.0908203-.5380859.2705078-.7128906s.4199219-.2626953.7197266-.2626953c.3203125,0,.5625.0878906.7275391.2626953s.2480469.4121094.2480469.7128906c0,.2900391-.0830078.5195312-.2480469.6894531s-.4072266.2548828-.7275391.2548828ZM454.4619141,64.7724609v-7.3945312l1.6650391-.1054688v7.5h-1.6650391Z"/>
        <path class="cls-2" d="M461.4267578,64.9072266c-1.1298828,0-2.0224609-.3105469-2.6777344-.9335938-.6542969-.6220703-.9824219-1.5761719-.9824219-2.8613281,0-.8525391.1455078-1.5654297.4355469-2.1376953s.6875-1.0039062,1.1923828-1.2949219,1.0625-.4375,1.671875-.4375c.6103516,0,1.1357422.1181641,1.5751953.3544922.4404297.2353516.7773438.5771484,1.0126953,1.0234375s.3525391.9912109.3525391,1.6328125c0,.2207031-.0029297.4345703-.0078125.640625-.0048828.2050781-.0175781.3984375-.0371094.5791016h-4.5605469c.0400391.453125.1523438.828125.3378906,1.1259766.1845703.296875.4375.5185547.7578125.6650391.3193359.1455078.6943359.21875,1.125.21875.4199219,0,.7998047-.0302734,1.1396484-.0908203s.6904297-.15625,1.0498047-.2871094v1.3818359c-.3798828.140625-.75.2460938-1.109375.3164062-.3603516.0693359-.7851562.1044922-1.2753906.1044922ZM459.3867188,60.2578125h2.9853516c0-.5449219-.125-.9658203-.375-1.2636719s-.5957031-.4462891-1.0351562-.4462891c-.4003906,0-.7451172.1513672-1.0351562.453125-.2900391.3037109-.4697266.7216797-.5400391,1.2568359Z"/>
        <path class="cls-2" d="M465.9023438,64.7724609v-6.1201172h-.9443359v-1.2744141h.9443359v-.5732422c0-.8134766.2304688-1.4423828.6904297-1.8837891.4599609-.4423828,1.1845703-.6630859,2.1748047-.6630859.2099609,0,.4052734.0126953.5849609.0371094.1806641.0253906.3457031.0527344.4951172.0830078l-.1494141,1.3046875c-.140625-.0302734-.2832031-.0527344-.4277344-.0673828-.1455078-.015625-.2978516-.0224609-.4580078-.0224609-.4394531,0-.7568359.0957031-.9521484.2871094s-.2929688.4892578-.2929688.8925781v.6054688h1.8154297v1.2744141h-1.7998047v6.1201172h-1.6806641Z"/>
        <path class="cls-2" d="M362.5664062,82.3720703l.4648438-9.8398438h1.8007812l2.625,6.5097656h.0595703l2.5800781-6.5097656h1.7548828l.4648438,9.8398438h-1.2001953l-.359375-8.6552734h-.0751953l-2.6845703,6.6298828h-1.1552734l-2.7148438-6.6298828h-.0751953l-.3603516,8.6552734h-1.125Z"/>
        <path class="cls-2" d="M375.2265625,73.3125c-.2207031,0-.3974609-.0654297-.5332031-.1953125-.1347656-.1298828-.2021484-.3046875-.2021484-.5253906,0-.2294922.0673828-.4091797.2021484-.5400391.1357422-.1298828.3125-.1943359.5332031-.1943359.2294922,0,.4072266.0644531.5322266.1943359.125.1308594.1875.3105469.1875.5400391,0,.2207031-.0625.3955078-.1875.5253906s-.3027344.1953125-.5322266.1953125ZM374.65625,82.3720703v-7.3349609l1.1396484-.0898438v7.4248047h-1.1396484Z"/>
        <path class="cls-2" d="M378.0673828,82.3720703v-7.3349609l1.0947266-.0898438v.4951172c.3398438-.2001953.6630859-.3398438.9677734-.4199219s.6523438-.1201172,1.0429688-.1201172c.8291016,0,1.4648438.2158203,1.9042969.6484375.4404297.4326172.6601562,1.0517578.6601562,1.8564453v4.9648438h-1.1396484v-4.8486328c0-.4736328-.140625-.8535156-.4199219-1.140625-.2802734-.2871094-.6855469-.4306641-1.2148438-.4306641-.3300781,0-.6259766.0273438-.8857422.0820312-.2597656.0556641-.5498047.1533203-.8701172.2929688v6.0449219h-1.1396484Z"/>
        <path class="cls-2" d="M386.5,73.3125c-.2197266,0-.3974609-.0654297-.5322266-.1953125s-.2021484-.3046875-.2021484-.5253906c0-.2294922.0673828-.4091797.2021484-.5400391.1347656-.1298828.3125-.1943359.5322266-.1943359.2304688,0,.4072266.0644531.5332031.1943359.1240234.1308594.1875.3105469.1875.5400391,0,.2207031-.0634766.3955078-.1875.5253906-.1259766.1298828-.3027344.1953125-.5332031.1953125ZM385.9306641,82.3720703v-7.3349609l1.1396484-.0898438v7.4248047h-1.1396484Z"/>
        <path class="cls-2" d="M390.8154297,82.5068359c-.4101562,0-.7773438-.0195312-1.1025391-.0595703s-.6425781-.0996094-.9521484-.1806641v-1.0498047c.3496094.1005859.6953125.1708984,1.0351562.2099609.3398438.0400391.6992188.0605469,1.0800781.0605469.5292969,0,.9316406-.1054688,1.2070312-.3144531.2753906-.2099609.4130859-.4785156.4130859-.8056641,0-.2832031-.0957031-.5166016-.2851562-.6982422-.1904297-.1826172-.5048828-.3339844-.9453125-.4560547l-.8544922-.2578125c-.4902344-.1416016-.8730469-.3691406-1.1474609-.6826172-.2753906-.3134766-.4130859-.71875-.4130859-1.2148438,0-.4042969.1103516-.7685547.3300781-1.0927734s.5302734-.5820312.9296875-.7744141c.4003906-.1923828.8701172-.2880859,1.4101562-.2880859.3300781,0,.6396484.0126953.9306641.0371094.2890625.0253906.5693359.0673828.8398438.1279297l-.1201172,1.0048828c-.2998047-.0605469-.5800781-.0996094-.8398438-.1201172-.2607422-.0195312-.5507812-.0302734-.8701172-.0302734-.4902344,0-.8652344.0976562-1.125.2919922-.2607422.1943359-.390625.4404297-.390625.7373047,0,.2734375.0830078.4912109.2480469.6523438.1650391.1621094.4277344.2939453.7871094.3955078l.8554688.2275391c.5996094.1621094,1.0449219.4023438,1.3349609.7207031.2900391.3193359.4345703.7109375.4345703,1.1767578s-.1171875.8779297-.3525391,1.2373047c-.234375.359375-.5595703.6396484-.9746094.8417969-.4150391.203125-.9023438.3037109-1.4628906.3037109Z"/>
        <path class="cls-2" d="M397.6386719,82.5068359c-.359375,0-.6923828-.0703125-.9970703-.2109375-.3056641-.140625-.5478516-.3798828-.7275391-.7177734-.1796875-.3369141-.2705078-.7978516-.2705078-1.3818359v-4.2294922h-.8847656v-.9296875h.8847656v-1.2900391l1.125-.1650391v1.4550781h1.9208984v.9296875h-1.9208984v4.1591797c0,.4638672.1074219.8066406.3232422,1.0283203.2148438.2216797.4921875.3330078.8320312.3330078.1796875,0,.3427734-.0097656.4873047-.0302734.1455078-.0195312.3125-.0498047.5029297-.0898438v.9746094c-.2304688.0605469-.4423828.1025391-.6376953.1279297-.1953125.0244141-.4072266.0371094-.6376953.0371094Z"/>
        <path class="cls-2" d="M403.2470703,82.5068359c-1.0097656,0-1.8222656-.3017578-2.4375-.9052734-.6142578-.6035156-.921875-1.5585938-.921875-2.8671875,0-.8447266.1367188-1.5507812.4121094-2.1191406s.6455078-.9960938,1.1103516-1.2832031c.4648438-.2861328.9775391-.4296875,1.5371094-.4296875.5898438,0,1.0927734.1123047,1.5078125.3388672.4150391.2255859.7324219.5566406.9521484.9931641.2197266.4375.3300781.9765625.3300781,1.6191406v.4443359c0,.1552734-.0097656.3085938-.0302734.4589844h-4.6796875c0,.6269531.0996094,1.140625.2998047,1.5400391s.4775391.6953125.8330078.8867188c.3544922.1923828.7626953.2880859,1.2226562.2880859.4091797,0,.7919922-.0371094,1.1474609-.1132812.3544922-.0761719.7167969-.1943359,1.0869141-.3564453v1.0234375c-.3896484.1601562-.7626953.28125-1.1171875.3613281-.3554688.0800781-.7724609.1201172-1.2529297.1201172ZM401.0722656,77.8417969h3.4501953c0-.6542969-.140625-1.1484375-.4199219-1.4814453-.2802734-.3320312-.6855469-.4980469-1.2148438-.4980469-.4501953,0-.8457031.1738281-1.1855469.5214844s-.5498047.8339844-.6298828,1.4580078Z"/>
        <path class="cls-2" d="M407.5917969,82.3720703v-7.3349609l1.125-.0898438v.8544922c.2792969-.3193359.5449219-.5498047.7949219-.6894531.2490234-.140625.5048828-.2099609.7646484-.2099609.1699219,0,.3154297.0068359.4345703.0224609.1201172.0146484.2607422.0419922.4208984.0820312l-.1357422,1.125c-.1601562-.0498047-.3027344-.0820312-.4267578-.0976562-.1259766-.0146484-.2626953-.0224609-.4130859-.0224609-.2402344,0-.4697266.0605469-.6894531.1806641-.2207031.1201172-.4658203.3144531-.7353516.5849609v5.5947266h-1.1396484Z"/>
        <path class="cls-2" d="M413.1474609,73.3125c-.2207031,0-.3974609-.0654297-.5332031-.1953125-.1347656-.1298828-.2021484-.3046875-.2021484-.5253906,0-.2294922.0673828-.4091797.2021484-.5400391.1357422-.1298828.3125-.1943359.5332031-.1943359.2294922,0,.4072266.0644531.5322266.1943359.125.1308594.1875.3105469.1875.5400391,0,.2207031-.0625.3955078-.1875.5253906s-.3027344.1953125-.5322266.1953125ZM412.5771484,82.3720703v-7.3349609l1.1396484-.0898438v7.4248047h-1.1396484Z"/>
        <path class="cls-2" d="M418.9560547,82.5068359c-1.0097656,0-1.8222656-.3017578-2.4375-.9052734-.6142578-.6035156-.921875-1.5585938-.921875-2.8671875,0-.8447266.1367188-1.5507812.4121094-2.1191406s.6455078-.9960938,1.1103516-1.2832031c.4648438-.2861328.9775391-.4296875,1.5371094-.4296875.5898438,0,1.0927734.1123047,1.5078125.3388672.4150391.2255859.7324219.5566406.9521484.9931641.2197266.4375.3300781.9765625.3300781,1.6191406v.4443359c0,.1552734-.0097656.3085938-.0302734.4589844h-4.6796875c0,.6269531.0996094,1.140625.2998047,1.5400391s.4775391.6953125.8330078.8867188c.3544922.1923828.7626953.2880859,1.2226562.2880859.4091797,0,.7919922-.0371094,1.1474609-.1132812.3544922-.0761719.7167969-.1943359,1.0869141-.3564453v1.0234375c-.3896484.1601562-.7626953.28125-1.1171875.3613281-.3554688.0800781-.7724609.1201172-1.2529297.1201172ZM416.78125,77.8417969h3.4501953c0-.6542969-.140625-1.1484375-.4199219-1.4814453-.2802734-.3320312-.6855469-.4980469-1.2148438-.4980469-.4501953,0-.8457031.1738281-1.1855469.5214844s-.5498047.8339844-.6298828,1.4580078Z"/>
        <path class="cls-2" d="M427.9414062,82.3720703l-2.5048828-7.3349609h1.3046875l1.9648438,6.2851562h.0751953l1.9501953-6.2851562h1.1699219l-2.5048828,7.3349609h-1.4550781Z"/>
        <path class="cls-2" d="M435.1621094,82.5068359c-.7001953,0-1.2548828-.1845703-1.6650391-.5527344-.4101562-.3691406-.6142578-.8515625-.6142578-1.4482422,0-.6269531.2714844-1.1552734.8173828-1.5849609.5449219-.4287109,1.3769531-.6435547,2.4970703-.6435547h.5322266c.1552734,0,.3476562.0048828.578125.0146484v-.8105469c0-.5-.1376953-.8789062-.4130859-1.1396484-.2744141-.2597656-.6972656-.3896484-1.2675781-.3896484-.6894531,0-1.4042969.1601562-2.1445312.4794922l-.2402344-.9599609c.4599609-.1992188.8828125-.3447266,1.2675781-.4345703s.8125-.1347656,1.2822266-.1347656c.8408203,0,1.4853516.2060547,1.9355469.6181641.4501953.4130859.6748047.9960938.6748047,1.7509766v5.1005859h-1.0644531v-.4648438c-.3603516.2197266-.7001953.375-1.0205078.4648438s-.7050781.1347656-1.1552734.1347656ZM435.4023438,81.5166016c.3603516,0,.6923828-.0419922.9980469-.1269531.3046875-.0849609.6074219-.2177734.9072266-.3974609v-1.7705078c-.2207031-.0195312-.4130859-.0292969-.578125-.0292969h-.5625c-.7597656,0-1.296875.1220703-1.6123047.3671875-.3144531.2441406-.4726562.5292969-.4726562.8554688,0,.3271484.1103516.5917969.3300781.7958984s.5498047.3056641.9902344.3056641Z"/>
        <path class="cls-2" d="M440.6142578,82.3720703v-7.3349609l1.0947266-.0898438v.4951172c.3398438-.2001953.6630859-.3398438.9677734-.4199219s.6523438-.1201172,1.0429688-.1201172c.8291016,0,1.4648438.2158203,1.9042969.6484375.4404297.4326172.6601562,1.0517578.6601562,1.8564453v4.9648438h-1.1396484v-4.8486328c0-.4736328-.140625-.8535156-.4199219-1.140625-.2802734-.2871094-.6855469-.4306641-1.2148438-.4306641-.3300781,0-.6259766.0273438-.8857422.0820312-.2597656.0556641-.5498047.1533203-.8701172.2929688v6.0449219h-1.1396484Z"/>
        <path class="cls-2" d="M455.359375,82.5068359c-.7802734,0-1.4775391-.1845703-2.0927734-.5546875-.6142578-.3701172-1.1025391-.9228516-1.4619141-1.6572266-.3603516-.7353516-.5400391-1.6425781-.5400391-2.7226562,0-.8398438.109375-1.5800781.3300781-2.2197266.2197266-.640625.5273438-1.1806641.921875-1.6201172.3955078-.4404297.8554688-.7724609,1.3808594-.9980469.5244141-.2246094,1.0869141-.3369141,1.6875-.3369141.7792969,0,1.4765625.1845703,2.0917969.5546875s1.1025391.9199219,1.4628906,1.6503906c.359375.7294922.5400391,1.6396484.5400391,2.7294922,0,.8398438-.1103516,1.5800781-.3300781,2.2197266-.2197266.640625-.5273438,1.1806641-.9228516,1.6201172-.3945312.4404297-.8544922.7724609-1.3798828.9980469-.5244141.2246094-1.0869141.3369141-1.6875.3369141ZM455.4648438,81.4423828c.5,0,.9765625-.1279297,1.4326172-.3828125.4541016-.2548828.8242188-.6728516,1.109375-1.2529297.2851562-.5791016.4277344-1.3544922.4277344-2.3242188,0-.9902344-.140625-1.7783203-.4199219-2.3632812-.2802734-.5849609-.6455078-1.0068359-1.0947266-1.2666016-.4501953-.2607422-.9306641-.390625-1.4404297-.390625-.5,0-.9775391.1279297-1.4326172.3828125s-.8251953.6699219-1.1103516,1.2451172c-.2841797.5751953-.4267578,1.3525391-.4267578,2.3320312,0,.9902344.1396484,1.7773438.4199219,2.3623047.2792969.5849609.6445312,1.0078125,1.0947266,1.2675781.4501953.2607422.9296875.390625,1.4404297.390625Z"/>
        <path class="cls-2" d="M461.6669922,82.3720703v-7.3349609l1.0947266-.0898438v.4951172c.3398438-.2001953.6621094-.3398438.9677734-.4199219.3046875-.0800781.6523438-.1201172,1.0419922-.1201172.8300781,0,1.4648438.2158203,1.9052734.6484375.4394531.4326172.6601562,1.0517578.6601562,1.8564453v4.9648438h-1.140625v-4.8486328c0-.4736328-.1396484-.8535156-.4199219-1.140625s-.6845703-.4306641-1.2148438-.4306641c-.3300781,0-.625.0273438-.8847656.0820312-.2607422.0556641-.5498047.1533203-.8701172.2929688v6.0449219h-1.1396484Z"/>
        <path class="cls-2" d="M472.2275391,82.5068359c-.5898438,0-1.1171875-.1357422-1.5820312-.4091797s-.8330078-.6787109-1.1025391-1.2148438c-.2705078-.5361328-.4052734-1.1992188-.4052734-1.9882812,0-.8603516.1582031-1.5859375.4726562-2.1787109.3154297-.5917969.7519531-1.0419922,1.3125-1.3505859.5595703-.3085938,1.1953125-.4628906,1.9052734-.4628906.2597656,0,.4921875.0126953.6972656.0371094.2050781.0253906.3876953.0673828.5478516.1279297v-3.1201172l1.1396484-.0898438v10.5146484h-1.1103516v-.4345703c-.25.1796875-.5371094.3193359-.8623047.4199219-.3251953.0996094-.6621094.1494141-1.0126953.1494141ZM472.4833984,81.4716797c.3193359,0,.6015625-.0371094.8466797-.1123047s.4931641-.1923828.7431641-.3525391v-4.9794922c-.2207031-.0400391-.4375-.0703125-.6523438-.0898438-.2158203-.0205078-.4433594-.0302734-.6826172-.0302734-.4902344,0-.9150391.1113281-1.2753906.3349609s-.6396484.5517578-.8398438.9833984c-.2001953.4326172-.2998047.953125-.2998047,1.5634766,0,.8935547.1992188,1.5654297.5996094,2.0126953.4003906.4462891.9199219.6699219,1.5605469.6699219Z"/>
        <path class="cls-2" d="M480.4638672,82.5068359c-1.0097656,0-1.8222656-.3017578-2.4375-.9052734-.6142578-.6035156-.921875-1.5585938-.921875-2.8671875,0-.8447266.1367188-1.5507812.4121094-2.1191406s.6455078-.9960938,1.1103516-1.2832031c.4648438-.2861328.9775391-.4296875,1.5371094-.4296875.5898438,0,1.0927734.1123047,1.5078125.3388672.4150391.2255859.7324219.5566406.9521484.9931641.2197266.4375.3300781.9765625.3300781,1.6191406v.4443359c0,.1552734-.0097656.3085938-.0302734.4589844h-4.6796875c0,.6269531.0996094,1.140625.2998047,1.5400391s.4775391.6953125.8330078.8867188c.3544922.1923828.7626953.2880859,1.2226562.2880859.4091797,0,.7919922-.0371094,1.1474609-.1132812.3544922-.0761719.7167969-.1943359,1.0869141-.3564453v1.0234375c-.3896484.1601562-.7626953.28125-1.1171875.3613281-.3554688.0800781-.7724609.1201172-1.2529297.1201172ZM478.2890625,77.8417969h3.4501953c0-.6542969-.140625-1.1484375-.4199219-1.4814453-.2802734-.3320312-.6855469-.4980469-1.2148438-.4980469-.4501953,0-.8457031.1738281-1.1855469.5214844s-.5498047.8339844-.6298828,1.4580078Z"/>
        <path class="cls-2" d="M484.8085938,82.3720703v-7.3349609l1.125-.0898438v.8544922c.2792969-.3193359.5449219-.5498047.7949219-.6894531.2490234-.140625.5048828-.2099609.7646484-.2099609.1699219,0,.3154297.0068359.4345703.0224609.1201172.0146484.2607422.0419922.4208984.0820312l-.1357422,1.125c-.1601562-.0498047-.3027344-.0820312-.4267578-.0976562-.1259766-.0146484-.2626953-.0224609-.4130859-.0224609-.2402344,0-.4697266.0605469-.6894531.1806641-.2207031.1201172-.4658203.3144531-.7353516.5849609v5.5947266h-1.1396484Z"/>
        <path class="cls-2" d="M491.6425781,82.3720703l-2.3251953-7.3349609h1.3046875l1.7851562,6.2851562h.0751953l1.4550781-4.8154297-.4804688-1.4697266h1.2607422l1.8447266,6.2851562h.0751953l1.7695312-6.2851562h1.1699219l-2.3251953,7.3349609h-1.4541016l-1.3359375-4.4404297h-.0742188l-1.2900391,4.4404297h-1.4550781Z"/>
        <path class="cls-2" d="M501.6230469,73.3125c-.2207031,0-.3974609-.0654297-.5332031-.1953125-.1347656-.1298828-.2021484-.3046875-.2021484-.5253906,0-.2294922.0673828-.4091797.2021484-.5400391.1357422-.1298828.3125-.1943359.5332031-.1943359.2294922,0,.4072266.0644531.5322266.1943359.125.1308594.1875.3105469.1875.5400391,0,.2207031-.0625.3955078-.1875.5253906s-.3027344.1953125-.5322266.1953125ZM501.0527344,82.3720703v-7.3349609l1.1396484-.0898438v7.4248047h-1.1396484Z"/>
        <path class="cls-2" d="M503.4726562,85.296875l-.1503906-.9746094c.3994141-.1210938.6953125-.3007812.8847656-.5419922.1904297-.2412109.2851562-.5771484.2851562-1.0078125v-7.7353516l1.1396484-.0898438v7.8222656c0,.5117188-.0947266.9423828-.2841797,1.2939453-.1904297.3505859-.4482422.6240234-.7724609.8203125-.3251953.1953125-.6933594.3330078-1.1025391.4130859ZM505.0625,73.3125c-.2207031,0-.3974609-.0654297-.5332031-.1953125-.1347656-.1298828-.2021484-.3046875-.2021484-.5253906,0-.2294922.0673828-.4091797.2021484-.5400391.1357422-.1298828.3125-.1943359.5332031-.1943359.2294922,0,.4072266.0644531.5322266.1943359.125.1308594.1875.3105469.1875.5400391,0,.2207031-.0625.3955078-.1875.5253906s-.3027344.1953125-.5322266.1953125Z"/>
        <path class="cls-2" d="M509.3779297,82.5068359c-.4101562,0-.7773438-.0195312-1.1025391-.0595703s-.6425781-.0996094-.9521484-.1806641v-1.0498047c.3496094.1005859.6943359.1708984,1.0341797.2099609.3398438.0400391.7001953.0605469,1.0800781.0605469.5302734,0,.9326172-.1054688,1.2080078-.3144531.2744141-.2099609.4121094-.4785156.4121094-.8056641,0-.2832031-.0947266-.5166016-.2851562-.6982422-.1894531-.1826172-.5048828-.3339844-.9443359-.4560547l-.8554688-.2578125c-.4902344-.1416016-.8720703-.3691406-1.1474609-.6826172s-.4121094-.71875-.4121094-1.2148438c0-.4042969.109375-.7685547.3300781-1.0927734.2197266-.3242188.5292969-.5820312.9296875-.7744141.3994141-.1923828.8701172-.2880859,1.4101562-.2880859.3300781,0,.6396484.0126953.9296875.0371094.2900391.0253906.5703125.0673828.8398438.1279297l-.1201172,1.0048828c-.2998047-.0605469-.5800781-.0996094-.8398438-.1201172-.2597656-.0195312-.5498047-.0302734-.8701172-.0302734-.4902344,0-.8652344.0976562-1.125.2919922s-.3896484.4404297-.3896484.7373047c0,.2734375.0820312.4912109.2470703.6523438.1650391.1621094.4277344.2939453.7880859.3955078l.8544922.2275391c.6005859.1621094,1.0449219.4023438,1.3349609.7207031.2900391.3193359.4355469.7109375.4355469,1.1767578s-.1181641.8779297-.3525391,1.2373047c-.2353516.359375-.5605469.6396484-.9755859.8417969-.4150391.203125-.9023438.3037109-1.4619141.3037109Z"/>
        <path class="cls-2" d="M513.3935547,84.0224609c.1992188-.3105469.3671875-.6074219.5019531-.8925781s.2529297-.5683594.3525391-.8476562c-.1494141-.0703125-.2695312-.1699219-.359375-.2998047-.0908203-.1298828-.1357422-.2753906-.1357422-.4355469,0-.2900391.0800781-.5195312.2402344-.6894531s.375-.2548828.6455078-.2548828c.2597656,0,.4716797.0869141.6367188.2617188.1650391.1757812.2480469.4082031.2480469.6982422,0,.2294922-.0478516.4667969-.1425781.7119141-.0957031.2451172-.2480469.5078125-.4580078.7880859-.2099609.2792969-.5.5996094-.8701172.9599609h-.6591797Z"/>
        <path class="cls-2" d="M524.8828125,82.5068359c-.8496094,0-1.6152344-.1806641-2.2949219-.5439453-.6796875-.3623047-1.2197266-.9013672-1.6201172-1.6171875-.3994141-.7148438-.5996094-1.6064453-.5996094-2.6748047,0-.9169922.1318359-1.7070312.3974609-2.3720703.2646484-.6650391.625-1.2119141,1.0800781-1.6396484s.9619141-.7451172,1.5224609-.9521484c.5595703-.2070312,1.1396484-.3095703,1.7402344-.3095703.3994141,0,.7373047.0146484,1.0117188.0449219.2753906.0292969.5830078.0800781.9228516.1494141l-.1347656,1.0498047c-.2705078-.0595703-.4980469-.1015625-.6826172-.1269531-.1855469-.0253906-.3652344-.0429688-.5400391-.0527344s-.3876953-.0146484-.6376953-.0146484c-.4296875,0-.8496094.0810547-1.2597656.2421875s-.7802734.4091797-1.1103516.7421875-.5898438.7539062-.7792969,1.2636719c-.1904297.5097656-.2851562,1.1083984-.2851562,1.7949219,0,.8984375.1542969,1.640625.4648438,2.2255859.3095703.5859375.7246094,1.0224609,1.2451172,1.3095703.5195312.2880859,1.0947266.4316406,1.7246094.4316406.3701172,0,.7001953-.0126953.9902344-.0371094.2900391-.0253906.6298828-.0830078,1.0195312-.1728516v1.0195312c-.3798828.0810547-.7197266.140625-1.0195312.1806641s-.6855469.0595703-1.1552734.0595703Z"/>
        <path class="cls-2" d="M531.0458984,82.5068359c-.8300781,0-1.4619141-.2138672-1.8974609-.6435547-.4345703-.4296875-.6523438-1.0585938-.6523438-1.8867188v-4.9394531l1.1396484-.0898438v4.9013672c0,.515625.1376953.9111328.4130859,1.1835938.2744141.2734375.671875.4101562,1.1923828.4101562.3603516,0,.6542969-.0302734.8847656-.0898438.2304688-.0605469.5097656-.1552734.8398438-.2851562v-6.0302734l1.140625-.0898438v7.4248047h-1.1103516v-.4199219c-.3095703.1904297-.6152344.3300781-.9150391.4199219s-.6445312.1347656-1.0351562.1347656Z"/>
        <path class="cls-2" d="M536.3740234,82.3720703v-10.4248047l1.1396484-.0898438v10.5146484h-1.1396484Z"/>
        <path class="cls-2" d="M542.0019531,82.5068359c-.3603516,0-.6923828-.0703125-.9980469-.2109375-.3046875-.140625-.546875-.3798828-.7275391-.7177734-.1796875-.3369141-.2695312-.7978516-.2695312-1.3818359v-4.2294922h-.8847656v-.9296875h.8847656v-1.2900391l1.125-.1650391v1.4550781h1.9199219v.9296875h-1.9199219v4.1591797c0,.4638672.1074219.8066406.3222656,1.0283203s.4921875.3330078.8330078.3330078c.1796875,0,.3417969-.0097656.4873047-.0302734.1445312-.0195312.3125-.0498047.5019531-.0898438v.9746094c-.2294922.0605469-.4423828.1025391-.6367188.1279297-.1953125.0244141-.4082031.0371094-.6376953.0371094Z"/>
        <path class="cls-2" d="M547.1601562,82.5068359c-.8300781,0-1.4619141-.2138672-1.8974609-.6435547-.4345703-.4296875-.6523438-1.0585938-.6523438-1.8867188v-4.9394531l1.1396484-.0898438v4.9013672c0,.515625.1376953.9111328.4130859,1.1835938.2744141.2734375.671875.4101562,1.1923828.4101562.3603516,0,.6542969-.0302734.8847656-.0898438.2304688-.0605469.5097656-.1552734.8398438-.2851562v-6.0302734l1.140625-.0898438v7.4248047h-1.1103516v-.4199219c-.3095703.1904297-.6152344.3300781-.9150391.4199219s-.6445312.1347656-1.0351562.1347656Z"/>
        <path class="cls-2" d="M554.9785156,82.5068359c-.8300781,0-1.4628906-.2138672-1.8974609-.6435547-.4355469-.4296875-.6523438-1.0585938-.6523438-1.8867188v-4.9394531l1.1396484-.0898438v4.9013672c0,.515625.1376953.9111328.4121094,1.1835938.2753906.2734375.6728516.4101562,1.1923828.4101562.3603516,0,.6552734-.0302734.8857422-.0898438.2294922-.0605469.5097656-.1552734.8398438-.2851562v-6.0302734l1.1396484-.0898438v7.4248047h-1.109375v-.4199219c-.3105469.1904297-.6152344.3300781-.9150391.4199219-.3007812.0898438-.6455078.1347656-1.0351562.1347656Z"/>
        <path class="cls-2" d="M560.3105469,82.3720703v-7.3349609l1.125-.0898438v.8544922c.2802734-.3193359.5449219-.5498047.7949219-.6894531.25-.140625.5048828-.2099609.7646484-.2099609.1699219,0,.3154297.0068359.4355469.0224609.1201172.0146484.2597656.0419922.4199219.0820312l-.1347656,1.125c-.1601562-.0498047-.3027344-.0820312-.4277344-.0976562-.125-.0146484-.2626953-.0224609-.4121094-.0224609-.2402344,0-.4707031.0605469-.6904297.1806641s-.4648438.3144531-.7353516.5849609v5.5947266h-1.1396484Z"/>
        <path class="cls-2" d="M365.3417969,100.1074219c-1.0107422,0-1.8222656-.3017578-2.4375-.9052734s-.9228516-1.5585938-.9228516-2.8671875c0-.8447266.1376953-1.5507812.4130859-2.1191406.2744141-.5683594.6445312-.9960938,1.109375-1.2832031.4648438-.2861328.9775391-.4296875,1.5380859-.4296875.5898438,0,1.0917969.1123047,1.5068359.3388672.4150391.2255859.7324219.5566406.953125.9931641.2197266.4375.3300781.9765625.3300781,1.6191406v.4443359c0,.1552734-.0107422.3085938-.0302734.4589844h-4.6796875c0,.6269531.0996094,1.140625.2998047,1.5400391s.4775391.6953125.8320312.8867188c.3554688.1923828.7626953.2880859,1.2226562.2880859.4101562,0,.7929688-.0371094,1.1474609-.1132812.3554688-.0761719.7177734-.1943359,1.0878906-.3564453v1.0234375c-.390625.1601562-.7626953.28125-1.1181641.3613281-.3544922.0800781-.7724609.1201172-1.2519531.1201172ZM363.1669922,95.4423828h3.4492188c0-.6542969-.1396484-1.1484375-.4199219-1.4814453-.2792969-.3320312-.6845703-.4980469-1.2148438-.4980469-.4501953,0-.8447266.1738281-1.1845703.5214844s-.5498047.8339844-.6298828,1.4580078Z"/>
        <path class="cls-2" d="M369.6855469,99.9726562v-7.3349609l1.0947266-.0898438v.4951172c.3398438-.2001953.6630859-.3398438.9677734-.4199219s.6523438-.1201172,1.0429688-.1201172c.8291016,0,1.4648438.2158203,1.9042969.6484375.4404297.4326172.6601562,1.0517578.6601562,1.8564453v4.9648438h-1.1396484v-4.8486328c0-.4736328-.140625-.8535156-.4199219-1.140625-.2802734-.2871094-.6855469-.4306641-1.2148438-.4306641-.3300781,0-.6259766.0273438-.8857422.0820312-.2597656.0556641-.5498047.1533203-.8701172.2929688v6.0449219h-1.1396484Z"/>
        <path class="cls-2" d="M382.5400391,99.9726562l-2.7451172-9.8398438h1.2753906l2.2949219,8.6552734h.0751953l2.0703125-6.1357422-.8408203-2.5195312h1.2607422l2.7900391,8.6552734h.0742188l2.2802734-8.6552734h1.2451172l-2.8046875,9.8398438h-1.5751953l-1.8447266-5.7148438h-.0605469l-1.9199219,5.7148438h-1.5751953Z"/>
        <path class="cls-2" d="M396.2978516,100.1074219c-1.0097656,0-1.8222656-.3017578-2.4375-.9052734-.6142578-.6035156-.921875-1.5585938-.921875-2.8671875,0-.8447266.1367188-1.5507812.4121094-2.1191406s.6455078-.9960938,1.1103516-1.2832031c.4648438-.2861328.9775391-.4296875,1.5371094-.4296875.5898438,0,1.0927734.1123047,1.5078125.3388672.4150391.2255859.7324219.5566406.9521484.9931641.2197266.4375.3300781.9765625.3300781,1.6191406v.4443359c0,.1552734-.0097656.3085938-.0302734.4589844h-4.6796875c0,.6269531.0996094,1.140625.2998047,1.5400391s.4775391.6953125.8330078.8867188c.3544922.1923828.7626953.2880859,1.2226562.2880859.4091797,0,.7919922-.0371094,1.1474609-.1132812.3544922-.0761719.7167969-.1943359,1.0869141-.3564453v1.0234375c-.3896484.1601562-.7626953.28125-1.1171875.3613281-.3554688.0800781-.7724609.1201172-1.2529297.1201172ZM394.1230469,95.4423828h3.4501953c0-.6542969-.140625-1.1484375-.4199219-1.4814453-.2802734-.3320312-.6855469-.4980469-1.2148438-.4980469-.4501953,0-.8457031.1738281-1.1855469.5214844s-.5498047.8339844-.6298828,1.4580078Z"/>
        <path class="cls-2" d="M402.8369141,100.1074219c-.3603516,0-.6923828-.0703125-.9980469-.2109375-.3046875-.140625-.546875-.3798828-.7275391-.7177734-.1796875-.3369141-.2695312-.7978516-.2695312-1.3818359v-4.2294922h-.8847656v-.9296875h.8847656v-1.2900391l1.125-.1650391v1.4550781h1.9199219v.9296875h-1.9199219v4.1591797c0,.4638672.1074219.8066406.3222656,1.0283203s.4921875.3330078.8330078.3330078c.1796875,0,.3417969-.0097656.4873047-.0302734.1445312-.0195312.3125-.0498047.5019531-.0898438v.9746094c-.2294922.0605469-.4423828.1025391-.6367188.1279297-.1953125.0244141-.4082031.0371094-.6376953.0371094Z"/>
        <path class="cls-2" d="M408.4443359,100.1074219c-1.0097656,0-1.8222656-.3017578-2.4375-.9052734-.6142578-.6035156-.921875-1.5585938-.921875-2.8671875,0-.8447266.1367188-1.5507812.4121094-2.1191406s.6455078-.9960938,1.1103516-1.2832031c.4648438-.2861328.9775391-.4296875,1.5371094-.4296875.5898438,0,1.0927734.1123047,1.5078125.3388672.4150391.2255859.7324219.5566406.9521484.9931641.2197266.4375.3300781.9765625.3300781,1.6191406v.4443359c0,.1552734-.0097656.3085938-.0302734.4589844h-4.6796875c0,.6269531.0996094,1.140625.2998047,1.5400391s.4775391.6953125.8330078.8867188c.3544922.1923828.7626953.2880859,1.2226562.2880859.4091797,0,.7919922-.0371094,1.1474609-.1132812.3544922-.0761719.7167969-.1943359,1.0869141-.3564453v1.0234375c-.3896484.1601562-.7626953.28125-1.1171875.3613281-.3554688.0800781-.7724609.1201172-1.2529297.1201172ZM406.2695312,95.4423828h3.4501953c0-.6542969-.140625-1.1484375-.4199219-1.4814453-.2802734-.3320312-.6855469-.4980469-1.2148438-.4980469-.4501953,0-.8457031.1738281-1.1855469.5214844s-.5498047.8339844-.6298828,1.4580078Z"/>
        <path class="cls-2" d="M412.7890625,99.9726562v-7.3349609l1.0947266-.0898438v.4951172c.3398438-.2001953.6621094-.3398438.9677734-.4199219.3046875-.0800781.6523438-.1201172,1.0419922-.1201172.8300781,0,1.4648438.2158203,1.9052734.6484375.4394531.4326172.6601562,1.0517578.6601562,1.8564453v4.9648438h-1.140625v-4.8486328c0-.4736328-.1396484-.8535156-.4199219-1.140625s-.6845703-.4306641-1.2148438-.4306641c-.3300781,0-.625.0273438-.8847656.0820312-.2607422.0556641-.5498047.1533203-.8701172.2929688v6.0449219h-1.1396484Z"/>
        <path class="cls-2" d="M422.1699219,100.1074219c-.4101562,0-.7773438-.0195312-1.1025391-.0595703s-.6425781-.0996094-.9521484-.1806641v-1.0498047c.3496094.1005859.6943359.1708984,1.0341797.2099609.3398438.0400391.7001953.0605469,1.0800781.0605469.5302734,0,.9326172-.1054688,1.2080078-.3144531.2744141-.2099609.4121094-.4785156.4121094-.8056641,0-.2832031-.0947266-.5166016-.2851562-.6982422-.1894531-.1826172-.5048828-.3339844-.9443359-.4560547l-.8554688-.2578125c-.4902344-.1416016-.8720703-.3691406-1.1474609-.6826172s-.4121094-.71875-.4121094-1.2148438c0-.4042969.109375-.7685547.3300781-1.0927734.2197266-.3242188.5292969-.5820312.9296875-.7744141.3994141-.1923828.8701172-.2880859,1.4101562-.2880859.3300781,0,.6396484.0126953.9296875.0371094.2900391.0253906.5703125.0673828.8398438.1279297l-.1201172,1.0048828c-.2998047-.0605469-.5800781-.0996094-.8398438-.1201172-.2597656-.0195312-.5498047-.0302734-.8701172-.0302734-.4902344,0-.8652344.0976562-1.125.2919922s-.3896484.4404297-.3896484.7373047c0,.2734375.0820312.4912109.2470703.6523438.1650391.1621094.4277344.2939453.7880859.3955078l.8544922.2275391c.6005859.1621094,1.0449219.4023438,1.3349609.7207031.2900391.3193359.4355469.7109375.4355469,1.1767578s-.1181641.8779297-.3525391,1.2373047c-.2353516.359375-.5605469.6396484-.9755859.8417969-.4150391.203125-.9023438.3037109-1.4619141.3037109Z"/>
        <path class="cls-2" d="M429.6533203,100.1074219c-.6298828,0-1.1953125-.1308594-1.6953125-.3935547s-.8945312-.6738281-1.1845703-1.234375-.4355469-1.2802734-.4355469-2.1591797c0-.8183594.1601562-1.5097656.4804688-2.0751953.3193359-.5654297.7392578-.9970703,1.2597656-1.2958984.5195312-.2978516,1.0751953-.4462891,1.6650391-.4462891.2900391,0,.5498047.0126953.7802734.0371094.2294922.0253906.484375.078125.7646484.1572266l-.1347656,1.0205078c-.2900391-.0703125-.5380859-.1171875-.7431641-.1425781-.2050781-.0244141-.4375-.0371094-.6972656-.0371094-.3994141,0-.7646484.1064453-1.0947266.3193359s-.5947266.5214844-.7949219.9267578c-.2001953.40625-.2998047.9023438-.2998047,1.4902344,0,.6591797.0996094,1.1962891.2998047,1.6123047s.4726562.7167969.8173828.9042969.7275391.28125,1.1474609.28125c.2802734,0,.5449219-.0166016.7949219-.0517578s.4902344-.0878906.7197266-.1582031v1.0205078c-.25.0703125-.5.125-.75.1650391s-.5498047.0595703-.8994141.0595703Z"/>
        <path class="cls-2" d="M432.8388672,99.9726562v-10.4248047l1.1396484-.0898438v3.5546875c.3398438-.1894531.6582031-.3222656.953125-.3974609s.6318359-.1123047,1.0126953-.1123047c.8291016,0,1.4648438.2158203,1.9042969.6484375.4404297.4326172.6601562,1.0517578.6601562,1.8564453v4.9648438h-1.1396484v-4.8486328c0-.4736328-.140625-.8535156-.4199219-1.140625-.2802734-.2871094-.6855469-.4306641-1.2148438-.4306641-.3408203,0-.6376953.0273438-.8925781.0820312-.2558594.0556641-.5429688.1533203-.8632812.2929688v6.0449219h-1.1396484Z"/>
        <path class="cls-2" d="M442.4384766,100.1074219c-.7001953,0-1.2548828-.1845703-1.6650391-.5527344-.4101562-.3691406-.6142578-.8515625-.6142578-1.4482422,0-.6269531.2714844-1.1552734.8173828-1.5849609.5449219-.4287109,1.3769531-.6435547,2.4970703-.6435547h.5322266c.1552734,0,.3476562.0048828.578125.0146484v-.8105469c0-.5-.1376953-.8789062-.4130859-1.1396484-.2744141-.2597656-.6972656-.3896484-1.2675781-.3896484-.6894531,0-1.4042969.1601562-2.1445312.4794922l-.2402344-.9599609c.4599609-.1992188.8828125-.3447266,1.2675781-.4345703s.8125-.1347656,1.2822266-.1347656c.8408203,0,1.4853516.2060547,1.9355469.6181641.4501953.4130859.6748047.9960938.6748047,1.7509766v5.1005859h-1.0644531v-.4648438c-.3603516.2197266-.7001953.375-1.0205078.4648438s-.7050781.1347656-1.1552734.1347656ZM442.6787109,99.1171875c.3603516,0,.6923828-.0419922.9980469-.1269531.3046875-.0849609.6074219-.2177734.9072266-.3974609v-1.7705078c-.2207031-.0195312-.4130859-.0292969-.578125-.0292969h-.5625c-.7597656,0-1.296875.1220703-1.6123047.3671875-.3144531.2441406-.4726562.5292969-.4726562.8554688,0,.3271484.1103516.5917969.3300781.7958984s.5498047.3056641.9902344.3056641Z"/>
        <path class="cls-2" d="M447.8916016,102.8378906v-10.2001953l1.0947266-.0898438v.4648438c.2998047-.1699219.6074219-.2978516.921875-.3828125.3154297-.0849609.6679688-.1269531,1.0576172-.1269531.9003906,0,1.625.2978516,2.1757812.8955078.5498047.5966797.8242188,1.5126953.8242188,2.7470703,0,.8300781-.1621094,1.5410156-.4873047,2.1328125-.3251953.5927734-.7773438,1.0449219-1.3574219,1.3583984-.5800781.3144531-1.2548828.4707031-2.0253906.4707031-.1894531,0-.3691406-.0068359-.5390625-.0224609-.1708984-.0146484-.3457031-.0419922-.5253906-.0820312v2.8349609h-1.1396484ZM450.2607422,99.1025391c.4804688,0,.9101562-.1035156,1.2900391-.3125.3798828-.2080078.6806641-.5253906.9003906-.953125.2197266-.4267578.3300781-.9599609.3300781-1.6005859,0-.9550781-.1953125-1.6416016-.5849609-2.0585938-.3896484-.4160156-.9150391-.625-1.5751953-.625-.2802734,0-.5429688.0273438-.7871094.0820312-.2451172.0556641-.5126953.1533203-.8027344.2929688v5.0546875c.2197266.0400391.4248047.0703125.6152344.0898438.1894531.0205078.3945312.0302734.6142578.0302734Z"/>
      </g>
    </g>
  </g>
  <metadata><?xpacket begin="﻿" id="W5M0MpCehiHzreSzNTczkc9d"?>
<x:xmpmeta xmlns:x="adobe:ns:meta/" x:xmptk="XMP Core 6.0.0">
   <rdf:RDF xmlns:rdf="http://www.w3.org/1999/02/22-rdf-syntax-ns#">
      <rdf:Description rdf:about=""
            xmlns:dc="http://purl.org/dc/elements/1.1/"
            xmlns:xmp="http://ns.adobe.com/xap/1.0/"
            xmlns:xmpGImg="http://ns.adobe.com/xap/1.0/g/img/"
            xmlns:xmpMM="http://ns.adobe.com/xap/1.0/mm/"
            xmlns:stRef="http://ns.adobe.com/xap/1.0/sType/ResourceRef#"
            xmlns:stEvt="http://ns.adobe.com/xap/1.0/sType/ResourceEvent#"
            xmlns:illustrator="http://ns.adobe.com/illustrator/1.0/"
            xmlns:xmpTPg="http://ns.adobe.com/xap/1.0/t/pg/"
            xmlns:stDim="http://ns.adobe.com/xap/1.0/sType/Dimensions#"
            xmlns:xmpG="http://ns.adobe.com/xap/1.0/g/"
            xmlns:pdf="http://ns.adobe.com/pdf/1.3/"
            xmlns:pdfxid="http://www.npes.org/pdfx/ns/id/"
            xmlns:pdfx="http://ns.adobe.com/pdfx/1.3/">
         <dc:format>image/svg+xml</dc:format>
         <dc:title>
            <rdf:Alt>
               <rdf:li xml:lang="x-default">LOGO_ORG_NL_RGB_BASIS_BLAUW</rdf:li>
            </rdf:Alt>
         </dc:title>
         <xmp:MetadataDate>2024-08-01T09:18:03+02:00</xmp:MetadataDate>
         <xmp:ModifyDate>2024-08-01T09:18:03+02:00</xmp:ModifyDate>
         <xmp:CreateDate>2024-08-01T09:18:03+02:00</xmp:CreateDate>
         <xmp:CreatorTool>Adobe Illustrator 28.6 (Macintosh)</xmp:CreatorTool>
         <xmp:Thumbnails>
            <rdf:Alt>
               <rdf:li>
                  <rdf:Description>
                     <xmpGImg:width>256</xmpGImg:width>
                     <xmpGImg:height>100</xmpGImg:height>
                     <xmpGImg:format>JPEG</xmpGImg:format>
                     <xmpGImg:image>/9j/4AAQSkZJRgABAgEASABIAAD/7QAsUGhvdG9zaG9wIDMuMAA4QklNA+0AAAAAABAASAAAAAEA&#xA;AQBIAAAAAQAB/+4ADkFkb2JlAGTAAAAAAf/bAIQABgQEBAUEBgUFBgkGBQYJCwgGBggLDAoKCwoK&#xA;DBAMDAwMDAwQDA4PEA8ODBMTFBQTExwbGxscHx8fHx8fHx8fHwEHBwcNDA0YEBAYGhURFRofHx8f&#xA;Hx8fHx8fHx8fHx8fHx8fHx8fHx8fHx8fHx8fHx8fHx8fHx8fHx8fHx8fHx8f/8AAEQgAZAEAAwER&#xA;AAIRAQMRAf/EAaIAAAAHAQEBAQEAAAAAAAAAAAQFAwIGAQAHCAkKCwEAAgIDAQEBAQEAAAAAAAAA&#xA;AQACAwQFBgcICQoLEAACAQMDAgQCBgcDBAIGAnMBAgMRBAAFIRIxQVEGE2EicYEUMpGhBxWxQiPB&#xA;UtHhMxZi8CRygvElQzRTkqKyY3PCNUQnk6OzNhdUZHTD0uIIJoMJChgZhJRFRqS0VtNVKBry4/PE&#xA;1OT0ZXWFlaW1xdXl9WZ2hpamtsbW5vY3R1dnd4eXp7fH1+f3OEhYaHiImKi4yNjo+Ck5SVlpeYmZ&#xA;qbnJ2en5KjpKWmp6ipqqusra6voRAAICAQIDBQUEBQYECAMDbQEAAhEDBCESMUEFURNhIgZxgZEy&#xA;obHwFMHR4SNCFVJicvEzJDRDghaSUyWiY7LCB3PSNeJEgxdUkwgJChgZJjZFGidkdFU38qOzwygp&#xA;0+PzhJSktMTU5PRldYWVpbXF1eX1RlZmdoaWprbG1ub2R1dnd4eXp7fH1+f3OEhYaHiImKi4yNjo&#xA;+DlJWWl5iZmpucnZ6fkqOkpaanqKmqq6ytrq+v/aAAwDAQACEQMRAD8A5NnQOpdirsVdirsVdir7&#xA;q8mf8ofoX/bPtf8AkwmaLJ9R97tIcgnGQZOxV2KuxV2KuxV2KuxV2KuxV2KuxV2KuxV2KuxV2Kux&#xA;V2KuxV2KuxV2KuxV2Kvz9zoHUuxV2KuxV2KuxV91eTP+UP0L/tn2v/JhM0WT6j73aQ5BOMgydirs&#xA;VdirsVdirsVdirsVdirsVdirsVdirsVdirsVdirsVdirsVdirsVdirsVfn7nQOpdirsVdirsVdir&#xA;7q8mf8ofoX/bPtf+TCZosn1H3u0hyCcZBk7FXYq7FXYq7FXYq7FXYq7FXYq7FXYq7FXYq7FXYq7F&#xA;XYq7FXYq7FXYq7FXYq/P3OgdS7FXYq7FXYq7FX3V5M/5Q/Qv+2fa/wDJhM0WT6j73aQ5BOMgydir&#xA;sVdirsVdirsVdirsVdirsVdirsVdirsVdirsVdirsVdirsVdirsVdirsVfn7nQOpdirsVdirsVdi&#xA;r7q8mf8AKH6F/wBs+1/5MJmiyfUfe7SHIJxkGTsVdirsVdirsVdirsVdirsVdirsVdirsVdirsVd&#xA;irsVdirsVdirsVdirsVdir8/c6B1LsVdirsVdirsVfdXkz/lD9C/7Z9r/wAmEzRZPqPvdpDkE4yD&#xA;J2KuxV2KuxV2KuxV2KuxV2KuxV2KuxV2KuxV2KuxV2KuxV2KuxV2KuxV2KuxV+fudA6l2Ks58nfl&#xA;5e3tnBr80yiBVN1Z2kcYuJZhBcCJ/URgUSMNs7MGoDUoVyjJmANNscd7pj5//L24Muq+YbSZE/0m&#xA;+muNOkjEDJBb3Cw+pEVAV05ycOTKhLA0DHI4svIe5M4cy81zJaXYq+6vJn/KH6F/2z7X/kwmaLJ9&#xA;R97tIcggvO35gaB5Ngs59Z9b0r2UwxNCgfiVHIlqstABksWIz5InkEeaNtPNej3Oq6rpqyFJNHS2&#xA;ku55OKw8bxGeIo9d9k3yJxkAHvSJCyO5U1PzR5e0yC0uL6/hhgvpktrSXlyWSSQ8VAK12r1boO5x&#xA;jAnkFMgGtP1+O81TVLL0DHDpqwOt6XjaKZbiMyck4sWASlDyA9sTCgD3qJWUYNS04231oXUJta8f&#xA;XEi+nWtKcq0rXI8JTYbGpac1qbtbqE2o2NwJF9Mb0+3Xjjwnkth0mpadFbpcyXUKW0lOE7SKEavS&#xA;jE0OPCVsJVf+bLW0806P5f8ARaSTWYriaG5VhwVbZQ5r48q7UyYx3EnuQZbgd6E86/mN5c8nSWKa&#xA;wZgdQLiIwoHCLGUVnkJZeKgyLvhx4ZTukTyCPNkE2oWEEywTXMUU7AFYndVchjxBCk13bbKwCytK&#xA;PNnnLTPLujXmpSFbp7Iwia0ikT1QJ50gBIJ2AMoO+Tx4zI0xlMAWiNY8xwWOlfpGziOqJ60cPp20&#xA;kXWRwhPJ2Vfh5VpXBGFmjskyoWmRvLQXItTPGLlhyWAsvqFfELWtMjTK2O+WfPtj5j1rUrDTbaR7&#xA;LTHeGTUjJD6ck0TBWWNFdpCvxVD04mmWTxGIBPVhGdnZk+VM3Yq7FXYq7FXYq7FXYq7FXYq7FX5/&#xA;pG7lQKDmeKsxCrXbqxoB1zoHUvoHzh+Rnl2LylpSaBaXFxrNxx/3IwSGaNzJ8f7yvGARHlxR+Sn7&#xA;NSw5Ea/HqpcRvk5c8IoVzTX8rvInnbypYzW9pqelXltqDrJE7xzXcMNzGXimSPg8FTxHxnl+zkM+&#xA;WMzyLLFCUe5vznoWu+f/AC96EPmHRktIJ5muriCC4tUka0YqVdpHn5Iks32uVPi5b445DGeRWcTM&#xA;cwln5d/kRoMun6naeabK5/SaMFS+D8IUQoK/VyvOKQ1LVZq022Vq0nm1RsGPJjjwDq8AvbY295cW&#xA;4dJRBI8fqxMHjbixXkjqWDKabEHfM8Gw4pfcfkz/AJQ/Qv8Atn2v/JhM0eT6j73Zw5BjX5m+XJNf&#xA;1fyvZPayz6e9xeRX8kaM6xRzWckfN2AITdtie+W4Z8IJ/HNhkjZDzTRdM88W+g+bo9T8tS6jeR/o&#xA;ewjS6tZZop49PaaI3EUfwG54oqtRW3JB6ZkylG40a5/a0ASo2O5R0/ypqy+XrqS58u3V7Z2HmWz1&#xA;COybTGgkks2UC69C0fmeEgRQ0YJG2+E5BfP+HvURNcuvcm+u6Br17dedLnTtEvU0m9k8uTjThA9v&#xA;JcWMFt/pFtEnwDlHsrov2acchGYHDZ39XzZSiTdDuUrrynfXmleZZ9J8u3umeXtTvdIFnoc1uySs&#xA;YJV+tTfVV5GNOPU9+vbCMgBFmyL3UxsGhtsr615b1LR77zrY6R5Y+taHPe6M1lbNZy3Fsitbv9au&#xA;IIE4+uY3oGVTsTvgjMERJO9FTEi6G2yV2Wia9b+TvqMnlyW5tX8w3UiyXOkTSvbWr28fGWHTeYYK&#xA;7lgByKr069JGQ4rv+Hv/AEsRE1y6936E4/LnQfMdtq3kM3mnXkUGnx61HK89vJEIUkcmESBgfT5g&#xA;/AC3yrkM04kSo86ZY4mx8Ub558p+cPNvnHzH9TsoV0600qPS7WXUEmRZWnP1l5bQqOLOkihSx2wY&#xA;skYRF87tlOJkT7lHyvoOqeYfOGh6nruiTxy2nlRIkn1C2kVItTtr1kRj6igepxrIB14muM5iMSAf&#xA;4vspEYkkEjok1v5cf/lWGqaI3lPUYfN37gapfSWskv1z/clDJJwuV5etVfjoOgBPauTM/wB4DxDh&#xA;/Yx4fSRW/wC1MNf8nX+n6r5ssND0aeHR57nQp7SG2t5DAzxzKZ2i4qR8A3fj075GGQERJO/qTKFE&#xA;0NtkL/hDWW/My8uNVg1KKc6+l9p2oWumi6ia2MiiFXvwytFGkezofhA7E7ZLxBwbV9Pf+hHAeLfv&#xA;Z3+TvlmPSLLXJJdKGnXUur3iwu1uIJGtA4MIUlVJi/kp8PhmPqJ2RvezbijV7dXoWY7c7FXYq7FX&#xA;Yq7FXYq7FXYq7FXYq+O/yl1PzEupXWmaafrNq0L3lxpBWOQ3foUPoRLKGUNLsrkDlwrSpoM3OeMa&#xA;suuxE3Qe/pa69oPkO20iW0vNfuI7Bf0nZWzQRuiShhIgeQmSToyoqgsabncZr7Ep3y3cuiI1zWeV&#xA;YrTTfy10v/DlxJJpaevHbyzxyC9Wa5vGRYPSR7dS6yyGJizqvIBugxnvM8XP9iI7RFKOmadpS+Qf&#xA;MGjakJtLgskvINVkKvLM5nkdnulaQO8nqIFIIYjlUb0BwyJ4wRuoA4SCr+XIdU1TybHolrbaj5as&#xA;Z7OS10qW7a2lkeMwlYy3D97E1PjNRXwYbYJkCV7STGzGuTwf80NQ812tppWi6kTY2ktulydG4xxt&#xA;C6Ew8ZPSC81JiMkZfejb775n4BE2R83EyE7AvqfyZ/yh+hf9s+1/5MJmqyfUfe58OQV9b8w6LocV&#xA;vNq10lpFd3CWlu7g0aaQEolQDSoU7nbBGBlyTKQHNu58w6LbazZ6JPdpHqt+jyWdoa85FiBZyKCm&#xA;wU9fDEQJF9FMhdK+m38WoWUd3EksccteKTxtFIOLFfiRwGHTvgIo0oNu/SEP6SOncJfWEP1j1PTf&#xA;0eJfhx9WnDnX9mtab41ta3vStJPBG8UckipJMxSFGYAuwUuQoPUhVJ27DBSV+Koa8v4rR7VJElc3&#xA;cwt4zFG0gVirPyk4g8E+D7R2rTxwgWglE4EuxV2KuxVKde81+XtAEP6WvVtnuCRBFxeSR+O7FY4w&#xA;7kL3NKDJwxmXJjKQHNG6Zqen6pYw3+nXCXVnOOUU8RDKwrQ7jwOxGRlEg0Ug3yROBKD0nVrLVbP6&#xA;5ZsXg9WaDkwKnnbzPBJsfB4zhlEg0UA2jMCXYqlt/r9pYyXCSw3Uhtoo5nMNvNKCsshjUIyKQ7Ai&#xA;rKNwNztkhAliZUmWRZKdxcW9tbyXFxIsNvCpkmmkIVERRVmZjsABhAtUs0Hzb5f19pRpNybkRBWZ&#xA;/SlRCrfZKvIiq4P+STkp4zHmxjMHki9R1ay082i3LFTe3CWluACayyBmANOgoh3yIiSkmkTDPBOn&#xA;qQSLLHyZOaMGHJGKMKjurKQffAQlfirsVfEv5Yx6I/nnS/05Jbx6Uju90bzj6JVY2IV+QK/E1Bvm&#xA;7zXwGubrMdcQt6Va+dPO8/50WrtFBrtx6bWtnFpzi3tmgZDNJwlk4+pwjLkc2+1v7ZjHHHwu5uE5&#xA;cfezjyz5f/M7QtTMNhpls/lcsLiPS9TvfXuIJ5BWZoblEkILOzH4gRuelconPHIbn1eQbYxkDy2X&#xA;eafLv5l61LHpkthajyuUWG9it7sDULuOBSYlmuXjQKC/xEINqnr3YThHe/V9iyjI7dGBeYfNnney&#xA;/NnTooLZdDubS3hsB9fmF9ALaT7MtxIhbjy6uysDtvl8McTjPVqlOQn3MG/OF9Gl87T3GkTWctrP&#xA;DDK408hoVmdA0wBCrUmRmb6e3QZGnvh3astcWz608mf8ofoX/bPtf+TCZqMn1H3uwhyDHfzO0a01&#xA;688s6BeNS21C8uw4FCQU0264uAe6MQRlmGRiCR+NwwyC6H45Ma07SPMVr5q8q675rhUa/PftpycZ&#xA;FkAtYNMuIw4ZSR++mZ5iPcDtlplExkI8q/SwANgnn+xCeTLH/Ed75esdVurySBtF1G5JiuriFjOm&#xA;qKiSFonQsyhtuVe3hhyHhBI7x9yIC6vu/Sq2uqalqGgWz3munTJLjyrYySanczNHGs0l1wLySBlK&#xA;mXZGcHlvWtcTEA7C/UVBJHPooQ3Xlm5sPK2oajH+jdIs9YvbO4vY9Qu5bN62UwWaG6dkf05JeKhj&#xA;Teo6VqakCQNzQ6ea2Nie9EaPcajdefHkvtcjsNZh1udP0bPPcrNNYKWSKCK1JWB4mio6yBPtbk9c&#xA;EgBDYbV9qi+Lnvapo1qbTQPJOox3N097rOtwfpKaW5ml9VUhvCqcXdlVR4KBWgr0wSNmQ7h+pIGw&#xA;PeVP8t7jUbvzJp13qGtxxa47Xg1vRZZ7prqQnmVVraQ+jEsLBSjIgHHxrhzACJobdCjHd890z81X&#xA;Gr23nO48rwz3Ai83vZT2U0buPq6WzEaksbV+GsEStt3bIYwDHi/m3+xlK+Ku/wDBSh/MsZ/MyxOm&#xA;s1nO+tSafqEE2pXM1zNEI5QzPp7gwxW/KhiYHwoN9p8HoN93d+ljxerbvRXkOCW3HknVku7trvWr&#xA;nULbVBLczyxzpHDdSR1jkdkUo0C8eIHfBlP1Dur9CYdD3sg1TWNN8vfmZPqevyrZ2F9pUNvpuoTb&#xA;QrJDNI88PPojMHRt+tMrjEyhQ72ZIErPcxvStMi1GfT43W4t9C8w+ZtSu7aCOSa0Mtp+jpSjfu2j&#xA;kVJJYTJTaoPgcslKr7xEfewAv3ErZdQS0GmaVrmp3UPlO31fVrK6vHuZkJEDVsoLm6VhJw+JwOT7&#xA;8QDhq7IHqoftRfQ8rKVLdKvl3yxbJeiy8qzXGus13JPcwWzSLqEgthLcW7CRfgZmTk4DHxIyVeo/&#xA;ztvuRew7t2U+WdKGp+YNHh1PVZdYSx0OGeG7t7ieKGeQXUiLMyo6eoeAAq1a9cqnKgaFbs4iyLN7&#xA;MXPnXzF5fnheV57qHygLrSNYdjI5uZbppv0e5H7Z/wBGh+Lr+8y3w4y/ztx+lhxkfBMvMkesaJo2&#xA;qadLf3El1Z+XtG9aYyuWNxJqM6zuGr+30+VBkYVIg1/EfuTKwCPIJnper2Nh+Zd8txew6y073srX&#xA;lveTvNpsNuh5291ZgtCsaFeCsNy1Kiu+QlEmHdy+PxZA1LvT38w511v8umvtKRtR0+drO9khiUlr&#xA;iySeOaVVQgN8USmq9abe2QwjhnR2ZZN47Jf5s87+XdS0Swu9D1aKaDTtS0y71MWzkPDZLdIshmjX&#xA;41UD7SsPoyWPFIEgjmCicwRsUtGt2mseYJbyxvFvtPPmrT1tZo35x8RpS8gh6U9TlWneuS4SBR58&#xA;J+9F2fj+hL9G1DQtE0SAQ3jwT6Z5kkXzDEbiVzBb/XLtYWmRnbhGfUQlqUbqakZKQMj747fIMQQB&#xA;8V1r5pha9OvfpMv5fi84TrNfCRmgW3fS1WPkQSPS9Qj/ACQcTDaq34f0qJdenF+hEWTWfmi/02CS&#xA;9nudIv8AXNZIa3uZohLDHCzRD1InRuHgAcBuIPfQSPV7rL5ftp2t7mK4VVZoXWRVcVUlTWhHhm0I&#xA;cF6hF/zkf58ZqX0Nlew1qI2jkiKmhFVaGRD0NDWu2Yv5OHS2/wDMSee6n5j1jULye5mupVE0ryiE&#xA;SyFE5sW4oGY0A6DMiMAA0mRKlb61q1vIHhvJ1NQSBI4Boa0NCKjCYgrZekS/85HeeUHHT7axsIie&#xA;TKkckpY0C7maR+yjpTMb8nDrbd+Yl0eaatqU2p6pd6lOqJPezSXEyxDigeVi7cVJNBU9MyYihTST&#xA;Zt9weTP+UP0L/tn2v/JhM0eT6j73Zw5BOMgydiqnPc21v6frypF6rrFFzYLykb7KLXqx7DCAttLP&#xA;aTyTWyyRyyQ0W4hDKxTmtQHXtyU137Y0rUE1nd2ySW7x3Fq4+B4yrxkKabEVBoRibCFbivINQcgK&#xA;A96Hr+rAl2Ku4ryLUHIihPeg6frxV2KqFnd2V5Ebm0kSaMs8ZljIILQu0brUd0dWU++EgjmgFXwJ&#xA;cQD1Fe/3Yq7FXMqsCGAIPUHFWmVWUqwDKdiDuDireKuxVLdf0Cx12ySyvmk+qrNFPJFG/AS+i3NU&#xA;kpuU5AEgeGShMxNhjKNou6srW6tri2njDQ3aNFcAVUurLwILLRvs7VrgBpJCpBBDbwxwQRrFDEoS&#xA;KJAFVVUUVVA2AAwEpXKiKWKqAWNWIFKnpU4q2qqqhVACgUAGwAGKtcE+L4R8WzbdfnirmRWUowBQ&#xA;ihUjYjwpireKvz9zoHUuxV2KuxV2KuxV91eTP+UP0L/tn2v/ACYTNFk+o+92kOQY9+Y2ta9b6p5f&#xA;0XSZ3tf0s9yZ54XgilP1eNWSKOS5WWNWdnr9gkhSBlmGIok9GGSRsAJdZf461O/03SNQ1yXTNQTS&#xA;bi4uZLAWsiSXEV0IYnfnFKv2CC6px3qNskeAAkCxaBxHa+iI1WbUfMv5NW+rsA2sLY22rxMgpW6t&#xA;AtzVQOnNoyKe+CNRy10ulNyhfViN359uotY1vzTp1BpPmGzk0vRioo8mo2UKGBmPT4pLiWNf9T5Z&#xA;cMWwieY3PuazPckdUaX87WGo3Hlny3dCBPKlpp0VvbmS1ign5RLJPLcCZHldJN0qhXia98j6SOKX&#xA;8VsvUDQ6K19qOs+X7Hz5q9nrFzLd2+qxWsMFybdoIFu0sgLkgxqQY1kZUqeFBupNTiAJGII6frUk&#xA;izfX9Stc3fn+ztbayvNVmgi1DWrC2s7wPZz3i2l1G4mVmjh9H7aco2Mf6sAEDuByBTcu/qr3N756&#xA;/Ruo2ttqNzepomsS297cwfU4dRksVs4rhOBmjFsXR5xy+AFlG2+ACFjbmPOrtSZV7iitF1u78y69&#xA;DaWuvXdjpVnpWn39sAtst3ffWfU5yzmSJxxURAOI1Ucm69MEo8Iut7PwSJcR59Ev8sPrOlW+j6jB&#xA;q072Oo+YNRsbnSJUgNuscl5efFGwjEysHj51Mh8OmSnRsVyiP0IjYo31Qtv501sSy3NhqGp3el6j&#xA;pmq3NpdalHYIhltEDxTWi24WUKKkESoAdsJxjqBYI5WjjP3pz5R1XzFD5g0Cyn1mTWINZ0dtS1C3&#xA;uFgElrIohKuphjiIjkaYqoavTIZIxomqo0ygTY3uw9HzGbnYq7FXYq7FXYq7FXYq7FXYq7FXYq7F&#xA;Xl3/AFjn/wB+/wD8kMyv339Jo/d+Tv8ArHP/AL9//khj++/pL+78nf8AWOf/AH7/APyQx/ff0l/d&#xA;+Tv+sc/+/f8A+SGP77+kv7vyd/1jn/37/wDyQx/ff0l/d+Tv+sc/+/f/AOSGP77+kv7vyelaf9S+&#xA;oW31Dh9R9JPqvpU9P0uI4cKbceNKZjG73bgl/mn/AAp+im/xR9S/Rld/0h6fpc6GlPV25UrSm+Sh&#xA;xX6eaJVW63Qv8H+nafoP6hx+rH6l9U9Kv1X1Pi9Phv6fq9abcuu+MuLraxrojtO/RH6Lg/Rv1f8A&#xA;RXpD6t9W4fV/Rp8Pp8Pg4U6U2yJu9+aRVbJTH/yr/wDQ+l+l+if0N9aX9C8fq31X65zfh9Vp+79b&#xA;nzpw+KtffJ+uzzvqx9NdKUvNP/KuPr9p/ij9FfX6r9T+v+h63U8ePqfFx5fRXDDjr02suHrS+4/5&#xA;V9/iO8+sfo3/ABB9V/0/1PR+sfVaL/fV34U4/a7U7YBx8PWl9N+aF0D/AJVX9XH6D/Q3ofXI+P1b&#xA;6tx+u/F6PHj/ALt+16dN+vHJT8TraI8HSl3mT/lWHpt/iL9Een9c/e/W/Qp9c9JK+py/3Z6PCvLf&#xA;jxrtTBDxP4bWXD1pfr3/ACrT1NJ/Tf6J9T4P0L9Z9DlxqOH1fl+x9n7Pw9MY8e9X5plw7XSaR/4X&#xA;+rWvp/Uvq31t/qXH0vT+u85PU9Km3rep6nLj8XLl3rkfV5p2Yfqf/Krv0b5k/QP6H/Tv1C99f6n9&#xA;X+s19B/U+x8f+tT6ctj4li7qw1nho1Vo78qf8Ef4as/8O/o/679Utv0r9S9L1vV9MV9fh8deXL7W&#xA;DPxcXqtOLhrZm2UNrsVdirsVdirsVdirsVdirsVdirsVdir/AP/Z</xmpGImg:image>
                  </rdf:Description>
               </rdf:li>
            </rdf:Alt>
         </xmp:Thumbnails>
         <xmpMM:InstanceID>xmp.iid:af142ee2-2fd2-49ea-abf2-c2bb08f45187</xmpMM:InstanceID>
         <xmpMM:DocumentID>xmp.did:af142ee2-2fd2-49ea-abf2-c2bb08f45187</xmpMM:DocumentID>
         <xmpMM:OriginalDocumentID>uuid:5D20892493BFDB11914A8590D31508C8</xmpMM:OriginalDocumentID>
         <xmpMM:RenditionClass>default</xmpMM:RenditionClass>
         <xmpMM:VersionID>1</xmpMM:VersionID>
         <xmpMM:DerivedFrom>
            <rdf:Description>
               <stRef:instanceID>uuid:b165e948-2f34-d643-963b-da489b8e1efb</stRef:instanceID>
               <stRef:documentID>xmp.did:4e011581-dd41-4968-a413-01ac6d49873a</stRef:documentID>
               <stRef:originalDocumentID>uuid:5D20892493BFDB11914A8590D31508C8</stRef:originalDocumentID>
               <stRef:versionID>1</stRef:versionID>
               <stRef:renditionClass>default</stRef:renditionClass>
            </rdf:Description>
         </xmpMM:DerivedFrom>
         <xmpMM:History>
            <rdf:Seq>
               <rdf:li>
                  <rdf:Description>
                     <stEvt:action>saved</stEvt:action>
                     <stEvt:instanceID>xmp.iid:01f49444-900c-48d5-a5b9-561f78779e55</stEvt:instanceID>
                     <stEvt:when>2023-10-25T11:53:17+02:00</stEvt:when>
                     <stEvt:softwareAgent>Adobe Illustrator 27.9 (Macintosh)</stEvt:softwareAgent>
                     <stEvt:changed>/</stEvt:changed>
                  </rdf:Description>
               </rdf:li>
               <rdf:li>
                  <rdf:Description>
                     <stEvt:action>saved</stEvt:action>
                     <stEvt:instanceID>xmp.iid:af142ee2-2fd2-49ea-abf2-c2bb08f45187</stEvt:instanceID>
                     <stEvt:when>2024-08-01T09:18:03+02:00</stEvt:when>
                     <stEvt:softwareAgent>Adobe Illustrator 28.6 (Macintosh)</stEvt:softwareAgent>
                     <stEvt:changed>/</stEvt:changed>
                  </rdf:Description>
               </rdf:li>
            </rdf:Seq>
         </xmpMM:History>
         <illustrator:StartupProfile>Print</illustrator:StartupProfile>
         <illustrator:CreatorSubTool>Adobe Illustrator</illustrator:CreatorSubTool>
         <xmpTPg:HasVisibleOverprint>False</xmpTPg:HasVisibleOverprint>
         <xmpTPg:HasVisibleTransparency>False</xmpTPg:HasVisibleTransparency>
         <xmpTPg:NPages>1</xmpTPg:NPages>
         <xmpTPg:MaxPageSize>
            <rdf:Description>
               <stDim:w>229.305556</stDim:w>
               <stDim:h>52.916667</stDim:h>
               <stDim:unit>Millimeters</stDim:unit>
            </rdf:Description>
         </xmpTPg:MaxPageSize>
         <xmpTPg:PlateNames>
            <rdf:Seq>
               <rdf:li>Cyan</rdf:li>
               <rdf:li>Magenta</rdf:li>
               <rdf:li>Yellow</rdf:li>
               <rdf:li>Black</rdf:li>
            </rdf:Seq>
         </xmpTPg:PlateNames>
         <xmpTPg:SwatchGroups>
            <rdf:Seq>
               <rdf:li>
                  <rdf:Description>
                     <xmpG:groupName>Standaardstaalgroep</xmpG:groupName>
                     <xmpG:groupType>0</xmpG:groupType>
                     <xmpG:Colorants>
                        <rdf:Seq>
                           <rdf:li>
                              <rdf:Description>
                                 <xmpG:swatchName>Wit</xmpG:swatchName>
                                 <xmpG:mode>RGB</xmpG:mode>
                                 <xmpG:type>PROCESS</xmpG:type>
                                 <xmpG:red>255</xmpG:red>
                                 <xmpG:green>255</xmpG:green>
                                 <xmpG:blue>255</xmpG:blue>
                              </rdf:Description>
                           </rdf:li>
                           <rdf:li>
                              <rdf:Description>
                                 <xmpG:swatchName>Zwart</xmpG:swatchName>
                                 <xmpG:mode>RGB</xmpG:mode>
                                 <xmpG:type>PROCESS</xmpG:type>
                                 <xmpG:red>30</xmpG:red>
                                 <xmpG:green>30</xmpG:green>
                                 <xmpG:blue>28</xmpG:blue>
                              </rdf:Description>
                           </rdf:li>
                           <rdf:li>
                              <rdf:Description>
                                 <xmpG:swatchName>R=21 G=66 B=115</xmpG:swatchName>
                                 <xmpG:type>PROCESS</xmpG:type>
                                 <xmpG:tint>100.000000</xmpG:tint>
                                 <xmpG:mode>RGB</xmpG:mode>
                                 <xmpG:red>21</xmpG:red>
                                 <xmpG:green>66</xmpG:green>
                                 <xmpG:blue>115</xmpG:blue>
                              </rdf:Description>
                           </rdf:li>
                        </rdf:Seq>
                     </xmpG:Colorants>
                  </rdf:Description>
               </rdf:li>
               <rdf:li>
                  <rdf:Description>
                     <xmpG:groupName>Grijswaarden</xmpG:groupName>
                     <xmpG:groupType>1</xmpG:groupType>
                     <xmpG:Colorants>
                        <rdf:Seq>
                           <rdf:li>
                              <rdf:Description>
                                 <xmpG:swatchName>C=0 M=0 Y=0 K=100</xmpG:swatchName>
                                 <xmpG:mode>RGB</xmpG:mode>
                                 <xmpG:type>PROCESS</xmpG:type>
                                 <xmpG:red>30</xmpG:red>
                                 <xmpG:green>30</xmpG:green>
                                 <xmpG:blue>28</xmpG:blue>
                              </rdf:Description>
                           </rdf:li>
                        </rdf:Seq>
                     </xmpG:Colorants>
                  </rdf:Description>
               </rdf:li>
            </rdf:Seq>
         </xmpTPg:SwatchGroups>
         <pdf:Producer>Adobe PDF library 17.00</pdf:Producer>
         <pdf:Trapped>False</pdf:Trapped>
         <pdfxid:GTS_PDFXVersion>PDF/X-1:2001</pdfxid:GTS_PDFXVersion>
         <pdfx:GTS_PDFXVersion>PDF/X-1:2001</pdfx:GTS_PDFXVersion>
         <pdfx:GTS_PDFXConformance>PDF/X-1a:2001</pdfx:GTS_PDFXConformance>
      </rdf:Description>
   </rdf:RDF>
</x:xmpmeta>
                                                                                                    
                                                                                                    
                                                                                                    
                                                                                                    
                                                                                                    
                                                                                                    
                                                                                                    
                                                                                                    
                                                                                                    
                                                                                                    
                                                                                                    
                                                                                                    
                                                                                                    
                                                                                                    
                                                                                                    
                                                                                                    
                                                                                                    
                                                                                                    
                                                                                                    
                                                                                                    
                                                                                                    
                                                                                          
<?xpacket end="w"?>
  </metadata>
</svg>