<?xml version="1.0" encoding="UTF-8"?>
<svg xmlns="http://www.w3.org/2000/svg" width="126.9999981mm" height="45.8611104mm" version="1.1" viewBox="0 0 360 130">
  <title>LOGO_ORG_NL_RGB_COMPACT_BLAUW</title>
<defs>
    <style>
      .cls-1 {
        fill: #fff;
      }

      .cls-2 {
        fill: #154273;
      }
    </style>
  </defs>
  <!-- Generator: Adobe Illustrator 28.6.0, SVG Export Plug-In . SVG Version: 1.2.0 Build 709)  -->
  <g>
    <g id="Beeldmerk">
      <g>
        <rect class="cls-2" x="160" width="40" height="80"/>
        <path class="cls-1" d="M180.7199997,61.8880005h-.6960007v-1.9280029h.6960007v1.9280029ZM183.8639999,53.376001h-.6960007v-1.9280029h.6960007v1.9280029ZM170.968,50.0480011c-.0559998,0-.4159996,0-.4159996.0720001s.168.0399994.4160004.0799988c.5599998.0959991.7760002.376001,1.168.376001.3519997,0,.7200005-.2399994.5760002-.7519989-.0239998-.0880005-.0720001-.0640015-.0879997-.0079987-.0559998.2320007-.3360001.3600006-.632.3600006-.3680016-.0000031-.4400017-.1280029-1.0240013-.1280029ZM167.1360001,51.976001c.0639999.0880005.7199997.9359985-.2879997,1.2640015-.0480003.0159973-.0559998.0559998.0080002.0880005.7440002.3119995,1.1040001-.2640015,1.1040001-.2640015.3759995.8640015-.2000008,1.3359985-.2000008,1.3359985.0800003.152002.4400002.4159973.9760002.5359985.2080002-.1119995.4959999-.3200012.6160004-.6400024,0,0,.1440002.376001.0160004.7359985,1.5199997.1359985,2.0559998-1.0799988,3.232-.8559998.032.0080017.0480003-.0159973.0480003-.047998,0-.752002-.4559998-2.1200012-1.9120003-2.4-1.4480003-.2799988-1.0559998-.8720001-1.0559998-.8720001.6080002-.023999.9599998.2399994.9599998.2399994.1120003-.1839996-.0480003-.376001-.0480003-.376001.0559998-.0720001.0879997-.3200012.0879997-.3200012-.6879997,0-.8639999-.1519989-.8639999-.1519989-.1040001-.4079987.1760002-.9839996,1.2-.3679993.2559998-.223999.232-.576001.232-.576001.0800003-.0399994.1279999-.1600006.1279999-.2079987,0-.1679993-.8159996-.623999-1.0239998-.6799988-.0480003-.2480011-.368-.6-1.3279999-.4720001-.4559998.0559998-.7839996-.0640015-.632-.3279999.0239998-.0480011-.0559998-.0559998-.0959999-.0079987-.1040001.1040009-.2480003.4.1440002.6.4400002.223999.4639999.6640015.4720001.7279999.0080002.0959991-.1040001.1040009-.1279999.0079987-.2-.7440002-1.2239998-.9040009-1.8239998-.5119995.032.4.4639999.6640015.6959999.6640015.1360001,0,.3199997-.1359985.3199997-.3200012,0-.0880005.0480003-.0799988.0720001-.0079987.0959999.2640015-.2959999.8160004-.8720001.4799988-.5919998.5920013-.3519997,1.3279999-.2959999,1.5920013.1040001.4800018-.1279999.9519989-.568.7360016-.0240002-.0080017-.048-.0159973-.048.0320007.007999.2880005.3999989.6320007.871999.3679993ZM170.4,48.9920013c-.2800003.3119995-.7279999.2399994-.8400002-.2720001.5760002-.0320007.8160004.023999.8400002.2720001ZM188.0559998,50.176001c-.2959991,0-.576001-.1279999-.6320007-.3600006-.0160004-.0559998-.0640015-.0799988-.0880005.0079987-.1440002.5119995.223999.7519989.576001.7519989.3920013,0,.6079987-.2799988,1.1679993-.376001.2480011-.0399994.4160004,0,.4160004-.0799988,0-.0720001-.3600006-.0720001-.4160004-.0720001-.5759979.0000031-.6559998.1280029-1.023999.1280029ZM193.7839996,51.5919983c0-.047998-.023999-.0400024-.0480011-.0320007-.4399994.2159973-.6720001-.247998-.5679993-.7359985.0559998-.2720001.2959991-1-.2959991-1.5920013-.5839996.3359985-.976001-.2160004-.8720001-.4799988.023999-.0720001.0720001-.0799988.0720001.0079987,0,.1839996.1839996.3200012.3200012.3200012.2320007,0,.6640015-.2640015.6959991-.6640015-.6-.3920013-1.623999-.2320007-1.823999.5119995-.023999.0959991-.1359985.0880005-.1279999-.0079987,0-.0640015.0320007-.5040009.4720001-.7279999.4-.2.2559998-.4959991.1440002-.6-.0399994-.0399994-.1279999-.0320007-.0959991.0079987.1519989.2640015-.176001.3839996-.623999.3279999-.9600006-.1279999-1.2720001.2320007-1.3279999.4720001-.2079987.0559998-1.023999.5119995-1.023999.6799988,0,.0480011.0480011.176001.1279999.2079987,0,0-.0160004.3440002.2320007.576001,1.0160004-.6160004,1.3040009-.0399994,1.2.3679993,0,0-.1839996.1440002-.8720001.1519989,0,0,.0320007.2480011.0880005.3200012,0,0-.1600006.2-.0480011.376001,0,0,.3519989-.2640015.9600006-.2399994,0,0,.3920013.5919983-1.0559998.8719971-1.4480011.2799988-1.9119995,1.647998-1.9119995,2.4,0,.0400024.0160004.0559998.0480011.047998,1.176001-.2159973,1.7119995,1,3.2320007.8559998-.1359985-.3599976.0160004-.7359985.0160004-.7359985.1200012.3200012.4079987.5359985.6160004.6400024.5440002-.1200012.8959991-.376001.976001-.5359985,0,0-.576001-.4719971-.2-1.3359985,0,0,.3600006.576001,1.1040009.2640015.0640015-.0320007.0480011-.0719971.0079987-.0880005-1.0079987-.3280029-.3519989-1.176001-.2880005-1.2640015.471991.2800049.871991-.0639954.871991-.3679993ZM190.4880005,48.7200012c-.1119995.5119995-.5600006.5839996-.8399994.2720001.023999-.2480011.2720001-.3040009.8399994-.2720001ZM179.7600006,40.1679993c0,.1279999.0559998.2399994.0960007.3040009.0880005.1279999.0720001.2.0320007.2399994s-.1119995.0559998-.2399994-.0320007c-.0639999-.0480011-.1759995-.0959991-.3039993-.0959991-.2160004,0-.3279999.1440002-.3279999.2640015s.1119995.2640015.3279999.2640015c.1279999,0,.2399994-.0559998.3039993-.0959991.1279999-.0880005.2-.0720001.2399994-.0320007s-.0160004.4799988-.0720001.8320007c-.3600006.0799988-.5360001.3679993-.5360001.5359985,0,.4399994.4639999.6880005.7440002.8399994.2720001-.1440002.7440002-.4.7440002-.8399994,0-.1679993-.1759995-.4640015-.5360001-.5359985-.0479996-.3440002-.1119995-.7920013-.0720001-.8320007s.1119995-.0559998.2399994.0320007c.0639999.0480011.1759995.0959991.3039993.0959991.2160004,0,.3279999-.1440002.3279999-.2640015s-.1119995-.2640015-.3279999-.2640015c-.1279999,0-.2399994.0559998-.3039993.0959991-.1279999.0880005-.2.0720001-.2399994.0320007s-.0559998-.1119995.0320007-.2399994c.0479996-.0640015.0960007-.176001.0960007-.3040009,0-.2160004-.1440002-.3279999-.2639999-.3279999-.1200043,0-.264003.1119995-.264003.3279999ZM180.0240005,43.4160004c-.2960007,0-.5360001.2399994-.5360001.5359985s.2399994.5359985.5360001.5359985.5360001-.2399994.5360001-.5359985-.2400009-.5359985-.5360001-.5359985ZM180.0240005,48.5440002c2.1360001,0,3.3360001.4079987,3.3360001.4079987.0080002-1.0799988.0080002-1.6799988.6240005-1.5920013-.3360001-.9040009,1.1199997-1.2640015,1.1199997-2.4399994,0-.776001-.5520004-.8640015-.7119995-.8640015-.4800003,0-.4080002.3119995-.8160004.3119995-.0479996,0-.1039993-.0160004-.1039993.023999,0,.1359985.1119995.3679993.3039993.3679993.2559998,0,.2559998-.2559998.4479996-.2559998.0800003,0,.2.0640015.2.3279999,0,.5040009-.3279999,1.0559998-.7199997,1.4880005-.0880005-.1200012-.2080002-.2-.3600006-.2-.2320007,0-.4320007.2399994-.4320007.5359985,0,.1119995.0160004.1920013.0559998.2799988-.1279999.0720001-.2479996.1119995-.3279999.1119995-.1759995,0-.4399994-.0720001-.4399994-.4559998,0-.8559998,1.1440002-1.6079987,1.1440002-2.6959991,0-.5200012-.3440002-1.0320007-1.0720001-1.0320007-.7759995,0-.6320007.7040009-1.3039993.7040009-.0320007,0-.0559998.0079987-.0559998.0399994,0,.0480011.1199997.4399994.4639999.4399994.3679993,0,.4720001-.6399994.8080002-.6399994.1199997,0,.3039993.0720001.3039993.5040009,0,.3359985-.1679993.8880005-.4080002,1.4079987-.0880005-.0880005-.2080002-.1519989-.3360001-.1519989-.2880005,0-.4960007.2799988-.4960007.6079987,0,.2079987.0800003.4160004.2240005.5440002-.1679993.2160004-.3440002.3920013-.5759995.3920013-.4639999,0-.6639999-.2640015-.6639999-.5519989,0-.3119995.5679993-.423999.5679993-.9040009,0-.3279999-.2160004-.5119995-.4160004-.5119995-.2240005,0-.3360001.1440002-.3600006.1440002s-.1360001-.1440002-.3600006-.1440002c-.2080002,0-.4160004.1839996-.4160004.5119995,0,.4799988.5679993.6.5679993.9040009,0,.2880005-.2080002.5519989-.6639999.5519989-.2320007,0-.4080002-.176001-.5759995-.3920013.1440002-.1359985.2240005-.3359985.2240005-.5440002,0-.3359985-.2080002-.6079987-.4960007-.6079987-.1360001,0-.2479996.0640015-.3360001.1519989-.2399994-.5279999-.4080002-1.0720001-.4080002-1.4079987,0-.4320007.1839996-.5040009.3039993-.5040009.3279999,0,.4320007.6399994.8080002.6399994.3440002,0,.4639999-.3920013.4639999-.4399994,0-.023999-.0240005-.0399994-.0559998-.0399994-.6720001,0-.5279999-.7040009-1.3039993-.7040009-.7199997,0-1.0720001.5119995-1.0720001,1.0320007,0,1.0880005,1.1440002,1.8399994,1.1440002,2.6959991,0,.3839996-.2639999.4559998-.4399994.4559998-.0880005,0-.2-.0399994-.3279999-.1119995.0399994-.0959991.0559998-.1679993.0559998-.2799988,0-.2959991-.2-.5359985-.4320007-.5359985-.1440002,0-.2639999.0799988-.3520004.2-.3919998-.4320007-.7199997-.9839996-.7199997-1.4880005,0-.2559998.1199997-.3279999.2-.3279999.1839996,0,.1919998.2559998.4479996.2559998.1919998,0,.3039993-.2320007.3039993-.3679993,0-.0399994-.0559998-.023999-.1039993-.023999-.4080002,0-.3360001-.3119995-.8160004-.3119995-.1600006,0-.7119995.0880005-.7119995.8640015,0,1.1839996,1.4559998,1.5359985,1.1199997,2.4399994.6160004-.0880005.6080002.5119995.6240005,1.5920013-.0079971,0,1.1920029-.4079987,3.3280029-.4079987ZM176.1119995,50.1359985c-.5839996.1279999-1,.2480011-1.1839996.3040009.0080002-.2559998.1039993-.4959991.3360001-.5440002.0320007-.0079987.0399994-.0480011.0080002-.0640015-.5199997-.3440002-.7919998.3119995-.8.3359985-.1839996-.0160004-.4639999.0399994-.4639999.2880005,0,.7440002-1.6959999,1.1519989-2.0879997,1.2160004.6959999.2640015.9840004,1.1440002.9840004,1.1440002.5039993-.5039978,1.0880005-.9440002,1.2240005-.9440002s.1839996.1679993.1919998.2640015c0,.0320007.0320007.0400024.0559998.0159973.2639999-.3919983.1360001-.4799988.1119995-.6-.0160004-.0880005.0080002-.4320007.3919998-.3920013v4.9519989l-.2.0400024c-.0880005.0159973-.8160004-.6-1.6399994-1.176001-.832-.576001-1.2720001-.2320007-2.2160004.2799988-1.2400002.6719971-2.4879997.0640015-2.4879997.0640015-1.0639999.7599976-1.432,2.9679993-1.432,2.9679993-.2160004.0880005-.568.1840027-.8959999.1840027-.816,0-.9599998-.4960022-.9599998-.7840027,0-1.2559998,1.5760002-1.7919983,1.5760002-3.0320007,0-.3039978-.1360001-1.5200012-1.648-1.5200012h-1.352c-.568,0-.7040001-.4080017-.784-.5599976-.032-.0640015-.0879999-.023999-.0639999.023999.04.1039978-.0639999.2640015-.0639999.576001,0,.5039978.2959999.8080017.848.8080017.248,0,.4880001-.0719971.5599998-.1200012.048-.0320007.0799999.0159973.0560001.047998-.2400002.2799988-.2560001.8080017-.1599998.9280029.0240002.0320007.0560001.023999.0560001,0,.1360001-.5280029.632-1.0320007,1.3040001-1.0320007.8239998,0,.816.6960022.816.8640015,0,1.0080017-1.768,1.7440002-1.768,3.1359985,0,1.4080017,1.4880001,1.7039978,2.3439999,1.4880005-.0480003,1.4080017-1.6639999,1.8880005-1.7120003.8799988,0-.047998-.0400002-.0559998-.0639999.0080017-.2.4960022-.1200001.9359985.5040001,1.0719971.0400002.0080017.0240002.0320007-.016.0640015-.6240002.3919983-.2880001,1.9440002-.2560001,2.4.048.6559998-.6080002.576001-.6639999.5599976-.0240002-.0080017-.0560001,0-.0080002.0559998.4639999.5679993,1.0400002.047998,1.0400002.047998.432.1359985.168.5039978-.1279999.6960022-.048.0320007-.0400002.0640015.0080002.0640015.0639999.0080017.7360001.0640015.8560001-.4719971.2960003.352002.7359997.223999.8240002.176001.1279999-.0640015.7599998-.2960022.8160004.4080017,0,.047998.032.0159973.0559998-.0080017.4720001-.6-.032-.9679993-.3199997-1.0080017.0239998-.0320007.4-.352002.7440002.0880005.0239998.0320007.0480003.0400024.0480003-.023999.0400002-.7599976-.5760002-.823999-.9760002-.4960022-.0160004-.0799988-.1519997-.5039978.4480003-.4880005.0160004,0,.0400002-.023999.0160004-.047998-.4639999-.4960022-.8480003-.047998-.9440002.0640015-.2080002.247998-.7279999.1440002-.7760002.1440002.1599998-2.6320007,2.4800003-1.6960022,2.8-2.976001.0160004-.0640015.0480003-.0400024.0480003-.0159973.0879997.3119995.8720001.352002,1.0159996-.2559998.0080002-.0400024,0-.0640015-.0239998-.0400024-.6720001.6719971-2.1840004-1.423999-.1199997-3.1280029,1.7599998-1.447998,3.3360008-.6400024,3.9360008-.1679993.0320007.2080017-.0960007.2799988-.1759995.3039978-.0320007.0080017-.0399994.0320007.0080002.0559998.1679993.0640015.4.0400024.5119995-.1119995.3759995.2640015.0559998.6-.0960007.6880005-.0399994.023999-.0240005.047998.0080002.0559998.3440002.0640015.6320007-.2880005.6479996-.4960022l.0559998.0320007v1.4960022c0,2.1280029,2.4559998,2.423999,5.1520004,4.223999,2.6959991-1.8080017,5.1440002-2.0960022,5.1440002-4.223999v-1.4960022l.0559998-.0320007c.0160004.2.2960007.5599976.6480011.4960022.0320007-.0080017.0480011-.0320007.0079987-.0559998-.1519989-.0960022-.4800003-.423999-.0959991-.6880005.1119995.1599976.3440002.176001.5119995.1119995.0480011-.0159973.0399994-.047998.0079987-.0559998-.0799988-.023999-.2079987-.0960022-.176001-.3039978.6-.4799988,2.176001-1.2880005,3.9360016.1679993,2.0640015,1.7039978.5519989,3.7919983-.1200012,3.1280029-.0320007-.0320007-.0320007,0-.023999.0400024.1440002.6159973.9279999.5679993,1.0160004.2559998.0079987-.023999.0399994-.047998.0480011.0159973.3200012,1.2799988,2.6320007.3440002,2.8,2.976001-.0480011.0080017-.5679993.1039978-.776001-.1440002-.0880005-.1039978-.4720001-.5599976-.9440002-.0640015-.0320007.0320007,0,.047998.0160004.047998.6-.0159973.4720001.4080017.4480011.4880005-.4-.3280029-1.0160004-.2640015-.976001.4960022,0,.0559998.023999.0559998.0480011.023999.3440002-.4400024.7200012-.1200012.7440002-.0880005-.2799988.0400024-.7920013.4080017-.3200012,1.0080017.023999.023999.0480011.0559998.0559998.0080017.0640015-.7039978.6880005-.4799988.8160004-.4080017.0880005.047998.5279999.176001.823999-.176001.1200012.5359985.7920013.4799988.8559998.4719971.0480011,0,.0480011-.0320007.0079987-.0640015-.2880005-.1919983-.5600006-.5599976-.1279999-.6960022,0,0,.576001.5200012,1.0399994-.047998.0399994-.047998.0160004-.0640015-.0079987-.0559998-.0559998.0159973-.7119995.0960022-.6640015-.5599976.0320007-.4559998.3679993-2.0080017-.2559998-2.4-.0399994-.023999-.0559998-.047998-.0160004-.0640015.623999-.1359985.7040009-.576001.5040009-1.0719971-.023999-.0640015-.0640015-.047998-.0640015-.0080017-.0480011,1.0080017-1.6559998.5280029-1.7119995-.8799988.8640015.223999,2.3440002-.0799988,2.3440002-1.4880005,0-1.3840027-1.7679993-2.1280029-1.7679993-3.1359985,0-.1679993-.0079987-.8640015.8160004-.8640015.6720001,0,1.1679993.5039978,1.3040009,1.0320007.0079987.023999.0320007.0320007.0559998,0,.0959991-.1280029.0799988-.647998-.1600006-.9280029-.023999-.023999,0-.0799988.0559998-.047998.0720001.047998.3119995.1200012.5600006.1200012.5519989,0,.8480011-.3039978.8480011-.8080017,0-.3119995-.1119995-.4719971-.0640015-.576001.023999-.047998-.0399994-.0799988-.0640015-.023999-.0799988.1599976-.223999.5599976-.7839996.5599976h-1.3519989c-1.5119995,0-1.6480011,1.223999-1.6480011,1.5200012,0,1.2400024,1.576001,1.776001,1.576001,3.0320007,0,.2960022-.1519989.7840027-.9600006.7840027-.3359985,0-.6880005-.0960022-.8959991-.1840027,0,0-.3600006-2.2-1.4320007-2.9679993,0,0-1.2480011.6080017-2.4880005-.0640015-.9440002-.5119995-1.3920013-.8559998-2.223999-.2799988-.8320007.576001-1.5520004,1.1919983-1.6399994,1.176001l-.2-.0400024v-4.9519989c.3839996-.0399994.4080002.3040009.3919998.3920013-.0240005.1119995-.1440002.2080017.112001.6.023999.0320007.0480011.0159973.0559998-.0159973.0079987-.0960022.0640015-.2640015.1920013-.2640015s.7200012.4400024,1.223999.9440002c0,0,.2880005-.8719971.9839996-1.1440002-.3920013-.0640015-2.0880005-.4720001-2.0880005-1.2160004,0-.2480011-.2799988-.3040009-.4639999-.2880005-.0080002-.023999-.2880005-.6799988-.8-.3359985-.0240005.0160004-.0240005.0559998.0080002.0640015.2320007.0559998.3279999.2880005.3360001.5440002-.4960007-.1519989-2.6-.7440002-5.0960007-.7440002-1.2160004,0-2.3279999.1440002-3.2160004.3040009v1.7119995h-.6960007v-1.576001h-.0000015M171.5040001,67.7200012c-.1840004-.0720032-.3040001-.1919983-.3040001-.4400024v-1.0640015c-.3040001-.1039978-1.1360001-.423999-2.8080002-.423999-1.3839996,0-1.8160004.3119995-1.8400002.423999l-.3679996,2.0240051s.5600002-.5119995,2.5680004-.3840027c2.4160004.152002,4.9199997,1.5840027,4.9199997.0559998v-.8960022c-1.8880005.0080017-2.168.6160034-2.168.7040039ZM186.376001,67.023999v.8960022c0,1.5200012,2.5040009.0960022,4.9200012-.0559998,2.0079987-.1280029,2.5679993.3840027,2.5679993.3840027l-.3679993-2.0320007c-.0160004-.1119995-.4559998-.423999-1.8399994-.423999-1.6639984,0-2.4959991.3200012-2.8079987.423999v1.0640015c0,.2400024-.1200012.3599976-.3040009.4400024.0079956-.0880066-.2720032-.6960083-2.1680023-.6960083ZM180.0240005,66.1039978c3.8960007,0,7.8479996.2,8.3599991.7919983.0399994.047998.0559998,0,.0559998-.0400024v-2.0640015c0-.6-4.0800003-.952002-8.423999-.952002s-8.4239998.352002-8.4239998.952002v2.0640015c0,.0320007.0160004.0799988.0559998.0400024.5359993-.5839966,4.4879997-.7919983,8.3760002-.7919983ZM176.5520004,56.376001l-.3919998-.1039978-.0320007.047998-.4559998-.2h.4080002c.0399994,0,.0399994-.023999.0240005-.0400024-.1839996-.1840027-.3520004-.3440002-.3520004-.3440002,0,0,.1839996.0719971.4479996.1679993.0320007.0080017.0399994-.0080017.0240005-.0320007-.1279999-.1840027-.3039993-.4400024-.3039993-.4400024,0,0,.3679993.247998.4399994.2960022.0240005.0159973.0399994,0,.0320007-.023999-.0960007-.2400024-.2080002-.5200012-.2080002-.5200012l.4.3840027c.0160004.0159973.0399994.0080017.0320007-.0159973-.0399994-.1840027-.1119995-.5200012-.1119995-.5200012l.2960007.4320007c.0160004.023999.0399994.0159973.0399994-.0080017,0-.0880005.0080002-.4719971.0080002-.4719971,0,0,.1279999.2880005.1839996.4320007.0160004.0320007.0320007.0320007.0479996-.0080017.0160004-.047998.1520004-.3679993.1520004-.3679993l.0160004.4960022-.0639999.0159973-.0800003.5919983c.5839996-.1359985,1.3199997-1.1440002,1.8800003-1.1440002.6720001,0,.9119995.7840027,2.1440002.3840027.3119995.4640015.4240005.8640015.5440002,1.4159973.4800003.447998,1.1440002.2960022,1.1440002-.176001,0-.6400024-.6960007-.7599976-.6960007-1.4320007,0-.2960022.2080002-.7280029.7759995-.7280029.3039993,0,.7440002.1280029,1,.1280029.3039993,0,.3679993-.2159973.4-.3119995.0240005-.0640015.1119995-.047998.1039993.0080017-.0080002.0640015.0320007.152002.0320007.2960022,0,.423999-.6160004.4799988-.6880005.423999-.0320007-.023999-.0559998.0080017-.0320007.0320007.0960007.0719971.0720001.3280029-.0399994.4880005-.0160004.0159973-.0320007.0159973-.0320007,0-.0639999-.3039978-.4240005-.6799988-.7360001-.6799988-.1119995,0-.3440002.0640015-.3440002.3359985,0,.376001.7600006.7280029.7600006,1.5119995,0,.8159973-.8080002,1.0159973-1.6240005.8080017.0240005.776001,1.1839996,1.2320007,1.2080002.6799988,0-.0400024.0240005-.0159973.0320007,0,.1679993.2400024.0960007.4159973-.1279999.5119995.2.0880005.2399994.4960022.2960007.7440002.0880005.3679993.4720001.1599976.4960007.152002.0240005-.0159973.0320007,0,.0160004.023999-.1440002.376001-.5360001.2320007-.5360001.2320007-.2.1440002.0399994.2719971.2240005.3280029.0240005.0080017.0240005.023999.0080002.0400024-.1360001.047998-.4240005.1440002-.5679993-.1039978-.1039993.2559998-.3199997.247998-.4.247998-.1520004,0-.2479996.152002-.2160004.3599976,0,.0159973-.0080002.023999-.0240005.0159973-.3520004-.2320007-.1520004-.5119995-.0080002-.5840027-.0240005-.0159973-.2720001-.1200012-.3759995.1679993-.0080002.023999-.0240005.023999-.0320007,0-.1520004-.4159973.1839996-.5359985.4240005-.4320007-.0160004-.0559998-.1440002-.2640015-.4639999-.1919983-.0160004.0080017-.0240005,0-.0160004-.023999.0559998-.1280029.2080002-.3119995.5039993-.1280029.1520004.0960022.4080002-.0400024.4320007-.0559998-.5199997-1.0320007-1.5199997-.1679993-1.7520004-.976001-.0080002-.0159973-.0240005-.0320007-.0399994.0159973-.0559998.1679993-.4960007.1840027-.5759995-.152002-.0080002-.023999,0-.0320007.0240005-.0159973.0639999.0640015.2.1200012.3839996-.1359985.1199997-.176001.1360001-.4080017.1360001-.5599976,0-.623999-.6240005-1.6799988-1.6-1.6799988-.6160004,0-1.2800003.2400024-1.7759995.6l.4559998.1039978c-.0399994.4640015-.4880005.7359985-.8960007.6159973l.0720001-.5280029c-.0720001.023999-.2479996.0880005-.3440002.223999-.0080002.0080017-.0240005.0080017-.0240005-.0080017-.0800003-.3039978.1679993-.4559998.2399994-.4880005q.0080002-.0080017-.0080002-.0080017c-.2240005-.0080017-.3440002.152002-.3839996.2080017-.0080002.0080017-.0160004.0080017-.0160004,0,.0239975-.0639893-.0160034-.2159912.0879974-.3279907ZM177.9199997,59.9599976c-.1759995.2159973-.3279999.0080017-.5600006.0080017-.2160004,0-.2559998.1840027-.2559998.2559998,0,.0159973-.0080002.0159973-.0160004.0080017-.2479996-.3359985.0320007-.5200012.1919998-.5440002-.0240005-.023999-.2639999-.1840027-.4160004.0400024-.0080002.0159973-.0240005.0080017-.0240005-.0080017-.0080002-.4159973.3199997-.447998.5440002-.2640015.0399994-.1599976-.0639999-.2640015-.2399994-.2719971-.0240005,0-.0240005-.0159973-.0160004-.023999.0720001-.0799988.1440002-.1119995.2160004-.1119995.2320007,0,.2639999.2960022.4160004.2960022.2240005,0,.5520004-.3039978.5759995-.3359985-.0080002-.0159973-.2240005-.6080017-.1839996-.9599976,0-.0159973-.0080002-.0159973-.0160004-.0080017-.1119995.0640015-.3839996.0559998-.3839996-.2799988,0-.023999.0080002-.0320007.0240005-.0080017.1199997.1679993.3199997-.023999.4160004-.1359985.1039993-.1200012.6800003-.952002,1.4399994-.952002.1679993,0,.3839996.0960022.5600006.2159973-.2639999.3200012,0,.623999.1919998.5840027.0240005-.0080017.0240005.0159973.0080002.023999-1.0080002.376001-1.4559998.5280029-1.4559998,1.376001,0,.4400024.1520004.6880005.4080002.623999.0160004-.0080017.0240005,0,.0080002.0159973-.0960007.1119995-.2.152002-.2880005.152002-.2080002,0-.2479996-.1119995-.3600006-.1119995-.1119995,0-.4880005.223999-.4880005.4080017,0,.0719971.0479996.1679993.1759995.247998.0080002.0080017,0,.0159973,0,.0159973-.111998-.0000061-.4079987.023999-.4719986-.2560059ZM180.5679993,51.7599976c-.3119995-.0159973-.5199997.047998-.5039993.152002.1520004.1599976.3520004.1440002.5039993-.152002ZM179.4080002,52.5359985c.2240005-.0559998.4639999-.0320007.4960007-.023999s.0320007.0640015-.0080002.0719971c-.4639999.0559998-.4880005.2719971-.7839996.2719971-.1919998,0-.4080002-.2-.3279999-.4880005.0080002-.0400024.0399994-.0400024.0479996,0,.0319992.128009.2159988.2640076.5759995.1680054ZM173.3839996,62.823999c.3039993.3919983.6.023999,1.0080002.023999.2,0,.4399994.0640015.4800003.4640015,0,.023999.0160004.023999.0399994,0,.4399994-.6-.0639999-.9359985-.3520004-.9840027.0639999-.0559998.4880005-.3200012.7679993.0719971.0160004.023999.0479996.0159973.0479996-.0159973,0-.7599976-.5679993-.8159973-.9839996-.4880005-.0800003-.2960022.1440002-.4880005.4320007-.4880005.0320007,0,.0479996-.023999.0320007-.0400024-.5119995-.5440002-.8880005.1440002-.9759995.247998-.2.2719971-.9279999-.2400024-1.2239998-.5440002,0,0,.6400002-.6719971.6400002-1.2880005,0-.0400024-.0080002-.0880005-.0080002-.1119995,0-.0159973.0080002-.023999.0240005-.0159973.0639999.0400024.1520004.0640015.2399994.0640015.1440002,0,.4240005-.047998.4240005-.5679993,0-.0400024-.0160004-.0400024-.0320007-.0159973-.0800003.1119995-.1600006.1359985-.2240005.1359985-.5199997,0-1.6-1.7280029-2.8800003-1.7280029-.3360001,0-.968.2400024-1.2800003.5840027.1519997.0880005.1839996.2799988.168.4159973-.0239998.2159973-.2.3280029-.3760002.376001-.032.0080017-.032.0320007,0,.047998.6480003.247998,1.8160004.6880005,2.0879997.9200012.3120003.2719971.2559998.7840027.0720001,1.4960022-.1760002.6799988-.5519997.5919983-.6959999.5679993-.0239998,0-.0239998.0080017-.0160004.023999.168.2080017.368.2799988.5440002.2799988.3360001,0,.4639999-.2080017.632-.2080017.2879997,0,.9040001.4159973.9040001.7359985,0,.176001-.1360001.3440002-.3199997.4559998-.0080002.0080017-.0080002.023999.0080002.023999.1360008.0240112.7040009.0720093.8160004-.4399902ZM187.4880005,63.2640015c.0160004,0,.023999-.0159973.0079987-.023999-.176001-.1200012-.3200012-.2799988-.3200012-.4559998,0-.3200012.6079987-.7359985.9040009-.7359985.176001,0,.2959991.2080017.6320007.2080017.176001,0,.376001-.0719971.5440002-.2799988.0160004-.0159973.0079987-.0320007-.0160004-.023999-.1359985.023999-.5200012.1119995-.6959991-.5679993-.1839996-.7119995-.2480011-1.223999.0720001-1.4960022.2640015-.2320007,1.4399994-.6719971,2.0880005-.9200012.0320007-.0159973.0320007-.0400024,0-.047998-.176001-.047998-.3519989-.1599976-.376001-.376001-.0160004-.1359985.0160004-.3200012.1679993-.4159973-.3200012-.3440002-.9519989-.5840027-1.2880005-.5840027-1.2799988,0-2.3600006,1.7280029-2.8799988,1.7280029-.0640015,0-.1519989-.023999-.223999-.1359985-.0160004-.023999-.0320007-.023999-.0320007.0159973,0,.5200012.2799988.5679993.423999.5679993.0799988,0,.176001-.023999.2399994-.0640015.0160004-.0080017.023999,0,.023999.0159973,0,.023999-.0079987.0719971-.0079987.1119995,0,.6159973.6399994,1.2880005.6399994,1.2880005-.2880005.3039978-1.0160004.8080017-1.223999.5440002-.0880005-.1119995-.4640015-.7919983-.9759995-.247998-.0160004.023999-.0080002.0400024.0320007.0400024.2880005,0,.512001.1919983.4319992.4880005-.4160004-.3280029-.9839996-.2719971-.9839996.4880005,0,.0320007.0320007.0400024.0479996.0159973.2720001-.3919983.7039993-.1280029.7600006-.0719971-.2880005.0400024-.7839996.3840027-.3520004.9840027.0160004.023999.0320007.023999.0399994,0,.0479996-.3919983.2880005-.4640015.4799988-.4640015.4,0,.6959991.3679993,1.0079987-.023999.1280029.5119873.6960022.4639893.8320038.4399902ZM177.1600006,53.2880005c-.0399994.0559998-.1759995,0-.2240005-.023999-.0080002-.0080017-.0160004,0-.0080002.0080017.0320007.0719971.1600006.2880005.3520004.2880005.0880005,0,.2160004-.047998.2479996-.1119995,0,0,.7520004.247998,1.1199997.3440002-.1440002.1919983-.2320007.423999-.2559998.6719971-.2960007-.1840027-1.4960007-.823999-1.4960007-.823999l-.3679993.5119995c-.0639999.0799988-.3600006-.1359985-.2960007-.2159973l.2800003-.3919983c-.0960007-.0960022-.3199997-.0400024-.3839996-.0159973-.0080002,0-.0160004,0-.0080002-.0159973.0399994-.0799988.1759995-.3119995.5279999-.2080017,0-.2159973-.3199997-.1440002-.4080002-.1200012-.0080002,0-.0160004,0-.0080002-.0080017.0880005-.0960022.3520004-.3039978.6399994-.1280029l.1279999-.176001-.2559998-.2719971.1600006-.223999.1839996.2400024,1.3839996-1.8959991c.0320007-.0480011.3119995-.1279999.4080002-.1519989.0080002.1040009.0240005.3920013-.0080002.4399994l-1.3600006,1.9120026.2880005.0960022-.1600006.223999-.3360001-.1599976-.1439972.2079834ZM182.0160004,52.976001c0,.176001.1039993.4320007.3360001.352002.0080002-.0080017.0240005,0,.0160004.0080017-.0320007.1919983-.3839996.3679993-.5360001.1440002-.1440002.2960022-.1039993.576001.1919998.7359985.0160004.0080017.0160004.0320007,0,.047998-.1839996.1280029-.4639999.1039978-.5919998-.152002-.2479996.1840027-.2160004.5840027-.0639999.7200012,0,0-.6880005.4080017-1.3119995.1200012-.4160004-.2-.7520004-.4559998-1.2880005-.4080017.0720001-.752002.4479996-.9440002,1.1360001-1.0559998.5520004-.0880005.6160004-.3440002.5440002-.5359985-.1839996-.047998-.5279999.1200012-.5279999.1200012-.0639999-.1039978.0240005-.2080017.0240005-.2080017-.0320007-.0400024-.0479996-.176001-.0479996-.176001.3839996,0,.4559998-.0880005.4559998-.0880005.0720001-.4-.3360001-.4400024-.6479996-.223999-.1440002-.1280029-.1199997-.2960022-.1199997-.2960022-.0399994-.023999-.0720001-.0880005-.0720001-.1200012,0-.0960022.4559998-.352002.5759995-.3840027.0320007-.1359985.1919998-.3200012.6800003-.2719971.0559998-.1279999-.0399994-.6-.0960007-.7200012-.0160004-.0399994.0080002-.0559998.0479996-.0320007.1679993.1040009.3360001.5040009.4559998.5119995,0,0,.5440002-.2880005.5679993-.2720001.0240005.0160004.1039993.6240021.1039993.6240021.0720001.0880005.4960007,0,.6800003.0799988.0479996.023999.0479996.0559998,0,.0640015-.1360001.023999-.5759995.2159973-.6479996.3359985.2559998.376001.1360001.9280029.1360001,1.0800049Z"/>
      </g>
    </g>
    <g id="Woordmerk">
      <g>
        <path class="cls-2" d="M210.2255859,51.8408203v-7.8720703h2.1367188l2.4472656,6.4921875h.0722656v-6.4921875h1.2597656v7.8720703h-2.1474609l-2.4365234-6.4921875h-.0712891v6.4921875h-1.2607422Z"/>
        <path class="cls-2" d="M219.3447266,51.9492188c-.6005859,0-1.0644531-.1533203-1.3925781-.4589844-.328125-.3066406-.4912109-.7050781-.4912109-1.1962891,0-.5478516.2177734-.9970703.6533203-1.3476562.4365234-.3505859,1.1220703-.5253906,2.0585938-.5253906h.4140625c.1230469,0,.2539062.0039062.3896484.0117188v-.4433594c0-.3037109-.1005859-.5410156-.2998047-.7138672-.2001953-.171875-.5283203-.2587891-.984375-.2587891-.5683594,0-1.1396484.1201172-1.7158203.3603516l-.1923828-1.1162109c.3603516-.1513672.7060547-.2636719,1.0380859-.3359375s.6943359-.1083984,1.0859375-.1083984c.7919922,0,1.3818359.1796875,1.7705078.5371094.3876953.3564453.5820312.8691406.5820312,1.5351562v3.9521484h-1.2363281v-.3476562c-.2558594.1601562-.5117188.2753906-.7675781.3476562-.2568359.0722656-.5605469.1083984-.9121094.1083984ZM219.7041016,50.8808594c.2480469,0,.4726562-.0263672.6728516-.078125.1992188-.0517578.3994141-.1298828.5996094-.234375v-1.1630859c-.1357422-.0087891-.2617188-.0146484-.3779297-.0185547s-.2539062-.0058594-.4140625-.0058594c-.4882812,0-.8339844.0771484-1.0380859.2314453s-.3056641.3417969-.3056641.5615234c0,.21875.0712891.3916016.2158203.5175781.1435547.1259766.359375.1894531.6474609.1894531Z"/>
        <path class="cls-2" d="M225.7949219,51.9492188c-.3603516,0-.6787109-.0683594-.9541016-.2050781-.2763672-.1367188-.4921875-.3515625-.6484375-.6455078-.15625-.2929688-.2333984-.6728516-.2333984-1.1396484v-3.0146484h-.7080078v-1.0195312h.7080078v-1.0800781l1.3193359-.1201172v1.2001953h1.5126953v1.0195312h-1.5126953v2.8623047c0,.3378906.0820312.5878906.2460938.7490234s.3818359.2412109.6542969.2412109c.1435547,0,.2714844-.0097656.3837891-.0302734.1123047-.0195312.2402344-.0458984.3837891-.078125v1.1162109c-.1835938.0478516-.3652344.0839844-.5458984.1083984-.1796875.0234375-.3818359.0361328-.6054688.0361328Z"/>
        <path class="cls-2" d="M228.6621094,44.953125c-.2402344,0-.4316406-.0683594-.5761719-.2041016-.1435547-.1357422-.2158203-.3203125-.2158203-.5517578,0-.2402344.0722656-.4306641.2158203-.5703125.1445312-.1396484.3359375-.2099609.5761719-.2099609.2558594,0,.4501953.0703125.5820312.2099609s.1982422.3300781.1982422.5703125c0,.2314453-.0664062.4160156-.1982422.5517578s-.3261719.2041016-.5820312.2041016ZM228.0019531,51.8408203v-5.9160156l1.3320312-.0839844v6h-1.3320312Z"/>
        <path class="cls-2" d="M233.3964844,51.9492188c-.5517578,0-1.0341797-.1103516-1.4462891-.3300781-.4121094-.21875-.734375-.5488281-.9658203-.9873047-.2324219-.4394531-.3476562-.9863281-.3476562-1.6416016,0-.6542969.1337891-1.21875.4013672-1.6943359.2685547-.4746094.6259766-.8398438,1.0742188-1.0957031s.9316406-.3837891,1.4521484-.3837891c.5517578,0,1.0341797.1103516,1.4462891.3300781.4111328.2197266.7333984.5488281.9658203.9873047.2314453.4394531.3476562.9863281.3476562,1.6416016,0,.6542969-.1337891,1.2197266-.4023438,1.6943359-.2675781.4755859-.6259766.8408203-1.0732422,1.0957031-.4482422.2558594-.9326172.3837891-1.4521484.3837891ZM233.4804688,50.7724609c.2880859,0,.5419922-.0751953.7617188-.2265625s.3964844-.3710938.5283203-.6582031.1982422-.6416016.1982422-1.0644531c0-.6220703-.1347656-1.0830078-.4023438-1.3818359-.2685547-.2988281-.6298828-.4482422-1.0859375-.4482422-.2802734,0-.5322266.0751953-.7558594.2265625-.2246094.1513672-.4023438.3710938-.5341797.6582031s-.1982422.6416016-.1982422,1.0644531c0,.6220703.1337891,1.0830078.4023438,1.3818359.2675781.2988281.6298828.4482422,1.0859375.4482422Z"/>
        <path class="cls-2" d="M237.6416016,51.8408203v-5.9160156l1.2841797-.0595703v.4199219c.2558594-.1679688.5097656-.2880859.7617188-.3603516s.5341797-.1083984.8466797-.1083984c.6474609,0,1.1494141.1796875,1.5058594.5371094.3554688.3564453.5341797.8808594.5341797,1.5712891v3.9160156h-1.3320312v-3.6787109c0-.3535156-.0947266-.6289062-.2822266-.8261719-.1884766-.1962891-.4619141-.2949219-.8222656-.2949219-.2236328,0-.4199219.015625-.5878906.0478516s-.3603516.0878906-.5761719.1679688v4.5839844h-1.3320312Z"/>
        <path class="cls-2" d="M245.5507812,51.9492188c-.5996094,0-1.0634766-.1533203-1.3916016-.4589844-.328125-.3066406-.4921875-.7050781-.4921875-1.1962891,0-.5478516.2177734-.9970703.6542969-1.3476562.4355469-.3505859,1.1220703-.5253906,2.0576172-.5253906h.4140625c.1240234,0,.2539062.0039062.3896484.0117188v-.4433594c0-.3037109-.0996094-.5410156-.2998047-.7138672-.2001953-.171875-.5273438-.2587891-.9833984-.2587891-.5683594,0-1.140625.1201172-1.7167969.3603516l-.1914062-1.1162109c.359375-.1513672.7060547-.2636719,1.0380859-.3359375s.6933594-.1083984,1.0859375-.1083984c.7919922,0,1.3818359.1796875,1.7695312.5371094.3886719.3564453.5820312.8691406.5820312,1.5351562v3.9521484h-1.2353516v-.3476562c-.2568359.1601562-.5126953.2753906-.7685547.3476562s-.5595703.1083984-.9121094.1083984ZM245.9111328,50.8808594c.2480469,0,.4716797-.0263672.671875-.078125s.4003906-.1298828.5996094-.234375v-1.1630859c-.1357422-.0087891-.2617188-.0146484-.3779297-.0185547-.1152344-.0039062-.2539062-.0058594-.4140625-.0058594-.4873047,0-.8339844.0771484-1.0371094.2314453-.2041016.1542969-.3066406.3417969-.3066406.5615234,0,.21875.0722656.3916016.2158203.5175781.1445312.1259766.3603516.1894531.6484375.1894531Z"/>
        <path class="cls-2" d="M251.4560547,51.9492188c-.6005859,0-1.0644531-.1533203-1.3925781-.4589844-.328125-.3066406-.4912109-.7050781-.4912109-1.1962891,0-.5478516.2177734-.9970703.6533203-1.3476562.4365234-.3505859,1.1220703-.5253906,2.0585938-.5253906h.4140625c.1230469,0,.2539062.0039062.3896484.0117188v-.4433594c0-.3037109-.1005859-.5410156-.2998047-.7138672-.2001953-.171875-.5283203-.2587891-.984375-.2587891-.5683594,0-1.1396484.1201172-1.7158203.3603516l-.1923828-1.1162109c.3603516-.1513672.7060547-.2636719,1.0380859-.3359375s.6943359-.1083984,1.0859375-.1083984c.7919922,0,1.3818359.1796875,1.7705078.5371094.3876953.3564453.5820312.8691406.5820312,1.5351562v3.9521484h-1.2363281v-.3476562c-.2558594.1601562-.5117188.2753906-.7675781.3476562-.2568359.0722656-.5605469.1083984-.9121094.1083984ZM251.8154297,50.8808594c.2480469,0,.4726562-.0263672.6728516-.078125.1992188-.0517578.3994141-.1298828.5996094-.234375v-1.1630859c-.1357422-.0087891-.2617188-.0146484-.3779297-.0185547s-.2539062-.0058594-.4140625-.0058594c-.4882812,0-.8339844.0771484-1.0380859.2314453s-.3056641.3417969-.3056641.5615234c0,.21875.0712891.3916016.2158203.5175781.1435547.1259766.359375.1894531.6474609.1894531Z"/>
        <path class="cls-2" d="M255.9375,51.8408203v-8.3398438l1.3320312-.0722656v8.4121094h-1.3320312Z"/>
        <path class="cls-2" d="M260.6894531,51.8408203l2.3515625-7.8720703h2.1367188l2.3154297,7.8720703h-1.5478516l-.5039062-1.7998047h-2.8203125l-.4794922,1.7998047h-1.4521484ZM262.9091797,48.9003906h2.2324219l-1.0566406-3.8154297h-.0957031l-1.0800781,3.8154297Z"/>
        <path class="cls-2" d="M268.53125,51.8408203v-5.9160156l1.3203125-.0595703v.671875c.2080078-.2646484.4121094-.4501953.6123047-.5585938.1992188-.1074219.4072266-.1621094.6240234-.1621094.1435547,0,.265625.0068359.3652344.0185547.1005859.0117188.2099609.0341797.3300781.0654297l-.0957031,1.2841797c-.1279297-.0400391-.2460938-.0654297-.3544922-.078125-.1074219-.0117188-.2255859-.0175781-.3535156-.0175781-.1923828,0-.3740234.0341797-.5458984.1015625-.171875.0683594-.3623047.1826172-.5703125.3427734v4.3076172h-1.3320312Z"/>
        <path class="cls-2" d="M275.0595703,51.9492188c-.5683594,0-1.0664062-.1054688-1.4941406-.3144531s-.7597656-.5351562-.9960938-.9775391-.3535156-1.0019531-.3535156-1.6777344c0-.6679688.1318359-1.2353516.3955078-1.7021484s.6181641-.8271484,1.0625-1.0800781c.4433594-.2539062.9257812-.3808594,1.4453125-.3808594.2402344,0,.4521484.0107422.6367188.0302734.1835938.0205078.3837891.0585938.5996094.1142578l-.1201172,1.1875c-.1914062-.0478516-.3681641-.0820312-.5283203-.1015625s-.3398438-.0302734-.5400391-.0302734c-.3037109,0-.5751953.0751953-.8154297.2246094s-.4306641.3632812-.5703125.6416016c-.1396484.2792969-.2099609.6162109-.2099609,1.0117188,0,.4365234.0703125.7919922.2099609,1.0664062s.3339844.4765625.5820312.6064453c.2480469.1289062.5283203.1933594.8398438.1933594.2080078,0,.40625-.0136719.5947266-.0419922.1875-.0283203.3691406-.0664062.5458984-.1142578v1.1767578c-.1923828.0478516-.3886719.0878906-.5878906.1191406-.2001953.0322266-.4326172.0488281-.6962891.0488281Z"/>
        <path class="cls-2" d="M277.453125,51.8408203v-8.3398438l1.3320312-.0722656v2.8320312c.2480469-.1513672.4921875-.2636719.7324219-.3359375.2392578-.0722656.5195312-.1083984.8398438-.1083984.6396484,0,1.1376953.1796875,1.4941406.5371094.3554688.3564453.5341797.8808594.5341797,1.5712891v3.9160156h-1.3320312v-3.6787109c0-.3535156-.0947266-.6289062-.2822266-.8261719-.1884766-.1962891-.4619141-.2949219-.8222656-.2949219-.2236328,0-.4199219.015625-.5878906.0478516s-.3603516.0878906-.5761719.1679688v4.5839844h-1.3320312Z"/>
        <path class="cls-2" d="M284.5859375,44.953125c-.2402344,0-.4316406-.0683594-.5761719-.2041016-.1435547-.1357422-.2158203-.3203125-.2158203-.5517578,0-.2402344.0722656-.4306641.2158203-.5703125.1445312-.1396484.3359375-.2099609.5761719-.2099609.2558594,0,.4501953.0703125.5820312.2099609s.1982422.3300781.1982422.5703125c0,.2314453-.0664062.4160156-.1982422.5517578s-.3261719.2041016-.5820312.2041016ZM283.9257812,51.8408203v-5.9160156l1.3320312-.0839844v6h-1.3320312Z"/>
        <path class="cls-2" d="M289.5107422,51.9492188c-.9042969,0-1.6181641-.2490234-2.1425781-.7470703-.5234375-.4980469-.7851562-1.2607422-.7851562-2.2890625,0-.6826172.1152344-1.2529297.3476562-1.7109375.2314453-.4580078.5498047-.8027344.9541016-1.0361328.4033203-.2324219.8496094-.3496094,1.3378906-.3496094s.9082031.0947266,1.2597656.2832031c.3525391.1884766.6220703.4619141.8105469.8193359.1875.3574219.28125.7929688.28125,1.3066406,0,.1767578-.0019531.3466797-.0058594.5117188s-.0136719.3193359-.0292969.4638672h-3.6484375c.0322266.3623047.1220703.6630859.2705078.9003906.1474609.2373047.3496094.4150391.6054688.5322266s.5556641.1748047.9003906.1748047c.3359375,0,.6396484-.0244141.9121094-.0722656.2714844-.0488281.5517578-.125.8398438-.2294922v1.1054688c-.3046875.1123047-.6005859.1962891-.8886719.2529297-.2880859.0556641-.6279297.0839844-1.0195312.0839844ZM287.8789062,48.2285156h2.3876953c0-.4355469-.0996094-.7724609-.2998047-1.0107422s-.4765625-.3574219-.828125-.3574219c-.3203125,0-.5957031.1220703-.828125.3632812-.2324219.2421875-.3759766.5771484-.4316406,1.0048828Z"/>
        <path class="cls-2" d="M293.1044922,51.8408203v-4.8964844h-.7558594v-1.0195312h.7558594v-.4580078c0-.6513672.1835938-1.1533203.5517578-1.5078125.3681641-.3535156.9482422-.5302734,1.7402344-.5302734.1679688,0,.3242188.0097656.4677734.0302734.1445312.0195312.2763672.0419922.3964844.0654297l-.1201172,1.0439453c-.1123047-.0234375-.2265625-.0419922-.3417969-.0537109-.1162109-.0117188-.2382812-.0175781-.3662109-.0175781-.3525391,0-.6064453.0761719-.7617188.2294922-.15625.1533203-.234375.3916016-.234375.7138672v.484375h1.4521484v1.0195312h-1.4404297v4.8964844h-1.34375Z"/>
        <path class="cls-2" d="M210.25,65.9208984l.3720703-7.8720703h1.4394531l2.1005859,5.2080078h.0478516l2.0634766-5.2080078h1.4042969l.3720703,7.8720703h-.9599609l-.2880859-6.9238281h-.0595703l-2.1484375,5.3037109h-.9238281l-2.171875-5.3037109h-.0605469l-.2880859,6.9238281h-.8994141Z"/>
        <path class="cls-2" d="M220.390625,58.6728516c-.1757812,0-.3173828-.0517578-.4257812-.15625-.1083984-.1035156-.1621094-.2431641-.1621094-.4199219,0-.1835938.0537109-.328125.1621094-.4316406.1083984-.1044922.25-.15625.4257812-.15625.1845703,0,.3261719.0517578.4257812.15625.1005859.1035156.1503906.2480469.1503906.4316406,0,.1767578-.0498047.3164062-.1503906.4199219-.0996094.1044922-.2412109.15625-.4257812.15625ZM219.9345703,65.9208984v-5.8681641l.9121094-.0722656v5.9404297h-.9121094Z"/>
        <path class="cls-2" d="M222.6777344,65.9208984v-5.8681641l.8759766-.0722656v.3964844c.2724609-.1601562.5302734-.2714844.7744141-.3359375s.5214844-.0957031.8339844-.0957031c.6640625,0,1.171875.1728516,1.5234375.5185547.3525391.3466797.5283203.8408203.5283203,1.4853516v3.9716797h-.9121094v-3.8789062c0-.3789062-.1123047-.6826172-.3359375-.9130859-.2236328-.2294922-.5478516-.34375-.9716797-.34375-.2636719,0-.5.0214844-.7080078.0654297s-.4404297.1220703-.6962891.234375v4.8359375h-.9121094Z"/>
        <path class="cls-2" d="M229.4384766,58.6728516c-.1757812,0-.3173828-.0517578-.4257812-.15625-.1083984-.1035156-.1621094-.2431641-.1621094-.4199219,0-.1835938.0537109-.328125.1621094-.4316406.1083984-.1044922.25-.15625.4257812-.15625.1845703,0,.3261719.0517578.4257812.15625.1005859.1035156.1503906.2480469.1503906.4316406,0,.1767578-.0498047.3164062-.1503906.4199219-.0996094.1044922-.2412109.15625-.4257812.15625ZM228.9824219,65.9208984v-5.8681641l.9121094-.0722656v5.9404297h-.9121094Z"/>
        <path class="cls-2" d="M232.9042969,66.0292969c-.328125,0-.6220703-.0166016-.8818359-.0488281-.2597656-.03125-.5146484-.0791016-.7617188-.1435547v-.8398438c.2792969.0800781.5556641.1357422.8271484.1679688.2724609.0322266.5605469.0478516.8642578.0478516.4238281,0,.7460938-.0839844.9658203-.2519531.2207031-.1669922.3300781-.3828125.3300781-.6445312,0-.2265625-.0761719-.4121094-.2275391-.5585938-.1523438-.1455078-.4042969-.2666016-.7558594-.3642578l-.6845703-.2060547c-.3916016-.1132812-.6982422-.2958984-.9179688-.546875s-.3300781-.5742188-.3300781-.9716797c0-.3232422.0878906-.6152344.2646484-.8740234.1757812-.2587891.4238281-.4658203.7431641-.6191406.3203125-.1542969.6962891-.2304688,1.1289062-.2304688.2636719,0,.5117188.0097656.7431641.0292969.2324219.0205078.4560547.0546875.6728516.1025391l-.0966797.8037109c-.2402344-.0478516-.4638672-.0800781-.671875-.0957031-.2080078-.0166016-.4404297-.0244141-.6962891-.0244141-.3916016,0-.6914062.078125-.8994141.2333984-.2080078.15625-.3125.3525391-.3125.5898438,0,.21875.0664062.3925781.1982422.5224609s.3417969.234375.6298828.3154297l.6845703.1826172c.4794922.1298828.8359375.3222656,1.0673828.5771484.2324219.2548828.3486328.5683594.3486328.9404297,0,.3730469-.0947266.703125-.2822266.9902344-.1884766.2871094-.4482422.5117188-.7802734.6738281s-.7216797.2431641-1.1699219.2431641Z"/>
        <path class="cls-2" d="M238.3759766,66.0292969c-.2871094,0-.5537109-.0566406-.7978516-.1699219-.2441406-.1123047-.4375-.3037109-.5820312-.5732422-.1435547-.2705078-.2158203-.6386719-.2158203-1.1064453v-3.3828125h-.7080078v-.7441406h.7080078v-1.0322266l.9003906-.1318359v1.1640625h1.5361328v.7441406h-1.5361328v3.3271484c0,.3710938.0859375.6455078.2578125.8232422.171875.1767578.3935547.265625.6660156.265625.1435547,0,.2734375-.0078125.3896484-.0244141.1162109-.015625.25-.0390625.4023438-.0712891v.7792969c-.1845703.0488281-.3544922.0820312-.5097656.1025391-.15625.0195312-.3261719.0302734-.5107422.0302734Z"/>
        <path class="cls-2" d="M242.8759766,66.0292969c-.8076172,0-1.4580078-.2421875-1.9501953-.7246094-.4912109-.4833984-.7373047-1.2470703-.7373047-2.2939453,0-.6757812.109375-1.2412109.3300781-1.6953125.2197266-.4550781.515625-.796875.8876953-1.0263672s.7822266-.34375,1.2294922-.34375c.4726562,0,.8740234.0898438,1.2060547.2705078s.5859375.4462891.7626953.7949219c.1757812.3496094.2636719.78125.2636719,1.2949219v.3554688c0,.125-.0078125.2470703-.0244141.3681641h-3.7431641c0,.5009766.0791016.9121094.2392578,1.2314453s.3818359.5556641.6660156.7099609c.2841797.1533203.6103516.2304688.9785156.2304688.328125,0,.6337891-.0302734.9179688-.0908203.2832031-.0615234.5732422-.15625.8701172-.2851562v.8183594c-.3125.1289062-.6103516.2246094-.8945312.2890625s-.6181641.0966797-1.0019531.0966797ZM241.1357422,62.296875h2.7607422c0-.5234375-.1123047-.9189453-.3359375-1.1845703-.2246094-.2666016-.5488281-.3994141-.9726562-.3994141-.359375,0-.6757812.1386719-.9482422.4169922-.2714844.2783203-.4394531.6669922-.5039062,1.1669922Z"/>
        <path class="cls-2" d="M246.3652344,65.9208984v-5.8681641l.9003906-.0722656v.6845703c.2236328-.2558594.4355469-.4404297.6357422-.5517578.2001953-.1123047.4042969-.1679688.6123047-.1679688.1357422,0,.2519531.0058594.3476562.0175781s.2080078.0341797.3359375.0664062l-.1074219.8994141c-.1279297-.0400391-.2421875-.0654297-.3427734-.078125-.0996094-.0117188-.2099609-.0175781-.3291016-.0175781-.1923828,0-.3769531.0478516-.5527344.1435547-.1757812.0966797-.3720703.2519531-.5878906.46875v4.4755859h-.9121094Z"/>
        <path class="cls-2" d="M250.8232422,58.6728516c-.1757812,0-.3173828-.0517578-.4257812-.15625-.1083984-.1035156-.1621094-.2431641-.1621094-.4199219,0-.1835938.0537109-.328125.1621094-.4316406.1083984-.1044922.25-.15625.4257812-.15625.1845703,0,.3261719.0517578.4257812.15625.1005859.1035156.1503906.2480469.1503906.4316406,0,.1767578-.0498047.3164062-.1503906.4199219-.0996094.1044922-.2412109.15625-.4257812.15625ZM250.3671875,65.9208984v-5.8681641l.9121094-.0722656v5.9404297h-.9121094Z"/>
        <path class="cls-2" d="M255.484375,66.0292969c-.8085938,0-1.4580078-.2421875-1.9501953-.7246094-.4921875-.4833984-.7382812-1.2470703-.7382812-2.2939453,0-.6757812.1103516-1.2412109.3300781-1.6953125.2197266-.4550781.515625-.796875.8876953-1.0263672s.7822266-.34375,1.2304688-.34375c.4716797,0,.8740234.0898438,1.2060547.2705078s.5859375.4462891.7617188.7949219c.1757812.3496094.2636719.78125.2636719,1.2949219v.3554688c0,.125-.0078125.2470703-.0234375.3681641h-3.7441406c0,.5009766.0800781.9121094.2402344,1.2314453s.3818359.5556641.6660156.7099609c.2832031.1533203.609375.2304688.9775391.2304688.328125,0,.6337891-.0302734.9179688-.0908203.2841797-.0615234.5742188-.15625.8701172-.2851562v.8183594c-.3115234.1289062-.6103516.2246094-.8935547.2890625-.2841797.0644531-.6181641.0966797-1.0019531.0966797ZM253.7441406,62.296875h2.7597656c0-.5234375-.1123047-.9189453-.3359375-1.1845703-.2236328-.2666016-.5478516-.3994141-.9716797-.3994141-.3603516,0-.6767578.1386719-.9482422.4169922-.2724609.2783203-.4404297.6669922-.5039062,1.1669922Z"/>
        <path class="cls-2" d="M262.671875,65.9208984l-2.0039062-5.8681641h1.0439453l1.5722656,5.0283203h.0595703l1.5605469-5.0283203h.9355469l-2.0039062,5.8681641h-1.1640625Z"/>
        <path class="cls-2" d="M268.4619141,66.0292969c-.5595703,0-1.0039062-.1484375-1.3320312-.4433594s-.4921875-.6806641-.4921875-1.1582031c0-.5009766.21875-.9238281.6542969-1.2675781.4365234-.34375,1.1025391-.515625,1.9980469-.515625h.4257812c.1240234,0,.2783203.0048828.4619141.0126953v-.6484375c0-.4003906-.109375-.7041016-.3300781-.9121094-.2197266-.2080078-.5576172-.3115234-1.0136719-.3115234-.5517578,0-1.1240234.1279297-1.7158203.3837891l-.1923828-.7675781c.3681641-.1601562.7060547-.2763672,1.0146484-.3486328.3076172-.0722656.6494141-.1074219,1.0253906-.1074219.671875,0,1.1884766.1650391,1.5478516.4941406.3603516.3300781.5400391.796875.5400391,1.4013672v4.0800781h-.8515625v-.3720703c-.2880859.1757812-.5605469.2998047-.8164062.3720703s-.5634766.1083984-.9238281.1083984ZM268.6542969,65.2373047c.2880859,0,.5537109-.0341797.7978516-.1025391.2441406-.0673828.4863281-.1738281.7255859-.3173828v-1.4160156c-.1757812-.0166016-.3300781-.0244141-.4619141-.0244141h-.4501953c-.6074219,0-1.0371094.0976562-1.2890625.2939453-.2529297.1953125-.3789062.4238281-.3789062.6845703,0,.2617188.0888672.4736328.2646484.6367188s.4394531.2451172.7919922.2451172Z"/>
        <path class="cls-2" d="M272.8369141,65.9208984v-5.8681641l.8759766-.0722656v.3964844c.2724609-.1601562.5302734-.2714844.7744141-.3359375s.5214844-.0957031.8339844-.0957031c.6640625,0,1.171875.1728516,1.5234375.5185547.3525391.3466797.5283203.8408203.5283203,1.4853516v3.9716797h-.9121094v-3.8789062c0-.3789062-.1123047-.6826172-.3359375-.9130859-.2236328-.2294922-.5478516-.34375-.9716797-.34375-.2636719,0-.5.0214844-.7080078.0654297s-.4404297.1220703-.6962891.234375v4.8359375h-.9121094Z"/>
        <path class="cls-2" d="M284.6328125,66.0292969c-.6240234,0-1.1816406-.1484375-1.6738281-.4443359s-.8818359-.7382812-1.1699219-1.3261719-.4316406-1.3134766-.4316406-2.1777344c0-.671875.0878906-1.2636719.2636719-1.7763672.1757812-.5117188.421875-.9433594.7382812-1.2958984.3154297-.3515625.6835938-.6181641,1.1035156-.7978516s.8701172-.2705078,1.3496094-.2705078c.6240234,0,1.1826172.1484375,1.6748047.4443359.4912109.2958984.8818359.7363281,1.1699219,1.3203125s.4316406,1.3115234.4316406,2.1835938c0,.671875-.0878906,1.2646484-.2636719,1.7763672-.1767578.5117188-.421875.9443359-.7382812,1.2958984-.3164062.3525391-.6835938.6181641-1.1035156.7978516-.4208984.1796875-.8701172.2705078-1.3505859.2705078ZM284.7167969,65.1767578c.4003906,0,.7822266-.1015625,1.1464844-.3056641.3632812-.2041016.6591797-.5380859.8876953-1.0019531.2275391-.4638672.3417969-1.0839844.3417969-1.8603516,0-.7919922-.1123047-1.421875-.3359375-1.8896484s-.515625-.8056641-.8759766-1.0146484c-.3603516-.2080078-.7441406-.3115234-1.1523438-.3115234-.3994141,0-.78125.1015625-1.1455078.3056641s-.6601562.5361328-.8876953.9960938c-.2285156.4599609-.3427734,1.0820312-.3427734,1.8662109,0,.7919922.1123047,1.421875.3359375,1.8896484.2246094.46875.5166016.8066406.8769531,1.0146484.359375.2080078.7431641.3115234,1.1513672.3115234Z"/>
        <path class="cls-2" d="M289.6914062,65.9208984v-5.8681641l.8759766-.0722656v.3964844c.2724609-.1601562.5302734-.2714844.7744141-.3359375s.5214844-.0957031.8339844-.0957031c.6640625,0,1.171875.1728516,1.5234375.5185547.3525391.3466797.5283203.8408203.5283203,1.4853516v3.9716797h-.9121094v-3.8789062c0-.3789062-.1123047-.6826172-.3359375-.9130859-.2236328-.2294922-.5478516-.34375-.9716797-.34375-.2636719,0-.5.0214844-.7080078.0654297s-.4404297.1220703-.6962891.234375v4.8359375h-.9121094Z"/>
        <path class="cls-2" d="M298.1552734,66.0292969c-.4716797,0-.8935547-.109375-1.265625-.328125s-.6660156-.5419922-.8828125-.9716797c-.2158203-.4287109-.3232422-.9589844-.3232422-1.5908203,0-.6884766.1259766-1.2685547.3779297-1.7421875s.6015625-.8339844,1.0498047-1.0810547.9560547-.3701172,1.5234375-.3701172c.2080078,0,.3945312.0097656.5585938.0292969.1640625.0205078.3095703.0546875.4375.1025391v-2.4960938l.9121094-.0722656v8.4121094h-.8876953v-.3476562c-.2001953.1435547-.4296875.2558594-.6904297.3359375-.2597656.0800781-.5292969.1201172-.8095703.1201172ZM298.359375,65.2011719c.2558594,0,.4814453-.0302734.6777344-.0898438.1962891-.0605469.3945312-.1542969.59375-.2822266v-3.984375c-.1757812-.03125-.3496094-.0556641-.5214844-.0722656-.171875-.015625-.3544922-.0234375-.5458984-.0234375-.3925781,0-.7324219.0888672-1.0205078.2685547-.2880859.1787109-.5117188.4404297-.671875.7861328s-.2402344.7626953-.2402344,1.2509766c0,.7148438.1601562,1.2519531.4804688,1.609375.3193359.3583984.7363281.5371094,1.2480469.5371094Z"/>
        <path class="cls-2" d="M304.7587891,66.0292969c-.8076172,0-1.4580078-.2421875-1.9501953-.7246094-.4912109-.4833984-.7373047-1.2470703-.7373047-2.2939453,0-.6757812.109375-1.2412109.3300781-1.6953125.2197266-.4550781.515625-.796875.8876953-1.0263672s.7822266-.34375,1.2294922-.34375c.4726562,0,.8740234.0898438,1.2060547.2705078s.5859375.4462891.7626953.7949219c.1757812.3496094.2636719.78125.2636719,1.2949219v.3554688c0,.125-.0078125.2470703-.0244141.3681641h-3.7431641c0,.5009766.0791016.9121094.2392578,1.2314453s.3818359.5556641.6660156.7099609c.2841797.1533203.6103516.2304688.9785156.2304688.328125,0,.6337891-.0302734.9179688-.0908203.2832031-.0615234.5732422-.15625.8701172-.2851562v.8183594c-.3125.1289062-.6103516.2246094-.8945312.2890625s-.6181641.0966797-1.0019531.0966797ZM303.0185547,62.296875h2.7607422c0-.5234375-.1123047-.9189453-.3359375-1.1845703-.2246094-.2666016-.5488281-.3994141-.9726562-.3994141-.359375,0-.6757812.1386719-.9482422.4169922-.2714844.2783203-.4394531.6669922-.5039062,1.1669922Z"/>
        <path class="cls-2" d="M308.2480469,65.9208984v-5.8681641l.9003906-.0722656v.6845703c.2236328-.2558594.4355469-.4404297.6357422-.5517578.2001953-.1123047.4042969-.1679688.6123047-.1679688.1357422,0,.2519531.0058594.3476562.0175781s.2080078.0341797.3359375.0664062l-.1074219.8994141c-.1279297-.0400391-.2421875-.0654297-.3427734-.078125-.0996094-.0117188-.2099609-.0175781-.3291016-.0175781-.1923828,0-.3769531.0478516-.5527344.1435547-.1757812.0966797-.3720703.2519531-.5878906.46875v4.4755859h-.9121094Z"/>
        <path class="cls-2" d="M313.7255859,65.9208984l-1.859375-5.8681641h1.0439453l1.4277344,5.0283203h.0605469l1.1640625-3.8525391-.3847656-1.1757812h1.0087891l1.4755859,5.0283203h.0595703l1.4160156-5.0283203h.9365234l-1.8603516,5.8681641h-1.1640625l-1.0673828-3.5517578h-.0605469l-1.0322266,3.5517578h-1.1640625Z"/>
        <path class="cls-2" d="M321.7246094,58.6728516c-.1767578,0-.3183594-.0517578-.4257812-.15625-.1083984-.1035156-.1621094-.2431641-.1621094-.4199219,0-.1835938.0537109-.328125.1621094-.4316406.1074219-.1044922.2490234-.15625.4257812-.15625.1835938,0,.3251953.0517578.4257812.15625.0996094.1035156.1503906.2480469.1503906.4316406,0,.1767578-.0507812.3164062-.1503906.4199219-.1005859.1044922-.2421875.15625-.4257812.15625ZM321.2685547,65.9208984v-5.8681641l.9121094-.0722656v5.9404297h-.9121094Z"/>
        <path class="cls-2" d="M323.2167969,68.2607422l-.1201172-.7802734c.3203125-.0957031.5566406-.2402344.7080078-.4326172.1523438-.1933594.2285156-.4619141.2285156-.8066406v-6.1884766l.9121094-.0722656v6.2587891c0,.4091797-.0761719.7539062-.2285156,1.0351562-.1523438.2802734-.3583984.4990234-.6181641.6552734s-.5537109.2666016-.8818359.3310547ZM324.4892578,58.6728516c-.1767578,0-.3183594-.0517578-.4257812-.15625-.1083984-.1035156-.1621094-.2431641-.1621094-.4199219,0-.1835938.0537109-.328125.1621094-.4316406.1074219-.1044922.2490234-.15625.4257812-.15625.1835938,0,.3251953.0517578.4257812.15625.0996094.1035156.1503906.2480469.1503906.4316406,0,.1767578-.0507812.3164062-.1503906.4199219-.1005859.1044922-.2421875.15625-.4257812.15625Z"/>
        <path class="cls-2" d="M327.9541016,66.0292969c-.328125,0-.6220703-.0166016-.8818359-.0488281-.2597656-.03125-.5146484-.0791016-.7617188-.1435547v-.8398438c.2792969.0800781.5556641.1357422.8271484.1679688.2724609.0322266.5605469.0478516.8642578.0478516.4238281,0,.7460938-.0839844.9658203-.2519531.2207031-.1669922.3300781-.3828125.3300781-.6445312,0-.2265625-.0761719-.4121094-.2275391-.5585938-.1523438-.1455078-.4042969-.2666016-.7558594-.3642578l-.6845703-.2060547c-.3916016-.1132812-.6982422-.2958984-.9179688-.546875s-.3300781-.5742188-.3300781-.9716797c0-.3232422.0878906-.6152344.2646484-.8740234.1757812-.2587891.4238281-.4658203.7431641-.6191406.3203125-.1542969.6962891-.2304688,1.1289062-.2304688.2636719,0,.5117188.0097656.7431641.0292969.2324219.0205078.4560547.0546875.6728516.1025391l-.0966797.8037109c-.2402344-.0478516-.4638672-.0800781-.671875-.0957031-.2080078-.0166016-.4404297-.0244141-.6962891-.0244141-.3916016,0-.6914062.078125-.8994141.2333984-.2080078.15625-.3125.3525391-.3125.5898438,0,.21875.0664062.3925781.1982422.5224609s.3417969.234375.6298828.3154297l.6845703.1826172c.4794922.1298828.8359375.3222656,1.0673828.5771484.2324219.2548828.3486328.5683594.3486328.9404297,0,.3730469-.0947266.703125-.2822266.9902344-.1884766.2871094-.4482422.5117188-.7802734.6738281s-.7216797.2431641-1.1699219.2431641Z"/>
        <path class="cls-2" d="M331.1787109,67.2412109c.1601562-.2480469.2939453-.4863281.4013672-.7138672.1083984-.2285156.2021484-.4541016.2822266-.6787109-.1201172-.0556641-.2158203-.1357422-.2880859-.2392578-.0712891-.1044922-.1074219-.2207031-.1074219-.3486328,0-.2314453.0634766-.4160156.1914062-.5517578s.2998047-.2041016.5166016-.2041016c.2080078,0,.3779297.0703125.5097656.2099609s.1982422.3261719.1982422.5576172c0,.1845703-.0380859.3740234-.1142578.5703125s-.1982422.40625-.3662109.6298828-.4003906.4804688-.6962891.7685547h-.5273438Z"/>
        <path class="cls-2" d="M213.4296875,80.109375c-.6796875,0-1.2919922-.1455078-1.8359375-.4355469s-.9755859-.7216797-1.2958984-1.2939453-.4794922-1.2851562-.4794922-2.1396484c0-.7333984.1054688-1.3662109.3173828-1.8984375.2119141-.53125.5-.96875.8642578-1.3115234.3642578-.3417969.7695312-.5957031,1.2177734-.7617188.4482422-.1650391.9121094-.2480469,1.3925781-.2480469.3193359,0,.5898438.0126953.8095703.0361328.2197266.0244141.4658203.0644531.7382812.1201172l-.1083984.8398438c-.2158203-.0478516-.3984375-.0820312-.5458984-.1015625-.1484375-.0195312-.2919922-.0341797-.4316406-.0419922-.140625-.0078125-.3105469-.0117188-.5107422-.0117188-.34375,0-.6796875.0644531-1.0078125.1933594s-.6240234.3271484-.8876953.59375-.4726562.6035156-.6240234,1.0117188c-.1523438.4072266-.2285156.8857422-.2285156,1.4355469,0,.71875.1240234,1.3115234.3720703,1.7802734s.5800781.8173828.9960938,1.0478516.8759766.3447266,1.3798828.3447266c.2958984,0,.5605469-.0097656.7919922-.0292969.2324219-.0205078.5039062-.0664062.8164062-.1386719v.8164062c-.3037109.0644531-.5761719.1123047-.8164062.1435547-.2392578.0322266-.5478516.0488281-.9238281.0488281Z"/>
        <path class="cls-2" d="M218.3740234,80.109375c-.6640625,0-1.1699219-.171875-1.5185547-.515625-.3476562-.34375-.5214844-.8466797-.5214844-1.5087891v-3.9521484l.9121094-.0722656v3.921875c0,.4130859.109375.7285156.3300781.9472656.2197266.2177734.5371094.3271484.953125.3271484.2880859,0,.5244141-.0234375.7080078-.0722656.1845703-.0478516.4082031-.1230469.6728516-.2275391v-4.8242188l.9111328-.0722656v5.9404297h-.8876953v-.3359375c-.2480469.1523438-.4921875.2636719-.7314453.3359375-.2402344.0722656-.5166016.1083984-.828125.1083984Z"/>
        <path class="cls-2" d="M222.6494141,80.0009766v-8.3398438l.9121094-.0722656v8.4121094h-.9121094Z"/>
        <path class="cls-2" d="M227.1650391,80.109375c-.2880859,0-.5537109-.0566406-.7978516-.1699219-.2441406-.1123047-.4384766-.3037109-.5820312-.5732422-.1445312-.2705078-.2158203-.6386719-.2158203-1.1064453v-3.3828125h-.7080078v-.7441406h.7080078v-1.0322266l.8994141-.1318359v1.1640625h1.5361328v.7441406h-1.5361328v3.3271484c0,.3710938.0859375.6455078.2578125.8232422.171875.1767578.3945312.265625.6660156.265625.1445312,0,.2744141-.0078125.390625-.0244141.1152344-.015625.25-.0390625.4013672-.0712891v.7792969c-.1835938.0488281-.3535156.0820312-.5097656.1025391-.15625.0195312-.3261719.0302734-.5097656.0302734Z"/>
        <path class="cls-2" d="M231.3046875,80.109375c-.6640625,0-1.1699219-.171875-1.5185547-.515625-.3476562-.34375-.5214844-.8466797-.5214844-1.5087891v-3.9521484l.9121094-.0722656v3.921875c0,.4130859.109375.7285156.3300781.9472656.2197266.2177734.5371094.3271484.953125.3271484.2880859,0,.5244141-.0234375.7080078-.0722656.1845703-.0478516.4082031-.1230469.6728516-.2275391v-4.8242188l.9111328-.0722656v5.9404297h-.8876953v-.3359375c-.2480469.1523438-.4921875.2636719-.7314453.3359375-.2402344.0722656-.5166016.1083984-.828125.1083984Z"/>
        <path class="cls-2" d="M237.5722656,80.109375c-.6640625,0-1.1699219-.171875-1.5185547-.515625-.3476562-.34375-.5214844-.8466797-.5214844-1.5087891v-3.9521484l.9121094-.0722656v3.921875c0,.4130859.109375.7285156.3300781.9472656.2197266.2177734.5371094.3271484.953125.3271484.2880859,0,.5244141-.0234375.7080078-.0722656.1845703-.0478516.4082031-.1230469.6728516-.2275391v-4.8242188l.9111328-.0722656v5.9404297h-.8876953v-.3359375c-.2480469.1523438-.4921875.2636719-.7314453.3359375-.2402344.0722656-.5166016.1083984-.828125.1083984Z"/>
        <path class="cls-2" d="M241.8515625,80.0009766v-5.8681641l.8994141-.0722656v.6845703c.2246094-.2558594.4365234-.4404297.6367188-.5517578.1992188-.1123047.4033203-.1679688.6113281-.1679688.1367188,0,.2519531.0058594.3486328.0175781.0957031.0117188.2080078.0341797.3359375.0664062l-.1083984.8994141c-.1279297-.0400391-.2421875-.0654297-.3417969-.078125-.1005859-.0117188-.2099609-.0175781-.3300781-.0175781-.1923828,0-.3759766.0478516-.5517578.1435547-.1757812.0966797-.3720703.2519531-.5878906.46875v4.4755859h-.9121094Z"/>
        <path class="cls-2" d="M250.6230469,80.109375c-.8076172,0-1.4580078-.2421875-1.9501953-.7246094-.4912109-.4833984-.7373047-1.2470703-.7373047-2.2939453,0-.6757812.109375-1.2412109.3300781-1.6953125.2197266-.4550781.515625-.796875.8876953-1.0263672s.7822266-.34375,1.2294922-.34375c.4726562,0,.8740234.0898438,1.2060547.2705078s.5859375.4462891.7626953.7949219c.1757812.3496094.2636719.78125.2636719,1.2949219v.3554688c0,.125-.0078125.2470703-.0244141.3681641h-3.7431641c0,.5009766.0791016.9121094.2392578,1.2314453s.3818359.5556641.6660156.7099609c.2841797.1533203.6103516.2304688.9785156.2304688.328125,0,.6337891-.0302734.9179688-.0908203.2832031-.0615234.5732422-.15625.8701172-.2851562v.8183594c-.3125.1289062-.6103516.2246094-.8945312.2890625s-.6181641.0966797-1.0019531.0966797ZM248.8828125,76.3769531h2.7607422c0-.5234375-.1123047-.9189453-.3359375-1.1845703-.2246094-.2666016-.5488281-.3994141-.9726562-.3994141-.359375,0-.6757812.1386719-.9482422.4169922-.2714844.2783203-.4394531.6669922-.5039062,1.1669922Z"/>
        <path class="cls-2" d="M254.1123047,80.0009766v-5.8681641l.8759766-.0722656v.3964844c.2724609-.1601562.5302734-.2714844.7744141-.3359375s.5214844-.0957031.8339844-.0957031c.6640625,0,1.171875.1728516,1.5234375.5185547.3525391.3466797.5283203.8408203.5283203,1.4853516v3.9716797h-.9121094v-3.8789062c0-.3789062-.1123047-.6826172-.3359375-.9130859-.2236328-.2294922-.5478516-.34375-.9716797-.34375-.2636719,0-.5.0214844-.7080078.0654297s-.4404297.1220703-.6962891.234375v4.8359375h-.9121094Z"/>
        <path class="cls-2" d="M264.3964844,80.0009766l-2.1962891-7.8720703h1.0205078l1.8359375,6.9238281h.0595703l1.65625-4.9082031-.671875-2.015625h1.0078125l2.2324219,6.9238281h.0595703l1.8242188-6.9238281h.9960938l-2.2441406,7.8720703h-1.2597656l-1.4765625-4.5722656h-.0478516l-1.5361328,4.5722656h-1.2597656Z"/>
        <path class="cls-2" d="M275.4169922,80.109375c-.8076172,0-1.4580078-.2421875-1.9501953-.7246094-.4912109-.4833984-.7373047-1.2470703-.7373047-2.2939453,0-.6757812.109375-1.2412109.3300781-1.6953125.2197266-.4550781.515625-.796875.8876953-1.0263672s.7822266-.34375,1.2294922-.34375c.4726562,0,.8740234.0898438,1.2060547.2705078s.5859375.4462891.7626953.7949219c.1757812.3496094.2636719.78125.2636719,1.2949219v.3554688c0,.125-.0078125.2470703-.0244141.3681641h-3.7431641c0,.5009766.0791016.9121094.2392578,1.2314453s.3818359.5556641.6660156.7099609c.2841797.1533203.6103516.2304688.9785156.2304688.328125,0,.6337891-.0302734.9179688-.0908203.2832031-.0615234.5732422-.15625.8701172-.2851562v.8183594c-.3125.1289062-.6103516.2246094-.8945312.2890625s-.6181641.0966797-1.0019531.0966797ZM273.6767578,76.3769531h2.7607422c0-.5234375-.1123047-.9189453-.3359375-1.1845703-.2246094-.2666016-.5488281-.3994141-.9726562-.3994141-.359375,0-.6757812.1386719-.9482422.4169922-.2714844.2783203-.4394531.6669922-.5039062,1.1669922Z"/>
        <path class="cls-2" d="M280.6611328,80.109375c-.2880859,0-.5537109-.0566406-.7978516-.1699219-.2441406-.1123047-.4384766-.3037109-.5820312-.5732422-.1445312-.2705078-.2158203-.6386719-.2158203-1.1064453v-3.3828125h-.7080078v-.7441406h.7080078v-1.0322266l.8994141-.1318359v1.1640625h1.5361328v.7441406h-1.5361328v3.3271484c0,.3710938.0859375.6455078.2578125.8232422.171875.1767578.3945312.265625.6660156.265625.1445312,0,.2744141-.0078125.390625-.0244141.1152344-.015625.25-.0390625.4013672-.0712891v.7792969c-.1835938.0488281-.3535156.0820312-.5097656.1025391-.15625.0195312-.3261719.0302734-.5097656.0302734Z"/>
        <path class="cls-2" d="M285.1611328,80.109375c-.8085938,0-1.4580078-.2421875-1.9501953-.7246094-.4921875-.4833984-.7382812-1.2470703-.7382812-2.2939453,0-.6757812.1103516-1.2412109.3300781-1.6953125.2197266-.4550781.515625-.796875.8876953-1.0263672s.7822266-.34375,1.2304688-.34375c.4716797,0,.8740234.0898438,1.2060547.2705078s.5859375.4462891.7617188.7949219c.1757812.3496094.2636719.78125.2636719,1.2949219v.3554688c0,.125-.0078125.2470703-.0234375.3681641h-3.7441406c0,.5009766.0800781.9121094.2402344,1.2314453s.3818359.5556641.6660156.7099609c.2832031.1533203.609375.2304688.9775391.2304688.328125,0,.6337891-.0302734.9179688-.0908203.2841797-.0615234.5742188-.15625.8701172-.2851562v.8183594c-.3115234.1289062-.6103516.2246094-.8935547.2890625-.2841797.0644531-.6181641.0966797-1.0019531.0966797ZM283.4208984,76.3769531h2.7597656c0-.5234375-.1123047-.9189453-.3359375-1.1845703-.2236328-.2666016-.5478516-.3994141-.9716797-.3994141-.3603516,0-.6767578.1386719-.9482422.4169922-.2724609.2783203-.4404297.6669922-.5039062,1.1669922Z"/>
        <path class="cls-2" d="M288.6503906,80.0009766v-5.8681641l.8759766-.0722656v.3964844c.2714844-.1601562.5292969-.2714844.7734375-.3359375s.5224609-.0957031.8339844-.0957031c.6640625,0,1.171875.1728516,1.5244141.5185547.3515625.3466797.5283203.8408203.5283203,1.4853516v3.9716797h-.9121094v-3.8789062c0-.3789062-.1123047-.6826172-.3359375-.9130859-.2246094-.2294922-.5488281-.34375-.9726562-.34375-.2636719,0-.5.0214844-.7080078.0654297s-.4394531.1220703-.6953125.234375v4.8359375h-.9121094Z"/>
        <path class="cls-2" d="M296.1679688,80.109375c-.328125,0-.6220703-.0166016-.8818359-.0488281-.2597656-.03125-.5146484-.0791016-.7617188-.1435547v-.8398438c.2792969.0800781.5556641.1357422.8271484.1679688.2724609.0322266.5605469.0478516.8642578.0478516.4238281,0,.7460938-.0839844.9658203-.2519531.2207031-.1669922.3300781-.3828125.3300781-.6445312,0-.2265625-.0761719-.4121094-.2275391-.5585938-.1523438-.1455078-.4042969-.2666016-.7558594-.3642578l-.6845703-.2060547c-.3916016-.1132812-.6982422-.2958984-.9179688-.546875s-.3300781-.5742188-.3300781-.9716797c0-.3232422.0878906-.6152344.2646484-.8740234.1757812-.2587891.4238281-.4658203.7431641-.6191406.3203125-.1542969.6962891-.2304688,1.1289062-.2304688.2636719,0,.5117188.0097656.7431641.0292969.2324219.0205078.4560547.0546875.6728516.1025391l-.0966797.8037109c-.2402344-.0478516-.4638672-.0800781-.671875-.0957031-.2080078-.0166016-.4404297-.0244141-.6962891-.0244141-.3916016,0-.6914062.078125-.8994141.2333984-.2080078.15625-.3125.3525391-.3125.5898438,0,.21875.0664062.3925781.1982422.5224609s.3417969.234375.6298828.3154297l.6845703.1826172c.4794922.1298828.8359375.3222656,1.0673828.5771484.2324219.2548828.3486328.5683594.3486328.9404297,0,.3730469-.0947266.703125-.2822266.9902344-.1884766.2871094-.4482422.5117188-.7802734.6738281s-.7216797.2431641-1.1699219.2431641Z"/>
        <path class="cls-2" d="M302.1679688,80.109375c-.5039062,0-.9560547-.1054688-1.3554688-.3154297-.4003906-.2099609-.7158203-.5390625-.9482422-.9873047-.2324219-.4492188-.3476562-1.0244141-.3476562-1.7275391,0-.6542969.1279297-1.2080078.3837891-1.6601562s.5917969-.7978516,1.0078125-1.0361328.8603516-.3574219,1.3320312-.3574219c.2324219,0,.4394531.0097656.6240234.0292969.1835938.0205078.3876953.0625.6123047.1259766l-.1083984.8164062c-.2324219-.0556641-.4296875-.09375-.59375-.1142578-.1640625-.0195312-.3505859-.0302734-.5585938-.0302734-.3193359,0-.6113281.0859375-.8759766.2558594-.2636719.1699219-.4755859.4179688-.6357422.7421875s-.2402344.7216797-.2402344,1.1923828c0,.5273438.0800781.9570312.2402344,1.2890625.1601562.3330078.3779297.5742188.6542969.7236328.2753906.1503906.5820312.2255859.9179688.2255859.2236328,0,.4355469-.0136719.6357422-.0419922s.3916016-.0703125.5761719-.1259766v.8154297c-.2001953.0566406-.4003906.1005859-.5996094.1318359-.2001953.0322266-.4404297.0488281-.7207031.0488281Z"/>
        <path class="cls-2" d="M304.7294922,80.0009766v-8.3398438l.9121094-.0722656v2.84375c.2724609-.1513672.5263672-.2578125.7617188-.3173828.2363281-.0605469.5058594-.0898438.8105469-.0898438.6640625,0,1.171875.1728516,1.5234375.5185547.3525391.3466797.5283203.8408203.5283203,1.4853516v3.9716797h-.9121094v-3.8789062c0-.3789062-.1123047-.6826172-.3359375-.9130859-.2236328-.2294922-.5478516-.34375-.9716797-.34375-.2724609,0-.5097656.0214844-.7138672.0654297s-.4345703.1220703-.6904297.234375v4.8359375h-.9121094Z"/>
        <path class="cls-2" d="M312.4228516,80.109375c-.5595703,0-1.0039062-.1484375-1.3320312-.4433594s-.4921875-.6806641-.4921875-1.1582031c0-.5009766.21875-.9238281.6542969-1.2675781.4365234-.34375,1.1025391-.515625,1.9980469-.515625h.4257812c.1240234,0,.2783203.0048828.4619141.0126953v-.6484375c0-.4003906-.109375-.7041016-.3300781-.9121094-.2197266-.2080078-.5576172-.3115234-1.0136719-.3115234-.5517578,0-1.1240234.1279297-1.7158203.3837891l-.1923828-.7675781c.3681641-.1601562.7060547-.2763672,1.0146484-.3486328.3076172-.0722656.6494141-.1074219,1.0253906-.1074219.671875,0,1.1884766.1650391,1.5478516.4941406.3603516.3300781.5400391.796875.5400391,1.4013672v4.0800781h-.8515625v-.3720703c-.2880859.1757812-.5605469.2998047-.8164062.3720703s-.5634766.1083984-.9238281.1083984ZM312.6152344,79.3173828c.2880859,0,.5537109-.0341797.7978516-.1025391.2441406-.0673828.4863281-.1738281.7255859-.3173828v-1.4160156c-.1757812-.0166016-.3300781-.0244141-.4619141-.0244141h-.4501953c-.6074219,0-1.0371094.0976562-1.2890625.2939453-.2529297.1953125-.3789062.4238281-.3789062.6845703,0,.2617188.0888672.4736328.2646484.6367188s.4394531.2451172.7919922.2451172Z"/>
        <path class="cls-2" d="M316.7978516,82.2929688v-8.1601562l.8759766-.0722656v.3720703c.2402344-.1357422.4863281-.2373047.7382812-.3056641.2519531-.0673828.5341797-.1015625.8457031-.1015625.7207031,0,1.2998047.2382812,1.7402344.7158203s.6601562,1.2109375.6601562,2.1982422c0,.6640625-.1298828,1.2324219-.3896484,1.7060547-.2607422.4736328-.6220703.8359375-1.0859375,1.0869141-.4648438.2509766-1.0048828.3769531-1.6201172.3769531-.1523438,0-.296875-.0068359-.4326172-.0185547s-.2753906-.0341797-.4199219-.0654297v2.2675781h-.9121094ZM318.6943359,79.3046875c.3837891,0,.7275391-.0830078,1.0322266-.25.3037109-.1660156.5439453-.4199219.7197266-.7617188s.2636719-.7685547.2636719-1.28125c0-.7636719-.15625-1.3134766-.4677734-1.6464844-.3125-.3330078-.7324219-.5-1.2597656-.5-.2246094,0-.4345703.0214844-.6298828.0654297-.1962891.0439453-.4101562.1220703-.6425781.234375v4.0439453c.1757812.0322266.3398438.0556641.4921875.0722656.1523438.015625.3164062.0234375.4921875.0234375Z"/>
      </g>
    </g>
  </g>
  <metadata><?xpacket begin="﻿" id="W5M0MpCehiHzreSzNTczkc9d"?>
<x:xmpmeta xmlns:x="adobe:ns:meta/" x:xmptk="XMP Core 6.0.0">
   <rdf:RDF xmlns:rdf="http://www.w3.org/1999/02/22-rdf-syntax-ns#">
      <rdf:Description rdf:about=""
            xmlns:dc="http://purl.org/dc/elements/1.1/"
            xmlns:xmp="http://ns.adobe.com/xap/1.0/"
            xmlns:xmpGImg="http://ns.adobe.com/xap/1.0/g/img/"
            xmlns:xmpMM="http://ns.adobe.com/xap/1.0/mm/"
            xmlns:stRef="http://ns.adobe.com/xap/1.0/sType/ResourceRef#"
            xmlns:stEvt="http://ns.adobe.com/xap/1.0/sType/ResourceEvent#"
            xmlns:illustrator="http://ns.adobe.com/illustrator/1.0/"
            xmlns:xmpTPg="http://ns.adobe.com/xap/1.0/t/pg/"
            xmlns:stDim="http://ns.adobe.com/xap/1.0/sType/Dimensions#"
            xmlns:xmpG="http://ns.adobe.com/xap/1.0/g/"
            xmlns:pdf="http://ns.adobe.com/pdf/1.3/"
            xmlns:pdfxid="http://www.npes.org/pdfx/ns/id/"
            xmlns:pdfx="http://ns.adobe.com/pdfx/1.3/">
         <dc:format>image/svg+xml</dc:format>
         <dc:title>
            <rdf:Alt>
               <rdf:li xml:lang="x-default">LOGO_ORG_NL_RGB_COMPACT_BLAUW</rdf:li>
            </rdf:Alt>
         </dc:title>
         <xmp:MetadataDate>2024-08-01T09:18:35+02:00</xmp:MetadataDate>
         <xmp:ModifyDate>2024-08-01T09:18:35+02:00</xmp:ModifyDate>
         <xmp:CreateDate>2024-08-01T09:18:35+02:00</xmp:CreateDate>
         <xmp:CreatorTool>Adobe Illustrator 28.6 (Macintosh)</xmp:CreatorTool>
         <xmp:Thumbnails>
            <rdf:Alt>
               <rdf:li>
                  <rdf:Description>
                     <xmpGImg:width>256</xmpGImg:width>
                     <xmpGImg:height>124</xmpGImg:height>
                     <xmpGImg:format>JPEG</xmpGImg:format>
                     <xmpGImg:image>/9j/4AAQSkZJRgABAgEASABIAAD/7QAsUGhvdG9zaG9wIDMuMAA4QklNA+0AAAAAABAASAAAAAEA&#xA;AQBIAAAAAQAB/+4ADkFkb2JlAGTAAAAAAf/bAIQABgQEBAUEBgUFBgkGBQYJCwgGBggLDAoKCwoK&#xA;DBAMDAwMDAwQDA4PEA8ODBMTFBQTExwbGxscHx8fHx8fHx8fHwEHBwcNDA0YEBAYGhURFRofHx8f&#xA;Hx8fHx8fHx8fHx8fHx8fHx8fHx8fHx8fHx8fHx8fHx8fHx8fHx8fHx8fHx8f/8AAEQgAfAEAAwER&#xA;AAIRAQMRAf/EAaIAAAAHAQEBAQEAAAAAAAAAAAQFAwIGAQAHCAkKCwEAAgIDAQEBAQEAAAAAAAAA&#xA;AQACAwQFBgcICQoLEAACAQMDAgQCBgcDBAIGAnMBAgMRBAAFIRIxQVEGE2EicYEUMpGhBxWxQiPB&#xA;UtHhMxZi8CRygvElQzRTkqKyY3PCNUQnk6OzNhdUZHTD0uIIJoMJChgZhJRFRqS0VtNVKBry4/PE&#xA;1OT0ZXWFlaW1xdXl9WZ2hpamtsbW5vY3R1dnd4eXp7fH1+f3OEhYaHiImKi4yNjo+Ck5SVlpeYmZ&#xA;qbnJ2en5KjpKWmp6ipqqusra6voRAAICAQIDBQUEBQYECAMDbQEAAhEDBCESMUEFURNhIgZxgZEy&#xA;obHwFMHR4SNCFVJicvEzJDRDghaSUyWiY7LCB3PSNeJEgxdUkwgJChgZJjZFGidkdFU38qOzwygp&#xA;0+PzhJSktMTU5PRldYWVpbXF1eX1RlZmdoaWprbG1ub2R1dnd4eXp7fH1+f3OEhYaHiImKi4yNjo&#xA;+DlJWWl5iZmpucnZ6fkqOkpaanqKmqq6ytrq+v/aAAwDAQACEQMRAD8A5NnQOpdirsVdirsVdirs&#xA;VfTP/OLP/KIat/20D/yYjzWa76h7nN03IvacwnJdirsVdirsVdirsVdirsVdirsVdirsVdirsVdi&#xA;rsVdirsVdirsVdirsVdir8/c6B1LsVdirsVdirsVdir6Z/5xZ/5RDVv+2gf+TEeazXfUPc5um5F7&#xA;TmE5LsVdirsVdirsVdirsVdirsVdirsVdirsVdirsVdirsVdirsVdirsVdirsVfn7nQOpdirsVdi&#xA;rsVdirsVfTP/ADiz/wAohq3/AG0D/wAmI81mu+oe5zdNyL2nMJyXYq7FXYq7FXYq7FXYq7FXYq7F&#xA;XYq7FXYq7FXYq7FXYq7FXYq7FXYq7FXYq/P3OgdS7FXYq7FXYq7FXYq+mf8AnFn/AJRDVv8AtoH/&#xA;AJMR5rNd9Q9zm6bkXtOYTkuxV2KuxV2KuxV2KuxV2KuxV2KuxV2KuxV2KuxV2KuxV2KuxV2KuxV2&#xA;KuxV+fudA6l2KuxV2KuxV2KuxV9M/wDOLP8AyiGrf9tA/wDJiPNZrvqHuc3Tci9pzCcl2KuxV2Ku&#xA;xV2KuxV2KuxV2KuxV2KuxV2KuxV2KuxV2KuxV2KuxV2KuxV2Kvz9zoHUuxV2KuxV2KuxV2Kvpn/n&#xA;Fn/lENW/7aB/5MR5rNd9Q9zm6bkXtOYTkuxV2KuxV2KuxV2KuxV2KuxV2KuxV2KuxV2KuxV2KuxV&#xA;2KuxV2KuxV2KuxV+fudA6l2KuxV2KuxV2KuxV9M/84s/8ohq3/bQP/JiPNZrvqHuc3Tci9pzCcl2&#xA;KuxV2KuxV2KuxV2KuxV2KuxV2KuxV2KuxV2KuxV2KuxV2KuxV2KuxV2Kvz9zoHUuxV2Ksm8u+Uor&#xA;/TdautQ+tWsljp36QsAscYSZfVSPkTNJCSvx0HANWviArVzyURXezjGwWPXVpdWk7W91DJbzpTnF&#xA;KpRxUVFVYA7g5YDbAhSxV2Kvpn/nFn/lENW/7aB/5MR5rNd9Q9zm6bkXtOYTkuxV2KuxV2KuxV2K&#xA;uxV2KuxV2KuxV2KuxV2KuxV2KuxV2KuxV2KuxV2KuxV+fudA6lNtN8peaNTsZb/TtKuruyh3knhh&#xA;d0FK13A3pxNadMickQaJZCJPILvJ+oaRp/mWxu9ZtVvNMRyt1Ayq44uhTnwaqsYy3MA7EjBkBMTX&#xA;NYEA7vp3/lXOr6pZQ3E+oh5X08WsMlvK8MCNHNCbe6t4eDiFmhhVmAP2gANq5rPGAPLq5vhkvMPz&#xA;8Nnpxi0i7SK61l2he0uyOdxBp1qjQRLPcMPUmkuGrI9dgfHrmVpbO45fpaM+23V5Zo3lfzFrazvp&#xA;Gm3F8lsvK4eCNnVBQn4mAoCQDQd8ypTjHmWkRJ5JdNDLDK8MyNFNExSSNwVZWU0KsDuCDkmL6X/5&#xA;xZ/5RDVv+2gf+TEeazXfUPc5um5F7TmE5Lwrzj5q8yaH+bl5qy6jcny5o82mx6lpvqyfV1gvoWje&#xA;X0uXD4GFen2iMz8eOMsdVub+xxZyInfQMm8u+ZfNEMPne5sbaXX7q016WCysproRJHDxT7MkxKJG&#xA;la8RQZVOEfTe2zOMjv13QF9+b/mSfyp5oaDSo9P8xaAIWkCXMV1CIbipE6OFKPxpun49QJDTx4hv&#xA;sUHKaO24bu/Muqaha/l/ceZNKe3vrzVLf6q8N6OMgMCMt1IsUarR2c/uj0p1ocRADi4T07lMieGw&#xA;jtW/OTVIJtWvNK8sy6l5b0G5a01TVhcxxMHjIEpihIJcJXrXceGRjpxsCakUnMd6GwVtU/NPXpPM&#xA;UOkeVfL6659Y0mLWYpGultm9CVgB8LqQdmUUBrU4I4Bw3I1vSTlN0Beyrbfmhrmr+TrHzB5d8vC7&#xA;kuJZYb63ubyK1S1MJoS0kgUOG7dMTgAkRIqMpIsBvS/zN13WPJsmsaT5fW41e1v307UNOe8iiihe&#xA;JeTy/WHARlFV6ePU0wSwgSonalGQkWAxTzp+YF35m/KPzelzZforVtIns4LqGGdbhKSXULI6TR0U&#xA;hhUbV+eXY8XDkj1BYTycUC9U1XWotE8n3GsTUK2NibijftMkdVX/AGTUGYkY8Uq828mhbyv8ntY8&#xA;2af5st9K8zandX48yaPFq1h9bleUI/Jm9OMOzBP3ZYsB4D2zL1EYmNxH0mmjESDR6hPtH/OHV7u2&#xA;1XWL3QBa+WdHe5iutTW5V3aWA0jijhIRizkqK9N8rlpwKAPqLIZjua2DH/zK81ecNZ/KrVL7U9BO&#xA;g2UpspdOl+tLLNIsk6/bRVRk+Gh3yzDCMcgANsckiYGxTKbX8wtZvNS1Xyx5m8uvo17+i59QgEd2&#xA;s6yW4BQr6kQHFuo5Dw7bZUcIAEom92YyGyCK2SjTfzPs/L/k3ynp+l2An1LVrVpba1vL1YooYULF&#xA;nmu5gAdxRRQV6CmwM5YDKUiTsPJiMtRACSeffzI1TzZ5G0dtN054INQ1iPTNXiS8VW9dPjFosiru&#xA;swo3q9BToa5PFhEJmz0tjPIZRFd72PyppsemeXbCyjsf0aIoqtYeu116TuS7p67byfEx+LMPJK5E&#xA;3bkRFBNsgydirsVdirsVdir4V8veUPMfmP6wNEs2vpLXgZoY2T1AsnKjBCQxX4aEgUG1eozezyRj&#xA;zdXGBPJ9O/krarF+Wp0a2EllrNpJOmoRXAEcqXDsTUojF1Uj4VY0JpWmazUn130c3CPTXVhWnfl3&#xA;5KHn9ND83qL7zJq/rOLOyW4htUASS4a7Mryu7tLxIpsFNfh2By45pcFx+kNYxx4qPNOfMmgfl95X&#xA;8lS6re6Laavd2CQ20bTTsZJ51VVeT95IWCsSCFUV4/F0OQhOcpUDTKUYxjdLPOnkf8q4PL8+q6xp&#xA;NzpaOLa3j1GKW5mMTXMYdZEjlahWJm4svHx2rhx5cl0DaJwhVkMv/Kvyze+W9Df6xcWy6O6+vaCF&#xA;ZoaoyqTcTJNJKI2cLyKqaCvbplOeYkfNsxR4R5Pnrzf5E17VvMWu65oelz/4de5ubhL6b0ooAgZm&#xA;lZZOfpmMMGCENv8APbNhjygRAJ3cScCSSOT1n/nFn/lENW/7aB/5MR5ia76h7nI03IvacwnJYDqf&#xA;5b3Gqa15znvJITp/mWxtrW1UFjLHLbxkCR1Khfhk4stGPTMiOahGucS1HHZPmxOx/JbzmvkDUdBv&#xA;dTs31K71KLUGYPM9vPHFGq+jcH045KMyhjxHYZadTHjBA2prGGXDSN0D8n9citPNlvqI0rT4/MNl&#xA;Fa2sGkib0YHiDUYpKqk7lSTy336YJ6gXGr270xxHe63RkHkDz/dW/lGLWbnS2byvfxSh7U3AMlnD&#xA;EiLXmlDMSprTiuROWA4qv1BPhy2utkJdflV55gTXNB0bWLGDyl5gupLm59eORryBZyPVjhA/dkFR&#xA;x+I/ccIzw2JB4gg4pbgHYsk0P8vrnR/P8WtW0kX6FttBi0W3hLN9Y5wyoysw4BOPBOvKte2Vyy3C&#xA;uvFbOOOpX0qmGP8Akp5qHl7R7L19Nu5tL1C8vJdOu2uGsbhborw5lEWTnGAf2ab/AH3fmY2TvuPi&#xA;1+CaC4fkr5qPk6bSWuNMS5bX31oafH6402WFo0UW8gCrKigoaKtfh713D+ZjxXv9Nea+CarztfH+&#xA;Tfmk+UfN+kk6TZ3XmGSxks4LIzpaQi1kV5FIaMutQu1Aanwx/MR4onfa18E0RtuzT8xvKGt+ZPJa&#xA;eXdOuILdp5Ldb6WZnUfV4iHf0+KOSxZFoCAMow5BGXEW3JAyjQY9c/kna6T5j8va35PZbSXTLrlf&#xA;x3dxO4ktWAV0jqJqNw5ADYb5YNTcSJdWBw0QQitL/Km8b8vdf8qardRK+r3s93DcW5aRUDuksPIO&#xA;sZJV4hyH44JZxxiQ6BIxekgpfrfkL81de8jXflfVr3R5AqWyafcxfWUdzBIrM1wSjCvBduC9clHL&#xA;jjPiFsTCZjRpk+u+TNU1DzsddhlgW0OiXGl8HZxJ600hZWoEK8KdTyr7ZVHIBGvO2yUCZX5MRvfy&#xA;Z1s6R5WltX0q51vQLZrO5tNSia40+4jZi29U5/CWNPgr8qZcNSLlzo93NrOE0OVhMbz8tvMl95c0&#xA;axeDRNNvLHXrfV7qHSopLa0MMKFCEXgzNKajdgNu+2RGaIkTufTW6TjJA5c3p+Yre7FXYq7FXYq7&#xA;FXYq+GPJVt9b80adZG9ewjvJfq81zG4jcRygpIgdiAPUVim+2++b3IaiS6uA3fSfkHy1qek6Lc6r&#xA;q1ncWmtapcxw2Gix3ksEUcNtCLe1hd0fiaRRVZ2BYgCg5UGa3LME0OQ6uZjiQLPNR0ho/wDlaOmw&#xA;+aPLKaR5hjEz6JrFg7S292pt5RLHPIyrzYR8mBb4q+FfiZf3Z4TY6hR9e43VfPWn67dahMI4V1vU&#xA;dEtF1OJXtrR4hWV/RhjgMU1w8031Yq7JIoXag7FxEAdwOyzBvvpF+cLvSLn8v5dT8wWJ1OOe8Etr&#xA;pdnJPIJpkYpBbuXjikX4ko6iNaHYg71jjBE6BpMyOGyivL9tq15bWlr5k0YeX0vg6WVtpV/PEqkQ&#xA;sfTlhhMSo3pqzAoSNt6GlRMgfSb94TEHqKeD/mR5V1jy7oi29+z2rwXZ02BPUXhqFlBze2ujEpNG&#xA;iB4En+Yd+Vc/DkEjt/Y4uSJAen/84s/8ohq3/bQP/JiPMXXfUPc36bkXtOYTkpLJ5x8vx+aovKsl&#xA;wV1qeA3MVuUajRjkdnpxrRCaV7ZPwzw8XRjxi66rn83aCnmmPyubiutSwG6W3CsQIhXcvTiD8PSt&#xA;cfDPDxdF4xddUZpOp/pG1a4+q3Fnxlki9K7j9KQ+k5TmFqfgenJT3G+CUaSDbtY1P9GWD3n1W4ve&#xA;DIv1ezj9aY+o4SoSoqF5cm8ACcYxs0pNIzIpUYL2zuJJo7eeOaS2f07hI3VjG9AeLgE8Woa0OEgo&#xA;tWwJQeran+jrZJ/qtxec5YofStI/VkHquE5stR8CVq57DJRjaCaRmRS7FXYq7FXYqlvmDzJonl6x&#xA;F9rF0trbs6xRkhnd5H+ykcaBndj4KDkoQMjQYykBzQvl3zp5e8wyXEGm3Dm7tOJurSeKW3njDV4l&#xA;o5lRqGnUbYZ4zHmsZg8k8yDJAa/rNromi3ur3au9tYQvcTJEAXKxipChior8zkoR4jSJGhaMhlWa&#xA;GOVahZFDqD1owrvkSlfirsVQuq3/AOj9Oub76tPd/V4zJ9WtU9WeTj+zGlRyY9hhiLNIJoKVtqwn&#xA;1KSx+p3UXpwRXH1qWLjA3qkj01eu8icfiXtUYTHa1vdH5FL4H0m2mudUtLeBVeWWZFRWCstSw+0H&#xA;+GnjXbN/I0HVDm9x/PfVvM+gaTb+WrHTrTS/J7MsVl6bJJcSeiA/LiSxjHM1DAcqipbfMHSxjI8R&#xA;NycnOSBXRVOpXvmTy9oes6RpnmSLzLoVokOiyrH61nI60T1pZZIwshmQfHTamxwcIiSCY8J5puwC&#xA;AbDMNB83+c5dPkbW/Jl/Yaqkkdy82mJHwvHjoCsnJ1ZOQUA8i230DKZY43tIV5tkZy6hit2PN/mG&#xA;+EXmjy1q2h+W7Fze6bZaDEGmN56ob1JHCsWf43atF7/tUy4cMR6SDLzazZ5ggeTGPMH5keY5fzfh&#xA;1HQ7SWz1AFbGKy1igQqfgB4SLE1usi0dqMN++WQwx8Ojy8mEsh47DX/OQuk3Md1omsXemQ6bqWow&#xA;OdWjgdZK3KELUsvUMi/D9PeuOklzANgLnHIs7/5xZ/5RDVv+2gf+TEeUa76h7m3Tci9pzCcl4/5v&#xA;0u+vfOvmXWdNUy6x5Xh0e+0+FBVpAhuXmh2+I+pEXFO9RmZjkBEA8pX+hx5i5EjmKWaLZTnz75S8&#xA;yalBJb6t5kudYnMEo4vDbC0VbWFwehSCAH/WY4yPolEco0oHqBPW1DS3vtX0HyrZ3WoXix33mHUo&#xA;LqSG5lileKMXTLGZEYPx+AClemGVAyNfwj9CBuB71XUbzU9J03ztoUGoXctto2paJ+j5555JLiOO&#xA;9ltnki9ZjzKbkAV6HEAExNcwf0qSQCO6k01yLUdI89HVfMkd/daJd31pHo19ZXsiQWrNxVIbiyRo&#xA;+QaUfE1GDA7+GQjRhUaut9v0spWJWeST6ZZjQYvzK1/TpLj9J6Tc3X1RXnleMcrZHEjxOxRypNQW&#xA;B2FMnI8XADyLECuIhF+R9M89w3NlqztMui3WnSnUJ59WfUfrUjxc4biON0T0W5fydj7bjLKHLrfd&#xA;SYCXPp71LTrKfT/yu0PWU1K/n1LVrjRmu57i6lkNHuowUQFuKrxfiaDcda4k3kIoULUCog+5B6oP&#xA;zC8z+YvM/wCiBMLrSb76npcseqNZpaLEqsrNZiNlmE1asznf7PQZKPBGIvqO79KDxSJr72e/mONa&#xA;TyP+lrSR4tU0ZrfVHjgcqsn1Yh54mp9tDHz2OxzHw1x0eR2bcl8N9zHZ/MlhqSebPNV3f3qeWYIr&#xA;XStNWwleKaRxxlmaEKV/eSTTrEG60BFfC0QI4Ygermw4rs9ErgvNZ0y3866aqapp1qvlqTUbO11O&#xA;7F1cQzcbiP1YZUlmMYbh9ktXkK0GSIB4TsfV0Y2RY35JtpVnP5f81eSFtNRv54fMVtdLqcF5dTXM&#xA;bvFaC4SRVlZuLBhTbtkJHijKwNmQFEeabeaZYI/zS8ofpGgsmgvksGf7H19hHxBqOPMx1Cd69MjD&#xA;+7lXl8mUvrFu1lbeb84/LhsuJvbbTr86wU+0LZ/TFsshHb1SxUHGP92b7xSn6wwzy9Fe6X5X8h+Z&#xA;oNU1CXUNV1GystSjuLyeaCaG7d42BidmUFNitOmXToylGhQDXHYAqmv2kvmPyl581vV7+6a70yfU&#xA;LOz0yK5kitraK0+GMPDEyrI0gFWL1DDBA8MogDnSyFgkr/ML+b9f83X2h6dHNLBpmmWj2MMGpvpZ&#xA;SS4jJN0QiOZyrfDQniv+yxhwxjZ6nutZWTQ+9N4NJ1vVPNfl3SPMl9dR3NvoEtxqEdldSQpNcw3M&#xA;MXOQxFOVeXI+/ttkDICJMR/EyokgHuSLzfq+v6anmvylZXFxJrN1qVvf+XmMr+oIJ0N1KsZB5enE&#xA;bSVKdN6ZZjiDwyPKt2MyRY6ovUfM135k0jzb5osLqWCwsPL8NtZrDK6oLu4h+uTv8JoJIg8aV6jc&#xA;ZEQETGJ/nfsSZWCfJOL5fM2o6z5l03Rr97bUJNA082Lu7BI5pHn5MvXgzBacwK9D2yA4QASNuIsj&#xA;ZJA7kd+XN/ptp+l7C6t73SdV0/6sdVg1O+a9RfWVvReK4eR14vQ9OO/bBmBNHYg9wTjI3fHWbh1z&#xA;13y9+Yn5PWmh2Om6z5Vm1G4SINf6g6xPK9y9DMy8pA1OXQ8hXwzEnhyE2JU5EckAKITTzX+eg0/R&#xA;9ItPIeptHHbx+hLaT2igQwQqqQLWX1SzcR8RDn6Mhj0tkmYTLPQHCw7/AJX5+bX/AFff+nSz/wCq&#xA;OXflcfd97Dx596YaF/zkB+Yg1WzTVtZDaa1xEL6QWtt6iwFwJSgSMbhKkbZGWkhWw3THPK9yyzWf&#xA;zX/JttUm1O50aXzFq8pSuoSW6QrSNVVKCSQ8SOFaqgyqODJVXQZnLC7qy8f86anoOpeYrq70C2ks&#xA;tIl4tbWUtKxEoPUAozihk5MN++ZmMERo83HmQTtye+/84s/8ohq3/bQP/JiPNfrvqHucvTci9pzC&#xA;clB22j6bbale6lBAEvtREQvZwTWQQKViqCafCGPTJGRIruQALtu60nTru+sr+4gWS805pHspiTWM&#xA;zIY5KUNPiQ03wCRArvUgIO18peXbVLSO3sljSwuJLy0AZzwnm5iRxVty3qt123yRySKBAOufKXl2&#xA;6fUJJ7JXfVZLeXUCWceq9nxMBNG24emvT6cRkkK8lMAhz5D8pNrg1x9PWTU1l+sLNI8rqs1KeosT&#xA;MYw/gwWuHxZVV7I4BdqreTPLDa5LrpsE/SlwhjuJqvxkUoY/3kfL03PA8astaYPElVXsngF2hNI/&#xA;LbyRpF6b3TtLS3uKSKrB5WVBKvFxGjOyIGH8oGSlmkRRKBjiOQTL/DOhfoi10f6ov6NsjC1rbcmo&#xA;htmDxUNeXwsoO5yHGbvqnhFUl+t/lz5K1vUG1HU9LjmvXUJLMryRGRRsBIImQSU/yq5KOaURQKJY&#xA;4ncp+9tA9s1q8Ya3ZDE0R3UoRxKn2pkLZ0lVt5N8r23l1vLcOnRDRGDBrFqsh5vzNSxLE8t6127Z&#xA;I5JGXFe7HgFV0Qunfl15M06K9itNNWNNRtzZ31ZJnaWBgQUZndm6Md61wnNI8zyQMcQmb6BpD3Om&#xA;3TWymfRw66a9WrEJI/Sem+9U23rkeM7+bLhHyXa1oWj65YNYataR3tmxDGGUVHJejDuCPEYxkYmw&#xA;piDzQ3l7yj5b8uRSx6LYR2frEGaReTSOR05yOWdqdqnDPJKXMojADk5fKXl1dN07TFslFjpM0Vzp&#xA;8HJ6RSwMWjYHlU8Se5x8SVk968Aqkv1n8s/Ims6hNqGpaRFPeXA43EvKRPUoAAXCMqsQBsSKjJRz&#xA;TiKBQccTuQiNd8heUtdlt5tU05J57VPSgmV5IpBH/IXiZGZfYmmCOWUeRWUAeaNsfLeiWFxa3Fpa&#xA;LDNZ2psLVlLfBbFlcxgE0pyRT45EzJ5pEQG5/LmiT67ba9NaI+r2kTQW14a80jevJRvT9s9u+Ima&#xA;rovCLvqhrPyX5XstCutBtNPjh0i9MhurRCwV/VFHqa8twKdcJySJu91EABSVW/kh7vXdfu9bWGTT&#xA;NShtbGzsoWkDC3s2d1aVxwPNnetFOwHXJnLQAHMMeDc27UPyv8r3Hl248v2luLOwvriGfUWHKWaY&#xA;QyLJxMsjM9W4ceRJoK0xGeXFZU4hVPizN0612KuxV2KuxV2KuxV9M/8AOLP/ACiGrf8AbQP/ACYj&#xA;zWa76h7nN03IvacwnJYVf+YPNOs+ab/y/wCWJLawt9HWL9K6tdRNcH1p15pDBCHiViqUZmLe2XiE&#xA;YxBl1ajIk0Oic6XrJg1K38tandC78wfUnvpZ4oTDE8KzCHkF5PxarD4a5CUduIcmYO9Hmk1552+v&#xA;3nliXRLhlsNQ1a4sLwPGoMi28E/JfjBZR6sQIIocmMVA30DEzuq71ukfmvpF5pWs6neWN7YWujS3&#xA;CzPJbz8Wjt5fSB5PHGolbq0X2l79MZYCCADzQMoonuZNd6/p1pq0GlTMwu7i3mu4wFJX0rcoJCT4&#xA;/vBQZUIEi2wyF0hYvOOiS6bouoq8n1bX5YoNOJQ8i80bypyH7PwxnD4ZsjuRxige9D6P590PWNbu&#xA;9HsI7qW4sZpra7n+ryC3jlt24sjTU4VJHwiu+GWIgWUCYJprzH+YPlvy/dm0vnnkuEi+s3Edrby3&#xA;JggqR6s3pK3ppUdThhilLcLLIApar+ZHlzTri1gAur+S8tF1C3+oW0t0GtXNBL+6DUXvU4xwyKnI&#xA;Am9hrFrregrqehXCTRXUTtZTsrBeYqo5IwVhxcUYHfIGPCaKQbFhg11+Z99b/llpHm+b0Yrj61BB&#xA;rFsyNvxnMF1HEtao4Kl1rXYd8vGAGZj8ms5fSCyPWPNNzB5x0XRrR4fqc9rdajq877+naQqqxMrV&#xA;AAaV9ye2Vxh6SSzMvUAs0n8zfKuq3f1W0e5MskEl1Z+pazxi7hhFXe15IPW+S7nGWGQ5oGQFD+Xv&#xA;zR0XUvKsvmLUIJ9Itbcfv/rEU3pktI8aLBI0aeuxKdIwSCadcM8BEuEbrHKCLRMH5l+V5dI1TUme&#xA;4gXRVV9Ss7iCSG6iVxVGMMgVqOPsnAcMrA718QUT3K2j/mB5d1S6ubRTcWV1awG7khv7aa0Y2ymh&#xA;nUTKtU98ZYpBIyArtC896JrUc1xbRXcGnww/WRqV3bS21rJCNy8c0qorADf5b4JYjFYzBY95l/M2&#xA;Cfybq+q+XTdwtZpDLbalNZyJBKjzojNA06cZPhY9sshh9QEmEsnpJDING8/+X9Wnu7aIXVreWUP1&#xA;qazu7We3mNv0EqRugZ1P+TU+2VyxEMxkBa0Dz/5f1zUDp1sLq2vWjaeCG9tZrUzQoQrSRGVVDCrD&#xA;39sM8RiLWOQHZLtK/N7ydqVxYRRtdwQ6m4isL25tZobaWUmgiSZ1CFq7deu2Slp5C/JiMsSzXKG1&#xA;2Kvi3/lT/wCZn/Uu3f8AwK/1zdfmId7rfCl3O/5U/wDmZ/1Lt3/wK/1x/MQ718KXc7/lT/5mf9S7&#xA;d/8AAr/XH8xDvXwpdzv+VP8A5mf9S7d/8Cv9cfzEO9fCl3O/5U/+Zn/Uu3f/AAK/1x/MQ718KXc7&#xA;/lT/AOZn/Uu3f/Ar/XH8xDvXwpdzv+VP/mZ/1Lt3/wACv9cfzEO9fCl3Pff+cePLGv8Al7yxqVtr&#xA;VjJYzy3vqRxygAsnpIvIUJ7jMDVzEpCnL08SBu9VzEb3nsx1/wAoectZ1FNIuta0HzC0Nxz09Vku&#xA;bW4ijWFleJmTkjgcgy9MyNpxAuiGneMiasFT1C81a3846Z51j0DUrnT7nSZtNnso4o/rtvIbpJY2&#xA;khMg2cL2O3fCAOExsc7Uk8XFXRLfKvlzzDFpnlE3OnTW8lrrt/eXkMgHKGGdLngz0JG/qKNvHJZJ&#xA;i5b9B+hEYmh725tG1+68t+evKP6KuY7y9udS1DTr1lX6pcJczCWKNJeW0jcqcT07nHiAlGV9y0aI&#xA;pMrG51nzH510++m0K/0mC20q9tLqW9jREE87wkLGVdi4HA/FtXIkCMSLB3CQSZcuiTaND5mfT/JP&#xA;lu68vX1tc+XNQgfUL1ljazMUFvNCHjlVyW5eoD9nbv2rORjcpWNwxF7CuTMPy50rUdOi8xi+gaA3&#xA;ev6jdW4f9uCaQGOQezDplOaQNV/NDZjBF+9inmby3Pa+fNa1K/03WdR0fXoLZY5NDuJUKPBEYZIb&#xA;mGKWHkjD4lLVAqfE0thO4AAgEd7XKPqJ3o9yf+WdCms/NunXFtp09jpEHl2OyhjuCGeJ1uQwgdgz&#xA;1dU67n55XOVxO+/EzjHf4Iz8rdK1HS/Kv1TUIGtpxe3sgifY8JLmR0O3Yq1cGeQMtvJOIEBiC/l/&#xA;qt/5z1HQdQs2/wAFi7vdYinYj05Z7+2SEQoB09KSWZxl3igRBH1bD5Nfhkyo/Ss8reS/OGo+X/Ms&#xA;WuQm11RtJTy3pUkhoHht4nBlqKnhNJIKn2xnkiCK5XaxgSDfdSL8gaNbjVNEOoaBr9trWkQvF9Zv&#xA;7mSfT7djB6UggLzuhWQCihE8PAYMstjRjR+acY3GxtK5NA8zXn5cweXf0Nex6p5Z1GO8kj5CBL2J&#xA;LqSQizuVYfF6b8q7EHpvTJccRPivaQ+XvY8JMarkib3y9DqXlPzU+j6FrsOrX9jHAZNakkklnIaq&#xA;xoJZpmPDx6b7YBOpRsir6JMbBoFl3mXTLh/OdnqTafLfabBo2pQ3UcSqzSGRoWWBQxUFpFRgoJA9&#xA;8phL01e9hskPVfkw+w8teZ9R0nzBoGjpqtj5ZudKeDTrbXeAeO8LAJFAavMIPSBU8+nbLjOIIJri&#xA;vo1iJIIF1XVNdYvdb8w/l5e6IvlzUNO1S3gtUaCaNBCzxzR8lgkVyJAAhOw6ZGIEZ3YIZEkxqk18&#xA;x6b5iHn2HV9JtfVMGg30EEr0ERu2kR4InP8AlMuQgY8FHvCZA8VjuYr5U07zbd+dvLGpanDrcslj&#xA;Berq9zqqQR28c88CjjarDT92XU7/AOr75bkMREgV05MIg8QJtLPJA1XzL+W3lfyzZaRdJbxXUNxf&#xA;6xOqRWqwW9007eg3IvI7ceAotK9Tk8tRmZE/BjC5RAp7rmA5TsVdirsVdirsVdirsVdirsVdirsV&#xA;dirsVdirsVdirsVdirsVdirsVdirsVdirsVdirsVdirsVdiqR+SP8Mf4V0//AAt/xwODfUf737Pq&#xA;Ny/v/wB79uv2ssy8XEeLmxhVbck8ytk7FX//2Q==</xmpGImg:image>
                  </rdf:Description>
               </rdf:li>
            </rdf:Alt>
         </xmp:Thumbnails>
         <xmpMM:InstanceID>xmp.iid:7d0747df-aad8-42a2-a57f-f5641b6e9901</xmpMM:InstanceID>
         <xmpMM:DocumentID>xmp.did:7d0747df-aad8-42a2-a57f-f5641b6e9901</xmpMM:DocumentID>
         <xmpMM:OriginalDocumentID>uuid:5D20892493BFDB11914A8590D31508C8</xmpMM:OriginalDocumentID>
         <xmpMM:RenditionClass>default</xmpMM:RenditionClass>
         <xmpMM:VersionID>1</xmpMM:VersionID>
         <xmpMM:DerivedFrom>
            <rdf:Description>
               <stRef:instanceID>uuid:5a45f1d3-441b-de43-8e24-0f0ebd49cb20</stRef:instanceID>
               <stRef:documentID>xmp.did:48b77480-e98d-49d5-ae48-fe98756bb9e0</stRef:documentID>
               <stRef:originalDocumentID>uuid:5D20892493BFDB11914A8590D31508C8</stRef:originalDocumentID>
               <stRef:versionID>1</stRef:versionID>
               <stRef:renditionClass>default</stRef:renditionClass>
            </rdf:Description>
         </xmpMM:DerivedFrom>
         <xmpMM:History>
            <rdf:Seq>
               <rdf:li>
                  <rdf:Description>
                     <stEvt:action>saved</stEvt:action>
                     <stEvt:instanceID>xmp.iid:01f49444-900c-48d5-a5b9-561f78779e55</stEvt:instanceID>
                     <stEvt:when>2023-10-25T11:53:17+02:00</stEvt:when>
                     <stEvt:softwareAgent>Adobe Illustrator 27.9 (Macintosh)</stEvt:softwareAgent>
                     <stEvt:changed>/</stEvt:changed>
                  </rdf:Description>
               </rdf:li>
               <rdf:li>
                  <rdf:Description>
                     <stEvt:action>saved</stEvt:action>
                     <stEvt:instanceID>xmp.iid:7d0747df-aad8-42a2-a57f-f5641b6e9901</stEvt:instanceID>
                     <stEvt:when>2024-08-01T09:18:35+02:00</stEvt:when>
                     <stEvt:softwareAgent>Adobe Illustrator 28.6 (Macintosh)</stEvt:softwareAgent>
                     <stEvt:changed>/</stEvt:changed>
                  </rdf:Description>
               </rdf:li>
            </rdf:Seq>
         </xmpMM:History>
         <illustrator:StartupProfile>Print</illustrator:StartupProfile>
         <illustrator:CreatorSubTool>Adobe Illustrator</illustrator:CreatorSubTool>
         <xmpTPg:HasVisibleOverprint>False</xmpTPg:HasVisibleOverprint>
         <xmpTPg:HasVisibleTransparency>False</xmpTPg:HasVisibleTransparency>
         <xmpTPg:NPages>1</xmpTPg:NPages>
         <xmpTPg:MaxPageSize>
            <rdf:Description>
               <stDim:w>127.000000</stDim:w>
               <stDim:h>45.861111</stDim:h>
               <stDim:unit>Millimeters</stDim:unit>
            </rdf:Description>
         </xmpTPg:MaxPageSize>
         <xmpTPg:PlateNames>
            <rdf:Seq>
               <rdf:li>Cyan</rdf:li>
               <rdf:li>Magenta</rdf:li>
               <rdf:li>Yellow</rdf:li>
               <rdf:li>Black</rdf:li>
            </rdf:Seq>
         </xmpTPg:PlateNames>
         <xmpTPg:SwatchGroups>
            <rdf:Seq>
               <rdf:li>
                  <rdf:Description>
                     <xmpG:groupName>Standaardstaalgroep</xmpG:groupName>
                     <xmpG:groupType>0</xmpG:groupType>
                     <xmpG:Colorants>
                        <rdf:Seq>
                           <rdf:li>
                              <rdf:Description>
                                 <xmpG:swatchName>Wit</xmpG:swatchName>
                                 <xmpG:mode>RGB</xmpG:mode>
                                 <xmpG:type>PROCESS</xmpG:type>
                                 <xmpG:red>255</xmpG:red>
                                 <xmpG:green>255</xmpG:green>
                                 <xmpG:blue>255</xmpG:blue>
                              </rdf:Description>
                           </rdf:li>
                           <rdf:li>
                              <rdf:Description>
                                 <xmpG:swatchName>Zwart</xmpG:swatchName>
                                 <xmpG:mode>RGB</xmpG:mode>
                                 <xmpG:type>PROCESS</xmpG:type>
                                 <xmpG:red>30</xmpG:red>
                                 <xmpG:green>30</xmpG:green>
                                 <xmpG:blue>28</xmpG:blue>
                              </rdf:Description>
                           </rdf:li>
                           <rdf:li>
                              <rdf:Description>
                                 <xmpG:swatchName>R=21 G=66 B=115</xmpG:swatchName>
                                 <xmpG:type>PROCESS</xmpG:type>
                                 <xmpG:tint>100.000000</xmpG:tint>
                                 <xmpG:mode>RGB</xmpG:mode>
                                 <xmpG:red>21</xmpG:red>
                                 <xmpG:green>66</xmpG:green>
                                 <xmpG:blue>115</xmpG:blue>
                              </rdf:Description>
                           </rdf:li>
                        </rdf:Seq>
                     </xmpG:Colorants>
                  </rdf:Description>
               </rdf:li>
            </rdf:Seq>
         </xmpTPg:SwatchGroups>
         <pdf:Producer>Adobe PDF library 17.00</pdf:Producer>
         <pdf:Trapped>False</pdf:Trapped>
         <pdfxid:GTS_PDFXVersion>PDF/X-1:2001</pdfxid:GTS_PDFXVersion>
         <pdfx:GTS_PDFXVersion>PDF/X-1:2001</pdfx:GTS_PDFXVersion>
         <pdfx:GTS_PDFXConformance>PDF/X-1a:2001</pdfx:GTS_PDFXConformance>
      </rdf:Description>
   </rdf:RDF>
</x:xmpmeta>
                                                                                                    
                                                                                                    
                                                                                                    
                                                                                                    
                                                                                                    
                                                                                                    
                                                                                                    
                                                                                                    
                                                                                                    
                                                                                                    
                                                                                                    
                                                                                                    
                                                                                                    
                                                                                                    
                                                                                                    
                                                                                                    
                                                                                                    
                                                                                                    
                                                                                                    
                                                                                                    
                                                                                                    
                                                                                                    
                                                                                                    
                                                                    
<?xpacket end="w"?>
  </metadata>
</svg>